<?xml version="1.0" encoding="UTF-8" standalone="no"?>
<!-- Created with Inkscape (http://www.inkscape.org/) -->

<svg
   width="23.348568mm"
   height="23.348566mm"
   viewBox="0 0 88.246557 88.246551"
   version="1.1"
   id="svg1"
   xml:space="preserve"
   xmlns="http://www.w3.org/2000/svg"
   xmlns:svg="http://www.w3.org/2000/svg"><defs
     id="defs1" /><g
     id="layer1"
     transform="translate(-296.40749,-432.0518)"><g
       id="g717"><path
         id="rect18"
         style="fill:#336791;stroke-width:0.778285"
         d="m 313.56164,432.05179 h 53.93822 c 9.50341,0 17.15417,7.65076 17.15417,17.15417 v 53.93821 c 0,9.50342 -7.65076,17.15418 -17.15417,17.15418 h -53.93822 c -9.50341,0 -17.15417,-7.65076 -17.15417,-17.15418 v -53.93821 c 0,-9.50341 7.65076,-17.15417 17.15417,-17.15417 z" /><path
         fill="#00618a"
         d="m 306.1636,490.84214 h 2.2779 v -8.99292 l 3.5258,7.83893 c 0.4151,0.95047 0.9838,1.28394 2.1018,1.28394 1.118,0 1.6636,-0.33347 2.0787,-1.28394 l 3.5258,-7.83893 v 8.99238 h 2.2779 v -8.97735 c 0,-0.8769 -0.3501,-1.30058 -1.0739,-1.5186 -1.7307,-0.53913 -2.8906,-0.0736 -3.4169,1.09492 l -3.4587,7.73798 -3.3497,-7.73798 c -0.5032,-1.16848 -1.6862,-1.63405 -3.4147,-1.09492 -0.7239,0.21802 -1.074,0.6417 -1.074,1.5186 z m 17.683,-7.32074 h 2.2757 v 4.95478 c -0.021,0.26849 0.086,0.89999 1.3339,0.92093 h 4.9526 v -5.90095 h 2.2822 c 0.011,0 -0.01,8.04621 -0.01,8.08004 0.012,1.98417 -2.4605,2.41429 -3.6016,2.44813 h -7.1903 v -1.53149 h 7.2032 c 1.4659,-0.15304 1.292,-0.88335 1.292,-1.1266 v -0.59767 h -4.8394 c -2.2526,-0.0209 -3.6853,-1.0047 -3.7041,-2.13559 0,-0.10257 0.048,-5.0595 0,-5.10997 z m 12.5982,7.32074 h 6.5486 c 0.7657,0 1.5105,-0.16163 2.1017,-0.43818 0.986,-0.45107 1.466,-1.06538 1.466,-1.86872 v -1.66358 c 0,-0.65674 -0.5456,-1.27105 -1.6195,-1.67809 -0.5687,-0.22016 -1.2711,-0.33561 -1.9488,-0.33561 h -2.7606 c -0.9188,0 -1.357,-0.27709 -1.466,-0.88925 -0.021,-0.0736 -0.021,-0.1321 -0.021,-0.20567 v -1.03638 c 0,-0.0585 0,-0.11761 0.021,-0.19064 0.109,-0.46556 0.3501,-0.59766 1.1599,-0.67123 l 0.2202,-0.0145 h 6.5024 v -1.51645 h -6.3929 c -0.9188,0 -1.401,0.0585 -1.8397,0.18902 -1.357,0.42368 -1.9487,1.09492 -1.9487,2.2634 v 1.32797 c 0,1.02135 1.1599,1.89825 3.1086,2.10177 0.2202,0.0145 0.4382,0.0295 0.6567,0.0295 h 2.366 c 0.088,0 0.174,0 0.2411,0.0145 0.7217,0.0585 1.0278,0.19063 1.248,0.45322 0.1133,0.10471 0.1782,0.25399 0.1739,0.40703 v 1.33012 c 0,0.15948 -0.109,0.36515 -0.327,0.53913 -0.1971,0.17614 -0.5262,0.29159 -0.9628,0.32112 l -0.2411,0.0145 h -6.286 z m 24.3239,-2.64305 c 0,1.56263 1.1621,2.43738 3.5028,2.61352 0.2202,0.0145 0.4382,0.0295 0.6589,0.0295 h 5.9342 v -1.5186 h -5.9783 c -1.336,0 -1.8397,-0.33562 -1.8397,-1.13895 v -7.85397 h -2.2757 v 7.86793 z m -12.7534,0.0795 v -5.4139 c 0,-1.37415 0.9671,-2.20863 2.8755,-2.47121 a 4.2830086,4.2830086 0 0 1 0.6149,-0.044 h 4.3211 c 0.2202,0 0.4173,0.0145 0.638,0.044 1.909,0.26205 2.8739,1.09706 2.8739,2.47121 v 5.4139 c 0,1.11586 -0.4092,1.71192 -1.3548,2.10177 l 2.2446,2.02444 h -2.6452 l -1.8145,-1.63835 -1.8268,0.11546 h -2.4352 a 4.9563903,4.9563903 0 0 1 -1.3382,-0.18902 c -1.4493,-0.39415 -2.1522,-1.1556 -2.1522,-2.4143 z m 2.4583,-0.13209 c 0,0.0736 0.023,0.14659 0.044,0.2352 0.1321,0.62934 0.726,0.97946 1.6234,0.97946 h 2.0684 l -1.9004,-1.71567 h 2.6452 l 1.6572,1.49765 c 0.3061,-0.16378 0.5074,-0.41133 0.5767,-0.73191 0.023,-0.0736 0.023,-0.1466 0.023,-0.22016 v -5.1916 c 0,-0.0585 0,-0.13209 -0.023,-0.20566 -0.1321,-0.58532 -0.7239,-0.92093 -1.6002,-0.92093 h -3.4464 c -1.009,0 -1.6674,0.43818 -1.6674,1.12659 z m 22.394,-10.33486 c -1.3989,-0.0376 -2.4691,0.0924 -3.3836,0.47846 -0.2599,0.10901 -0.6755,0.11115 -0.7174,0.43657 0.1428,0.15089 0.1659,0.37535 0.2792,0.55793 0.2181,0.35441 0.5875,0.82642 0.9167,1.07397 0.3565,0.27279 0.7276,0.56223 1.1137,0.79689 0.6836,0.41724 1.4493,0.65674 2.1104,1.07398 0.3882,0.24755 0.7737,0.55792 1.1534,0.83716 0.1869,0.13639 0.3125,0.35226 0.5579,0.43818 v -0.0397 c -0.1278,-0.16378 -0.1616,-0.38824 -0.2792,-0.55793 l -0.5182,-0.51819 c -0.5053,-0.67123 -1.1475,-1.26085 -1.8311,-1.75165 -0.5456,-0.39039 -1.7619,-0.91879 -1.9906,-1.55243 l -0.04,-0.0397 c 0.3861,-0.0419 0.8393,-0.18257 1.1938,-0.27708 0.5998,-0.16164 1.1346,-0.11975 1.7516,-0.27924 l 0.8372,-0.2411 v -0.15734 c -0.3126,-0.32112 -0.5349,-0.7448 -0.8769,-1.03639 -0.8893,-0.75715 -1.8628,-1.51645 -2.8654,-2.15009 -0.5558,-0.35012 -1.2415,-0.57673 -1.8311,-0.87475 -0.1971,-0.10042 -0.5456,-0.1509 -0.6777,-0.31897 -0.3082,-0.39415 -0.4763,-0.89355 -0.7153,-1.35321 a 51.837506,51.837506 0 0 1 -1.4326,-3.02485 c -0.3018,-0.69003 -0.4994,-1.372 -0.8769,-1.99061 -1.8059,-2.97222 -3.7525,-4.76576 -6.7672,-6.52762 -0.6395,-0.37536 -1.4138,-0.52249 -2.2274,-0.71527 l -1.3151,-0.0795 c -0.2663,-0.1133 -0.5434,-0.44033 -0.7947,-0.59766 -0.9983,-0.6315 -3.5597,-2.00302 -4.3002,-0.19922 -0.4656,1.13894 0.6986,2.25052 1.1159,2.82778 0.2915,0.40489 0.6669,0.85811 0.8747,1.31293 0.1386,0.29803 0.1616,0.59767 0.2792,0.91449 0.2895,0.78024 0.5413,1.62761 0.9167,2.34932 0.189,0.36515 0.3963,0.7491 0.6358,1.07397 0.1466,0.19923 0.3984,0.28944 0.4382,0.59767 -0.2454,0.34421 -0.2599,0.8769 -0.3985,1.31293 -0.6229,1.96108 -0.3882,4.39846 0.5182,5.85209 0.2771,0.44462 0.9311,1.401 1.8311,1.03424 0.7867,-0.32112 0.6106,-1.31294 0.835,-2.18984 0.053,-0.19707 0.021,-0.34421 0.1198,-0.4763 v 0.0397 l 0.7174,1.43268 c 0.5306,0.85381 1.4703,1.74521 2.2677,2.34717 0.4151,0.31253 0.7405,0.85381 1.2754,1.03639 v -0.0419 h -0.04 c -0.1047,-0.15948 -0.2663,-0.2266 -0.3984,-0.35656 -0.3126,-0.30608 -0.6589,-0.68573 -0.9145,-1.03638 -0.726,-0.98376 -1.3677,-2.06203 -1.9509,-3.18433 -0.2792,-0.53484 -0.5225,-1.1266 -0.7571,-1.67164 -0.09,-0.20997 -0.088,-0.5284 -0.2771,-0.6358 -0.2578,0.39845 -0.6374,0.72171 -0.8372,1.19373 -0.319,0.75285 -0.3587,1.67378 -0.4784,2.6264 l -0.08,0.0397 c -0.5537,-0.13425 -0.7491,-0.70453 -0.9542,-1.19373 -0.5225,-1.23775 -0.6187,-3.23266 -0.1595,-4.65675 0.1176,-0.36891 0.6546,-1.53148 0.4365,-1.87086 -0.1025,-0.33991 -0.4446,-0.53699 -0.6358,-0.79689 a 6.2827481,6.2827481 0 0 1 -0.6374,-1.11371 c -0.4258,-0.96711 -0.625,-2.04914 -1.0739,-3.02485 -0.2138,-0.46771 -0.5768,-0.93973 -0.8748,-1.35482 -0.3313,-0.45912 -0.7008,-0.7969 -0.9564,-1.35321 -0.09,-0.19708 -0.2137,-0.5139 -0.079,-0.71742 0.042,-0.13639 0.1047,-0.19278 0.2389,-0.23681 0.2309,-0.17828 0.8748,0.0585 1.1137,0.15734 0.6396,0.26634 1.1728,0.51819 1.7136,0.8769 0.2577,0.17183 0.5203,0.5053 0.835,0.59766 h 0.3587 c 0.5601,0.12781 1.1873,0.0376 1.7119,0.19708 0.9252,0.28085 1.7559,0.71957 2.5067,1.19588 2.2945,1.44718 4.1702,3.50921 5.4536,5.96968 0.2078,0.3963 0.2959,0.7738 0.4785,1.19373 0.3673,0.84736 0.8285,1.71996 1.1937,2.54854 0.3651,0.82857 0.7195,1.66143 1.2334,2.34931 0.2707,0.36086 1.3173,0.55364 1.7914,0.75501 0.3335,0.14069 0.8791,0.28729 1.1937,0.47845 0.6042,0.36301 1.1873,0.79474 1.7538,1.19373 0.2809,0.20137 1.1497,0.63794 1.1938,0.99611 z m -17.7942,-15.16558 a 2.8245518,2.8245518 0 0 0 -0.7152,0.0795 v 0.0397 h 0.04 c 0.1386,0.28728 0.384,0.47201 0.5558,0.71741 l 0.3984,0.83502 0.04,-0.0376 c 0.2475,-0.17399 0.3587,-0.45322 0.3587,-0.8769 -0.1004,-0.10472 -0.1133,-0.23467 -0.1992,-0.35871 -0.1133,-0.16593 -0.3335,-0.25775 -0.4785,-0.39844 z m 0,0"
         id="path1-61"
         style="fill:#ffffff;fill-opacity:1;stroke-width:0.536987" /></g></g></svg>
