<?xml version="1.0" encoding="UTF-8" standalone="no"?>
<!-- Created with Inkscape (http://www.inkscape.org/) -->

<svg
   width="23.348568mm"
   height="23.348558mm"
   viewBox="0 0 88.246557 88.246523"
   version="1.1"
   id="svg1"
   xml:space="preserve"
   xmlns="http://www.w3.org/2000/svg"
   xmlns:svg="http://www.w3.org/2000/svg"><defs
     id="defs1" /><g
     id="layer1"
     transform="translate(-296.40749,-558.79376)"><g
       id="g725"><path
         id="rect20"
         style="fill:#003956;stroke-width:0.778285"
         d="m 313.56164,558.79376 h 53.93822 c 9.50341,0 17.15417,7.65076 17.15417,17.15418 v 53.93821 c 0,9.50341 -7.65076,17.15417 -17.15417,17.15417 h -53.93822 c -9.50341,0 -17.15417,-7.65076 -17.15417,-17.15417 v -53.93821 c 0,-9.50342 7.65076,-17.15418 17.15417,-17.15418 z" /><g
         id="g41"
         transform="matrix(0.47586935,0,0,0.47586935,309.91545,572.46123)"
         style="fill:#ffffff;fill-opacity:1;stroke:none"><path
           d="m 69.5,99.176 c -0.059,-0.73 -0.094,-1.2 -0.094,-1.2 0,0 -2.206,-14.889 -4.836,-19.334 -0.414,-0.707 0.043,-3.594 1.207,-7.88 0.68,1.169 3.54,6.192 4.118,7.81 0.648,1.824 0.78,2.347 0.78,2.347 0,0 -1.57,-8.082 -4.144,-12.797 a 162.286,162.286 0 0 1 2.004,-6.265 c 0.973,1.71 3.313,5.859 3.828,7.3 0.102,0.293 0.192,0.543 0.27,0.774 0.023,-0.137 0.05,-0.274 0.074,-0.414 -0.59,-2.504 -1.75,-6.86 -3.336,-10.082 3.52,-18.328 15.531,-42.824 27.84,-53.754 H 16.9 c -5.387,0 -9.789,4.406 -9.789,9.789 v 88.57 c 0,5.383 4.406,9.789 9.79,9.789 H 69.798 A 118.657,118.657 0 0 1 69.501,99.177"
           fill="#0b7fcc"
           id="path3-75"
           style="fill:#ffffff;fill-opacity:1;stroke:none" /><path
           d="m 65.777,70.762 c 0.68,1.168 3.54,6.188 4.117,7.809 0.649,1.824 0.781,2.347 0.781,2.347 0,0 -1.57,-8.082 -4.144,-12.797 a 164.535,164.535 0 0 1 2.004,-6.27 c 0.887,1.567 2.922,5.169 3.652,6.872 l 0.082,-0.961 C 71.621,65.266 70.636,61.996 69.371,59.434 72.613,42.563 83.051,20.464 94.297,8.536 H 16.899 a 6.94,6.94 0 0 0 -6.934,6.933 v 82.11 c 17.527,-6.731 38.664,-12.88 56.855,-12.614 -0.672,-2.605 -1.441,-4.96 -2.25,-6.324 -0.414,-0.707 0.043,-3.597 1.207,-7.879"
           fill="url(#sqlite-original-a)"
           id="path4-3"
           style="fill:#ffffff;fill-opacity:1;stroke:none" /><path
           d="m 115.95,2.781 c -5.5,-4.906 -12.164,-2.933 -18.734,2.899 a 44.347,44.347 0 0 0 -2.914,2.859 c -11.25,11.926 -21.684,34.023 -24.926,50.895 1.262,2.563 2.25,5.832 2.894,8.328 0.168,0.64 0.32,1.242 0.442,1.754 0.285,1.207 0.437,1.996 0.437,1.996 0,0 -0.101,-0.383 -0.515,-1.582 -0.078,-0.23 -0.168,-0.484 -0.27,-0.773 -0.043,-0.125 -0.105,-0.274 -0.172,-0.434 -0.734,-1.703 -2.765,-5.305 -3.656,-6.867 -0.762,2.25 -1.437,4.36 -2.004,6.265 2.578,4.715 4.149,12.797 4.149,12.797 0,0 -0.137,-0.523 -0.782,-2.347 -0.578,-1.621 -3.441,-6.64 -4.117,-7.809 -1.164,4.281 -1.625,7.172 -1.207,7.88 0.809,1.362 1.574,3.722 2.25,6.323 1.524,5.867 2.586,13.012 2.586,13.012 0,0 0.031,0.469 0.094,1.2 a 118.653,118.653 0 0 0 0.297,14.651 c 0.504,6.11 1.453,11.363 2.664,14.172 l 0.828,-0.449 C 71.513,122.016 70.79,114.758 71.106,106.395 71.586,93.602 74.528,78.18 79.962,62.106 89.153,37.836 101.9,18.368 113.564,9.071 102.931,18.673 88.541,49.755 84.232,61.266 79.412,74.157 75.994,86.25 73.931,97.84 77.481,86.977 88.978,82.31 88.978,82.31 c 0,0 5.637,-6.958 12.227,-16.888 -3.95,0.903 -10.43,2.442 -12.598,3.352 -3.2,1.344 -4.067,1.8 -4.067,1.8 0,0 10.371,-6.312 19.27,-9.171 12.234,-19.27 25.562,-46.648 12.141,-58.621"
           fill="#003956"
           id="path5-8"
           style="fill:#ffffff;fill-opacity:1;stroke:none" /></g></g></g></svg>
