<?xml version="1.0" encoding="UTF-8" standalone="no"?>
<!-- Created with Inkscape (http://www.inkscape.org/) -->

<svg
   width="23.34856mm"
   height="23.348566mm"
   viewBox="0 0 88.246528 88.246551"
   version="1.1"
   id="svg1"
   xml:space="preserve"
   xmlns="http://www.w3.org/2000/svg"
   xmlns:svg="http://www.w3.org/2000/svg"><defs
     id="defs1" /><g
     id="layer1"
     transform="translate(-676.63344,-432.0518)"><g
       id="g720"><path
         id="rect27"
         style="fill:#8f0000;stroke-width:0.778285"
         d="m 693.7876,432.05179 h 53.93821 c 9.50341,0 17.15417,7.65076 17.15417,17.15417 v 53.93821 c 0,9.50342 -7.65076,17.15418 -17.15417,17.15418 H 693.7876 c -9.50342,0 -17.15418,-7.65076 -17.15418,-17.15418 v -53.93821 c 0,-9.50341 7.65076,-17.15417 17.15418,-17.15417 z" /><path
         d="m 726.31433,507.57468 c 0.392,-1.57659 -1.081,-3.06405 -2.061,-2.08351 -1.205,1.21574 -2.026,0.7201 -1.6775,-1.00094 0.2019,-1.03746 0.1009,-1.62224 -0.2938,-1.62224 -1.038,0 -0.6631,-1.51967 0.5961,-2.41 0.6632,-0.46127 2.309,-0.84468 3.6612,-0.85596 1.3516,0 2.8245,-0.25936 3.2654,-0.58531 0.6283,-0.43818 0.4844,-0.50692 -0.6337,-0.25937 -0.7958,0.18151 -2.1157,0.0693 -2.9115,-0.23627 -1.0954,-0.41509 -1.859,-0.34582 -3.0984,0.27118 -2.061,1.02296 -2.0266,1.03746 -2.0266,-0.22554 0,-0.7201 -0.4409,-1.1035 -1.3978,-1.21573 l -1.3838,-0.18151 1.1819,-1.25977 c 1.2625,-1.35213 2.6345,-1.38381 6.3418,-0.19009 2.4208,0.77809 2.2162,0.0113 -0.3839,-1.45309 -2.4557,-1.37469 -4.1332,-3.27723 -10.3708,-11.73155 -6.6442,-8.98702 -7.1167,-10.14584 -7.4078,-17.73507 l -0.2475,-6.34988 -3.4475,-4.04082 c -1.8907,-2.21937 -3.6891,-4.19119 -3.9952,-4.38182 -0.3055,-0.17828 -1.7812,-0.48329 -3.2772,-0.66264 -3.0753,-0.35978 -3.2654,-0.80118 -1.5766,-3.66064 1.3264,-2.27414 3.0839,-2.53351 5.6292,-0.84415 0.9022,0.59606 1.9944,1.05787 2.4444,1.04606 0.5075,-0.0199 0.3458,-0.25937 -0.4038,-0.62828 -0.6771,-0.31682 -1.219,-0.755 -1.219,-0.96872 0,-0.60787 7.1398,-1.08042 9.2239,-0.59606 4.3232,0.98806 5.7071,2.50773 6.4384,7.04688 0.4962,3.07264 0.8216,3.69233 3.0501,5.78765 1.3634,1.29414 3.8738,3.01787 5.5739,3.82818 1.7012,0.80978 4.0758,2.27414 5.2926,3.24233 2.8594,2.27414 7.3417,8.82592 8.8721,12.94783 0.6632,1.79031 1.4756,3.56881 1.8016,3.97478 0.8903,1.06967 -0.5392,1.80159 -2.8482,1.44127 a 39.748854,39.748854 0 0 0 -4.6057,-0.33723 c -1.4988,-0.0231 -3.041,-0.30554 -3.433,-0.61968 -1.0031,-0.80978 -3.6494,-6.81114 -4.1332,-9.34465 -0.8447,-4.50532 -2.4648,-6.16837 -8.1627,-8.38774 -4.0876,-1.58787 -4.3899,-1.83596 -6.5862,-5.26032 -2.018,-3.14138 -2.3982,-5.50519 -0.8645,-5.39028 1.5734,0.12136 1.147,-1.98309 -0.5537,-2.79609 -1.1615,-0.56169 -1.9256,-0.58531 -3.3239,-0.12082 -1.2045,0.392 -2.5534,0.42637 -4.0521,0.0865 -1.2281,-0.27923 -2.2392,-0.38018 -2.2392,-0.22177 0,0.14391 1.2592,1.64318 2.8041,3.32019 4.5021,4.93169 4.8624,5.73019 4.4559,9.97614 -0.2363,2.45618 -0.1439,3.89692 0.2825,4.41296 0.349,0.41832 0.5853,0.96873 0.5305,1.21628 -0.057,0.2599 0.3029,1.37469 0.7867,2.48786 0.4962,1.10405 0.9021,2.38637 0.9021,2.83905 0,0.46127 0.3813,0.83287 0.8539,0.83287 0.6336,0 0.7431,0.31682 0.4607,1.21627 -0.3254,1.01222 -0.2594,1.11264 0.3834,0.57404 0.6342,-0.51926 0.9021,-0.31682 1.4756,1.09223 0.3834,0.9451 0.9344,2.29723 1.2168,3.00659 0.2825,0.69755 0.9801,1.3951 1.5562,1.54169 0.5827,0.14445 1.1819,0.93436 1.372,1.76669 0.1789,0.82159 0.7787,1.98363 1.3173,2.56572 0.5391,0.58801 1.1588,1.5911 1.3607,2.23065 0.5074,1.58841 2.9513,3.21977 5.2029,3.47967 1.4176,0.16969 1.8794,0.47255 1.8794,1.27374 0,0.5735 0.2819,0.98805 0.6192,0.922 0.349,-0.066 0.9225,0.24809 1.2973,0.67446 0.3571,0.4414 0.9108,0.80172 1.2249,0.80172 0.3168,0 0,-0.6084 -0.6976,-1.35213 -0.6975,-0.74373 -1.1239,-1.50732 -0.9338,-1.70064 0.1901,-0.17882 0.9918,0.42959 1.7785,1.37469 1.5766,1.86818 3.3895,3.03827 3.92,2.50773 0.1901,-0.17828 -0.755,-1.26783 -2.0835,-2.42933 -1.329,-1.14754 -2.2312,-2.27468 -2.018,-2.49914 0.2277,-0.225 1.0149,0.17882 1.7581,0.89892 3.5801,3.46786 6.4852,5.37255 8.2293,5.37255 0.8216,0 0.813,-0.10041 -0.057,-1.06055 -0.5161,-0.5735 -0.7985,-1.28232 -0.617,-1.58518 a 0.62558988,0.62558988 0 0 0 -0.2019,-0.86777 c -0.2938,-0.18151 -1.6658,-2.5217 -3.0523,-5.20233 -1.3838,-2.68064 -2.9716,-5.11051 -3.5365,-5.41606 -2.0148,-1.08095 -0.9344,-1.41818 4.2024,-1.31722 l 5.234,0.11491 4.5027,4.79368 c 2.4787,2.64574 4.4156,4.8882 4.3034,5.00096 -0.1037,0.11277 -0.689,-0.058 -1.2974,-0.38341 -1.4982,-0.80977 -1.6432,-0.755 -1.3172,0.49564 0.3168,1.205 -0.3716,1.43 -1.3489,0.43819 -0.3598,-0.34582 -0.8356,-0.44946 -1.0606,-0.225 -0.225,0.23627 1.0375,1.74682 2.816,3.35509 1.9025,1.73554 3.0178,3.11882 2.7037,3.39 -0.712,0.60519 -12.2417,-0.15841 -13.6599,-0.92254 -0.6315,-0.33991 -2.1388,-0.60841 -3.3551,-0.60841 -1.8365,0 -2.2048,0.17882 -2.2048,1.06646 0,2.17641 -1.7699,5.39564 -4.1338,7.55755 -1.3403,1.21682 -2.556,2.21991 -2.6919,2.21991 -0.1353,0 -0.1009,-0.57673 0.081,-1.26246 z m 2.6001,-3.52532 c -0.2363,-0.72064 -0.1788,-0.75178 0.2362,-0.15572 0.4382,0.59712 0.6976,0.49295 1.3747,-0.5531 0.45,-0.70882 0.8995,-1.7785 1.0004,-2.36382 0.1472,-0.92201 -0.078,-1.05786 -1.4525,-0.90214 -1.9342,0.225 -3.4561,0.96873 -4.7389,2.29723 -1.1615,1.21628 -1.1932,1.5766 -0.1235,1.5766 0.4494,0 1.2275,0.48436 1.7237,1.06968 1.0573,1.22755 2.4642,0.54182 1.9799,-0.96873 z m -1.8908,-1.7436 c 1.3516,-1.12445 2.2393,-1.36341 2.2393,-0.6084 0,0.43818 -2.3864,1.73232 -3.1414,1.70064 -0.2019,-0.0113 0.1928,-0.50692 0.9021,-1.09546 z m 18.7785,-7.56614 c -0.1901,-0.30609 -0.5853,-0.54236 -0.8759,-0.54236 -0.306,0 -0.3952,0.23627 -0.2019,0.54236 0.1789,0.29104 0.5735,0.53913 0.8646,0.53913 0.3061,0 0.3952,-0.24809 0.2132,-0.53913 z m -1.6765,-6.83477 c 1.4756,-0.56491 0.9483,-1.29736 -0.6981,-0.95691 -0.8876,0.167 -1.7205,0.043 -1.9251,-0.29427 -0.5074,-0.80978 -1.5422,-0.75501 -1.2598,0.0666 0.1241,0.37428 0.8104,0.83555 1.5305,1.03746 0.7324,0.20191 1.3639,0.39469 1.4069,0.41509 0.057,0.0344 0.4843,-0.0864 0.9451,-0.26849 z m -5.1019,-2.87074 c 0,-0.25936 -0.3807,-0.63418 -0.8538,-0.81299 -1.3285,-0.50477 -1.5068,-0.392 -0.7663,0.48436 0.7437,0.90214 1.6228,1.08095 1.6228,0.32863 z m -6.947,-6.67797 c -0.392,-0.39522 -0.6401,-0.4269 -0.6401,-0.0779 0,0.72064 0.6428,1.36019 1.0031,0.99987 0.1557,-0.15573 -0.011,-0.5735 -0.3598,-0.92201 z m 1.4644,-1.75863 c -0.9344,-0.92201 -4.4565,-3.00337 -4.6933,-2.75528 -0.1697,0.15573 -0.2014,0.3716 -0.081,0.46127 0.1241,0.0891 0.9344,0.70883 1.7904,1.36341 1.2855,0.9655 3.819,1.76669 2.9829,0.93382 z m 3.8614,-1.372 c 0,-0.65137 -1.9917,-1.93691 -3.8045,-2.44114 -1.2163,-0.35173 -1.1588,-0.22769 0.5504,1.27104 1.9025,1.67755 3.2573,2.16191 3.2573,1.17064 z m -5.3237,-8.79048 c -0.3947,-0.39522 -0.6427,-0.42959 -0.6427,-0.0924 0,0.73191 0.6427,1.36341 1.0031,1.00309 0.1557,-0.14445 -0.011,-0.56222 -0.3598,-0.91395 z m -3.8963,-2.83959 c 0,-0.13532 -0.2481,-0.39468 -0.5392,-0.57618 -0.3055,-0.17882 -0.5418,-0.0752 -0.5418,0.23896 0,0.31682 0.2363,0.57672 0.5424,0.57672 0.2905,0 0.5386,-0.10418 0.5386,-0.2395 z m -7.2837,-2.21936 c -1.1154,-0.83287 -1.735,-0.69755 -1.1384,0.24808 0.1933,0.32864 0.7668,0.57619 1.2737,0.56492 0.7985,-0.0118 0.7872,-0.11546 -0.1353,-0.80978 z m -12.2272,-14.34293 a 0.56544733,0.56544733 0 0 0 -0.5762,-0.55041 c -0.3147,0 -0.4269,0.24487 -0.2481,0.55041 0.1933,0.29427 0.4527,0.53914 0.5762,0.53914 0.1358,0 0.2481,-0.24487 0.2481,-0.53914 z m -10.3048,-0.55041 c 0,-0.29427 -0.5504,-0.53054 -1.2249,-0.53054 -0.98,0.0118 -1.0611,0.11276 -0.4065,0.53054 1.0579,0.68573 1.6314,0.68573 1.6314,0 z m 30.7178,44.1006 c -0.1933,-0.20191 -0.3603,-0.72064 -0.3603,-1.15882 0,-0.63096 0.1557,-0.65405 0.8071,-0.11545 0.4526,0.37481 0.8242,0.89354 0.8242,1.15291 0,0.56222 -0.755,0.62827 -1.271,0.12136 z m -7.4335,-8.26423 c -1.023,-0.86455 -1.6658,-1.77797 -1.4295,-2.02605 0.2476,-0.24756 0.7003,-0.0231 1.0031,0.51926 0.2937,0.5386 1.1239,1.19319 1.8446,1.47242 0.7206,0.27118 1.3199,0.74373 1.3199,1.04927 0,0.92255 -0.755,0.64009 -2.7381,-1.01437 z m -30.7264,-34.38597 -1.7436,-0.62881 1.372,-1.76991 c 1.0144,-1.29414 1.8241,-1.75541 3.0179,-1.75541 0.9021,0 1.5331,0.1815 1.4208,0.40328 -0.1154,0.22822 -0.6197,1.32045 -1.1384,2.43255 -0.5074,1.12767 -0.98,2.018 -1.0579,1.99491 a 243.36789,243.36789 0 0 1 -1.8708,-0.67714 z"
         id="path1-5"
         style="fill:#ffffff;fill-opacity:1;stroke-width:0.536987" /></g></g></svg>
