<?xml version="1.0" encoding="UTF-8" standalone="no"?>
<!-- Created with Inkscape (http://www.inkscape.org/) -->

<svg
   width="23.348568mm"
   height="23.348574mm"
   viewBox="0 0 88.246557 88.24658"
   version="1.1"
   id="svg1"
   xml:space="preserve"
   xmlns="http://www.w3.org/2000/svg"
   xmlns:svg="http://www.w3.org/2000/svg"><defs
     id="defs1" /><g
     id="layer2"
     transform="translate(-279.41667,-658.10454)"><g
       id="g6"
       transform="matrix(0.60655033,0,0,0.60655033,284.72036,663.40865)"><g
         id="g7"><path
           id="path704"
           style="fill:#293138;fill-opacity:1;stroke-width:0.778285"
           d="m 296.57082,658.10459 h 53.93821 c 9.50342,0 17.15418,7.65076 17.15418,17.15418 v 53.93821 c 0,9.50341 -7.65076,17.15417 -17.15418,17.15417 h -53.93821 c -9.50341,0 -17.15417,-7.65076 -17.15417,-17.15417 v -53.93821 c 0,-9.50342 7.65076,-17.15418 17.15417,-17.15418 z"
           transform="matrix(1.6486678,0,0,1.6486678,-469.40929,-1093.7405)" /><path
           fill="#252f3e"
           d="m 36.379,53.64 c 0,1.56 0.168,2.825 0.465,3.75 0.336,0.926 0.758,1.938 1.347,3.032 0.207,0.336 0.293,0.672 0.293,0.969 0,0.418 -0.254,0.84 -0.8,1.261 l -2.653,1.77 c -0.379,0.25 -0.758,0.379 -1.093,0.379 -0.422,0 -0.844,-0.211 -1.266,-0.59 a 13.28,13.28 0 0 1 -1.516,-1.98 34.153,34.153 0 0 1 -1.304,-2.485 c -3.282,3.875 -7.41,5.813 -12.38,5.813 -3.535,0 -6.355,-1.012 -8.421,-3.032 -2.063,-2.023 -3.114,-4.718 -3.114,-8.086 0,-3.578 1.262,-6.484 3.833,-8.671 2.566,-2.192 5.976,-3.286 10.316,-3.286 1.43,0 2.902,0.125 4.46,0.336 1.56,0.211 3.161,0.547 4.845,0.926 v -3.074 c 0,-3.2 -0.676,-5.43 -1.98,-6.734 C 26.061,32.633 23.788,32 20.546,32 c -1.473,0 -2.988,0.168 -4.547,0.547 a 33.416,33.416 0 0 0 -4.547,1.433 c -0.676,0.293 -1.18,0.461 -1.473,0.547 -0.296,0.082 -0.507,0.125 -0.675,0.125 -0.59,0 -0.883,-0.422 -0.883,-1.304 v -2.063 c 0,-0.676 0.082,-1.18 0.293,-1.476 0.21,-0.293 0.59,-0.586 1.18,-0.883 1.472,-0.758 3.242,-1.39 5.304,-1.895 2.063,-0.547 4.254,-0.8 6.57,-0.8 5.008,0 8.672,1.136 11.032,3.41 2.316,2.273 3.492,5.726 3.492,10.359 v 13.64 z m -17.094,6.403 c 1.387,0 2.82,-0.254 4.336,-0.758 1.516,-0.508 2.863,-1.433 4,-2.695 0.672,-0.8 1.18,-1.684 1.43,-2.695 0.254,-1.012 0.422,-2.23 0.422,-3.665 v -1.765 a 34.401,34.401 0 0 0 -3.871,-0.719 31.816,31.816 0 0 0 -3.961,-0.25 c -2.82,0 -4.883,0.547 -6.274,1.684 -1.387,1.136 -2.062,2.734 -2.062,4.84 0,1.98 0.504,3.453 1.558,4.464 1.012,1.051 2.485,1.559 4.422,1.559 z m 33.809,4.547 c -0.758,0 -1.262,-0.125 -1.598,-0.422 -0.34,-0.254 -0.633,-0.84 -0.887,-1.64 L 40.715,29.98 c -0.25,-0.843 -0.38,-1.39 -0.38,-1.687 0,-0.672 0.337,-1.05 1.013,-1.05 h 4.125 c 0.8,0 1.347,0.124 1.644,0.421 0.336,0.25 0.59,0.84 0.84,1.64 l 7.074,27.876 6.57,-27.875 c 0.208,-0.84 0.462,-1.39 0.797,-1.64 0.34,-0.255 0.93,-0.423 1.688,-0.423 h 3.367 c 0.8,0 1.348,0.125 1.684,0.422 0.336,0.25 0.633,0.84 0.8,1.64 l 6.653,28.212 7.285,-28.211 c 0.25,-0.84 0.547,-1.39 0.84,-1.64 0.336,-0.255 0.887,-0.423 1.644,-0.423 h 3.914 c 0.676,0 1.055,0.336 1.055,1.051 0,0.21 -0.043,0.422 -0.086,0.676 -0.043,0.254 -0.125,0.59 -0.293,1.05 L 80.801,62.57 c -0.254,0.84 -0.547,1.387 -0.887,1.64 -0.336,0.255 -0.883,0.423 -1.598,0.423 h -3.62 c -0.801,0 -1.348,-0.13 -1.684,-0.422 -0.34,-0.297 -0.633,-0.844 -0.801,-1.684 l -6.527,-27.16 -6.485,27.117 c -0.21,0.844 -0.46,1.391 -0.8,1.684 -0.337,0.297 -0.926,0.422 -1.684,0.422 z m 54.105,1.137 c -2.187,0 -4.379,-0.254 -6.484,-0.758 -2.106,-0.504 -3.746,-1.055 -4.84,-1.684 -0.676,-0.379 -1.137,-0.8 -1.305,-1.18 a 2.919,2.919 0 0 1 -0.254,-1.18 v -2.148 c 0,-0.882 0.336,-1.304 0.97,-1.304 0.25,0 0.503,0.043 0.757,0.129 0.25,0.082 0.629,0.25 1.05,0.418 a 23.102,23.102 0 0 0 4.634,1.476 c 1.683,0.336 3.324,0.504 5.011,0.504 2.653,0 4.715,-0.465 6.145,-1.39 1.433,-0.926 2.191,-2.274 2.191,-4 0,-1.18 -0.379,-2.145 -1.136,-2.946 -0.758,-0.8 -2.192,-1.516 -4.254,-2.191 l -6.106,-1.895 c -3.074,-0.969 -5.348,-2.398 -6.734,-4.293 -1.39,-1.855 -2.106,-3.918 -2.106,-6.105 0,-1.77 0.38,-3.328 1.137,-4.676 a 10.829,10.829 0 0 1 3.031,-3.453 c 1.262,-0.965 2.696,-1.684 4.38,-2.188 1.683,-0.504 3.452,-0.715 5.304,-0.715 0.926,0 1.894,0.043 2.82,0.168 0.969,0.125 1.852,0.293 2.738,0.461 0.84,0.211 1.641,0.422 2.399,0.676 0.758,0.254 1.348,0.504 1.77,0.758 0.59,0.336 1.011,0.672 1.261,1.05 0.254,0.34 0.379,0.802 0.379,1.391 v 1.98 c 0,0.884 -0.336,1.348 -0.969,1.348 -0.336,0 -0.883,-0.171 -1.597,-0.507 -2.403,-1.094 -5.098,-1.641 -8.086,-1.641 -2.399,0 -4.293,0.379 -5.598,1.18 -1.309,0.797 -1.98,2.02 -1.98,3.746 0,1.18 0.421,2.191 1.261,2.988 0.844,0.8 2.403,1.602 4.633,2.316 l 5.98,1.895 c 3.032,0.969 5.22,2.316 6.524,4.043 1.305,1.727 1.938,3.707 1.938,5.895 0,1.812 -0.38,3.453 -1.094,4.882 -0.758,1.434 -1.77,2.696 -3.074,3.707 -1.305,1.051 -2.864,1.809 -4.672,2.36 -1.895,0.586 -3.875,0.883 -6.024,0.883 z m 0,0"
           id="path1-36"
           style="fill:#ff9900;fill-opacity:1" /><path
           fill="#ff9900"
           d="m 118,73.348 c -4.432,0.063 -9.664,1.052 -13.621,3.832 -1.223,0.883 -1.012,2.062 0.336,1.894 4.508,-0.547 14.44,-1.726 16.21,0.547 1.77,2.23 -1.976,11.62 -3.663,15.79 -0.504,1.26 0.59,1.769 1.726,0.8 7.41,-6.231 9.348,-19.242 7.832,-21.137 -0.757,-0.925 -4.388,-1.79 -8.82,-1.726 z M 1.63,75.859 c -0.927,0.116 -1.347,1.236 -0.368,2.121 16.508,14.902 38.359,23.872 62.613,23.872 17.305,0 37.43,-5.43 51.281,-15.66 2.273,-1.688 0.297,-4.254 -2.02,-3.204 -15.534,6.57 -32.421,9.77 -47.788,9.77 -22.778,0 -44.8,-6.273 -62.653,-16.633 C 2.305,75.894 1.94,75.821 1.631,75.859 Z"
           id="path2-75" /></g></g></g></svg>
