<?xml version="1.0" encoding="UTF-8" standalone="no"?>
<!-- Created with Inkscape (http://www.inkscape.org/) -->

<svg
   width="23.348568mm"
   height="23.348566mm"
   viewBox="0 0 88.246557 88.246551"
   version="1.1"
   id="svg1"
   xml:space="preserve"
   xmlns="http://www.w3.org/2000/svg"
   xmlns:svg="http://www.w3.org/2000/svg"><defs
     id="defs1" /><g
     id="layer1"
     transform="translate(-423.14949,-305.30985)"><g
       id="g710"><path
         id="rect32"
         style="fill:#293138;stroke-width:0.778285"
         d="m 440.30365,305.30984 h 53.93821 c 9.50341,0 17.15417,7.65077 17.15417,17.15418 v 53.93821 c 0,9.50341 -7.65076,17.15417 -17.15417,17.15417 h -53.93821 c -9.50341,0 -17.15417,-7.65076 -17.15417,-17.15417 v -53.93821 c 0,-9.50341 7.65076,-17.15418 17.15417,-17.15418 z" /><path
         fill="#293138"
         d="m 493.158,329.09689 -21.697,-12.88071 a 8.2298631,8.2298631 0 0 0 -4.1858,-1.15023 c -1.4434,0 -2.8922,0.38502 -4.1864,1.1556 l -21.7018,12.88124 c -2.5877,1.53525 -4.1858,4.37591 -4.1858,7.45231 v 25.76195 c 0,3.0764 1.5933,5.91706 4.1864,7.4523 l 21.6964,12.88071 a 8.1584438,8.1584438 0 0 0 4.1858,1.15023 8.2266411,8.2266411 0 0 0 4.1864,-1.15023 l 21.7018,-12.88071 c 2.5877,-1.53577 4.1863,-4.38181 4.1863,-7.4523 v -25.76786 c 0,-3.07049 -1.5932,-5.91706 -4.1863,-7.4523 z m -16.8024,40.22408 0.034,1.85153 c 0,0.22446 -0.1433,0.47738 -0.3157,0.56921 l -1.0987,0.63257 c -0.1724,0.0859 -0.3222,-0.0172 -0.3222,-0.24165 l -0.017,-1.82253 c -0.937,0.39093 -1.8918,0.48329 -2.4954,0.24164 -0.1149,-0.0462 -0.1664,-0.21318 -0.1208,-0.40864 l 0.3969,-1.67325 c 0.034,-0.1321 0.1036,-0.26473 0.1954,-0.34528 a 0.3893156,0.3893156 0 0 1 0.1037,-0.0746 c 0.063,-0.0344 0.1261,-0.0403 0.1782,-0.0172 0.6552,0.21856 1.4891,0.11492 2.294,-0.28729 1.0241,-0.51765 1.7077,-1.56424 1.6969,-2.59901 -0.012,-0.94349 -0.5176,-1.32851 -1.7543,-1.34032 -1.5755,0.005 -3.0474,-0.30447 -3.0705,-2.62802 -0.017,-1.90899 0.9719,-3.89852 2.5475,-5.15239 l -0.017,-1.86871 c 0,-0.22983 0.138,-0.48329 0.3163,-0.57458 l 1.0632,-0.67875 c 0.1729,-0.0865 0.3222,0.0231 0.3222,0.24701 l 0.018,1.86872 c 0.7818,-0.31038 1.4606,-0.3963 2.0754,-0.25238 0.1327,0.0344 0.1955,0.21801 0.138,0.43066 l -0.4134,1.65607 a 0.73674619,0.73674619 0 0 1 -0.1901,0.334 0.4430143,0.4430143 0 0 1 -0.1091,0.0806 c -0.058,0.0285 -0.1095,0.0344 -0.161,0.0285 -0.282,-0.0634 -0.9489,-0.20674 -2.0014,0.32219 -1.104,0.5574 -1.4891,1.51807 -1.4837,2.23118 0.012,0.85113 0.443,1.10942 1.9493,1.13305 2.0072,0.0344 2.8696,0.90804 2.8927,2.92658 0.028,1.97826 -1.0294,4.11171 -2.6511,5.41121 z m 11.3734,-3.1113 c 0,0.17291 -0.023,0.33347 -0.1664,0.41402 l -5.4859,3.33522 c -0.1434,0.0865 -0.2588,0.0118 -0.2588,-0.1611 v -1.41441 c 0,-0.17238 0.1036,-0.2642 0.247,-0.35066 l 5.4058,-3.23159 c 0.1439,-0.0859 0.2589,-0.0118 0.2589,0.1611 z m 3.7729,-31.67847 -20.5296,12.6788 c -2.5587,1.49497 -4.4451,3.17413 -4.4505,6.26234 v 25.29584 c 0,1.84563 0.7475,3.04203 1.8918,3.39269 a 6.8788037,6.8788037 0 0 1 -1.1384,0.10954 c -1.2023,0 -2.3869,-0.32756 -3.4276,-0.94348 l -21.6959,-12.88017 c -2.1216,-1.25923 -3.4383,-3.61124 -3.4383,-6.13561 v -25.76196 c 0,-2.52384 1.3167,-4.87584 3.4383,-6.13561 l 21.7023,-12.88071 a 6.741872,6.741872 0 0 1 3.4271,-0.94295 c 1.2018,0 2.3864,0.32756 3.427,0.94295 l 21.7024,12.88071 c 1.7881,1.06377 2.9958,2.89812 3.3347,4.96283 -0.7303,-1.53578 -2.352,-1.94926 -4.2433,-0.84521 z"
         id="path1-2"
         style="fill:#ffffff;fill-opacity:1;stroke-width:0.536987" /></g></g></svg>
