<?xml version="1.0" encoding="UTF-8" standalone="no"?>
<!-- Created with Inkscape (http://www.inkscape.org/) -->

<svg
   width="23.348572mm"
   height="23.348562mm"
   viewBox="0 0 88.246571 88.246537"
   version="1.1"
   id="svg1"
   xml:space="preserve"
   xmlns="http://www.w3.org/2000/svg"
   xmlns:svg="http://www.w3.org/2000/svg"><defs
     id="defs1" /><g
     id="layer1"
     transform="translate(-169.66553,-178.56783)"><g
       id="g699"><path
         id="rect22"
         style="fill:#004482;stroke-width:0.778285"
         d="m 186.81968,178.56783 h 53.93822 c 9.50341,0 17.15417,7.65076 17.15417,17.15417 v 53.93821 c 0,9.50341 -7.65076,17.15417 -17.15417,17.15417 h -53.93822 c -9.50341,0 -17.15417,-7.65076 -17.15417,-17.15417 V 195.722 c 0,-9.50341 7.65076,-17.15417 17.15417,-17.15417 z" /><path
         fill="#004482"
         d="m 213.78854,188.38958 c -0.9569,0 -1.9138,0.20943 -2.6398,0.62935 l -25.2024,14.55128 c -1.452,0.83662 -2.6388,2.89436 -2.6388,4.56976 v 29.10308 c 0,0.83878 0.2954,1.77099 0.7738,2.59956 v 0 c 0.4779,0.82857 1.14,1.55189 1.866,1.97181 l 25.2014,14.54913 c 1.4515,0.83877 3.8287,0.83877 5.2796,0 v 0 l 25.203,-14.54913 c 0.726,-0.41885 1.3865,-1.14324 1.8649,-1.97181 0.478,-0.82857 0.7738,-1.76132 0.7738,-2.60063 v -29.10362 c 0,-0.83609 -0.2953,-1.76938 -0.7738,-2.59795 v 0 c -0.4784,-0.82964 -1.1389,-1.5535 -1.8649,-1.97074 l -25.203,-14.5502 c -0.7254,-0.42046 -1.6823,-0.62989 -2.6398,-0.62989 z m 0,13.97939 c 7.2305,0 13.9724,3.89101 17.5971,10.15442 l -8.7959,5.0901 c -1.8107,-3.13385 -5.1873,-5.08365 -8.8012,-5.08365 -5.6018,0 -10.1609,4.55902 -10.1609,10.16194 0,5.60292 4.5591,10.16033 10.1609,10.16033 3.6166,0 6.9889,-1.94658 8.8039,-5.08258 l 8.7932,5.08902 c -3.6225,6.26235 -10.3666,10.15443 -17.5971,10.15443 -11.2053,0 -20.3212,-9.11643 -20.3212,-20.32174 0,-11.20531 9.1159,-20.32174 20.3212,-20.32174 v 0 z m 15.8068,16.93496 h 2.2558 v 2.2591 h 2.257 v 2.25696 h -2.257 v 2.2591 h -2.2558 v -2.2591 h -2.2592 v -2.25696 h 2.2592 z m 8.4656,0 h 2.2596 v 2.2591 h 2.257 v 2.25696 h -2.257 v 2.2591 h -2.2596 v -2.2591 h -2.2581 v -2.25696 h 2.2581 z"
         id="path1-7"
         style="fill:#ffffff;fill-opacity:1;stroke-width:0.536987" /></g></g></svg>
