<?xml version="1.0" encoding="UTF-8" standalone="no"?>
<!-- Created with Inkscape (http://www.inkscape.org/) -->

<svg
   width="23.34856mm"
   height="23.348572mm"
   viewBox="0 0 88.246528 88.246573"
   version="1.1"
   id="svg1"
   xml:space="preserve"
   xmlns:inkscape="http://www.inkscape.org/namespaces/inkscape"
   xmlns:sodipodi="http://sodipodi.sourceforge.net/DTD/sodipodi-0.dtd"
   xmlns="http://www.w3.org/2000/svg"
   xmlns:svg="http://www.w3.org/2000/svg"><sodipodi:namedview
     id="namedview1"
     pagecolor="#ffffff"
     bordercolor="#000000"
     borderopacity="0.25"
     inkscape:showpageshadow="2"
     inkscape:pageopacity="0.0"
     inkscape:pagecheckerboard="0"
     inkscape:deskcolor="#d1d1d1"
     inkscape:document-units="mm"
     showguides="true"
     inkscape:export-bgcolor="#ffffff00"><inkscape:page
       x="0"
       y="-2.0136887e-13"
       width="88.246529"
       height="88.246567"
       id="page2"
       margin="0"
       bleed="0" /></sodipodi:namedview><defs
     id="defs1" /><g
     inkscape:label="Camada 1"
     inkscape:groupmode="layer"
     id="layer1"
     transform="translate(-676.63344,-178.56783)"><g
       id="g704"><rect
         id="rect23"
         width="88.246559"
         height="88.246559"
         x="676.63342"
         y="178.56783"
         rx="17.154173"
         ry="0"
         style="fill:#1572b6;fill-opacity:1;stroke-width:0.778285" /><path
         fill="#1572b6"
         d="m 691.09355,189.0051 5.3994,60.61671 24.2278,6.75529 24.2954,-6.77999 5.4037,-60.59201 z m 48.1092,13.88756 -1.7973,20.1934 0.01,0.10901 -0.01,0.25077 v -0.002 l -1.277,14.11954 -0.1407,1.2544 -15.2289,4.21213 v 5.3e-4 l -0.012,0.0102 -15.2026,-4.23575 -1.0294,-11.67356 h 7.455 l 0.5289,5.93586 8.2621,2.23923 v 0.004 -0.001 l 8.2927,-2.27092 0.8764,-9.6663 h -17.3356 l -0.1487,-1.63405 -0.3389,-3.82818 -0.1777,-2.05559 h 18.6597 l 0.6788,-7.51782 h -28.4206 l -0.1487,-1.63297 -0.3383,-3.82926 -0.1783,-2.05558 h 37.203 z"
         id="path1-6"
         style="fill:#ffffff;fill-opacity:1;stroke-width:0.536987" /></g></g></svg>
