<?xml version="1.0" encoding="UTF-8" standalone="no"?>
<!-- Created with Inkscape (http://www.inkscape.org/) -->

<svg
   width="23.34856mm"
   height="23.348562mm"
   viewBox="0 0 88.246528 88.246537"
   version="1.1"
   id="svg1"
   xml:space="preserve"
   xmlns="http://www.w3.org/2000/svg"
   xmlns:svg="http://www.w3.org/2000/svg"><defs
     id="defs1" /><g
     id="layer1"
     transform="translate(-676.63344,-178.56783)"><g
       id="g704"><path
         id="rect23"
         style="fill:#1572b6;stroke-width:0.778285"
         d="m 693.7876,178.56783 h 53.93821 c 9.50341,0 17.15417,7.65076 17.15417,17.15417 v 53.93821 c 0,9.50341 -7.65076,17.15417 -17.15417,17.15417 H 693.7876 c -9.50342,0 -17.15418,-7.65076 -17.15418,-17.15417 V 195.722 c 0,-9.50341 7.65076,-17.15417 17.15418,-17.15417 z" /><path
         fill="#1572b6"
         d="m 691.09355,189.0051 5.3994,60.61671 24.2278,6.75529 24.2954,-6.77999 5.4037,-60.59201 z m 48.1092,13.88756 -1.7973,20.1934 0.01,0.10901 -0.01,0.25077 v -0.002 l -1.277,14.11954 -0.1407,1.2544 -15.2289,4.21213 v 5.3e-4 l -0.012,0.0102 -15.2026,-4.23575 -1.0294,-11.67356 h 7.455 l 0.5289,5.93586 8.2621,2.23923 v 0.004 -0.001 l 8.2927,-2.27092 0.8764,-9.6663 h -17.3356 l -0.1487,-1.63405 -0.3389,-3.82818 -0.1777,-2.05559 h 18.6597 l 0.6788,-7.51782 h -28.4206 l -0.1487,-1.63297 -0.3383,-3.82926 -0.1783,-2.05558 h 37.203 z"
         id="path1-6"
         style="fill:#ffffff;fill-opacity:1;stroke-width:0.536987" /></g></g></svg>
