<?xml version="1.0" encoding="UTF-8" standalone="no"?>
<!-- Created with Inkscape (http://www.inkscape.org/) -->

<svg
   width="23.348572mm"
   height="23.348566mm"
   viewBox="0 0 88.246571 88.246551"
   version="1.1"
   id="svg1"
   xml:space="preserve"
   xmlns:inkscape="http://www.inkscape.org/namespaces/inkscape"
   xmlns:sodipodi="http://sodipodi.sourceforge.net/DTD/sodipodi-0.dtd"
   xmlns="http://www.w3.org/2000/svg"
   xmlns:svg="http://www.w3.org/2000/svg"><sodipodi:namedview
     id="namedview1"
     pagecolor="#ffffff"
     bordercolor="#000000"
     borderopacity="0.25"
     inkscape:showpageshadow="2"
     inkscape:pageopacity="0.0"
     inkscape:pagecheckerboard="0"
     inkscape:deskcolor="#d1d1d1"
     inkscape:document-units="mm"
     showguides="true"
     inkscape:export-bgcolor="#ffffff00"><inkscape:page
       x="-9.8249035e-13"
       y="0"
       width="88.246567"
       height="88.246552"
       id="page2"
       margin="0"
       bleed="0" /></sodipodi:namedview><defs
     id="defs1" /><g
     inkscape:label="Camada 1"
     inkscape:groupmode="layer"
     id="layer1"
     transform="translate(-169.66553,-305.30985)"><g
       id="g708"><rect
         id="rect24"
         width="88.246559"
         height="88.246559"
         x="169.66551"
         y="305.30984"
         rx="17.154173"
         ry="0"
         style="fill:#092e20;fill-opacity:1;stroke-width:0.778285" /><g
         style="fill:#ffffff;fill-opacity:1"
         id="g2"
         transform="matrix(0.53698701,0,0,0.53698701,179.42189,315.06596)"><path
           d="m 59.448,0 h 20.93 V 96.88 C 69.641,98.92 61.758,99.735 53.197,99.735 27.646,99.734 14.327,88.184 14.327,66.03 c 0,-21.338 14.135,-35.2 36.015,-35.2 3.398,0 5.98,0.272 9.106,1.087 z m 0,48.765 c -2.446,-0.815 -4.485,-1.086 -7.067,-1.086 -10.6,0 -16.717,6.523 -16.717,17.939 0,11.145 5.845,17.26 16.582,17.26 2.309,0 4.212,-0.136 7.202,-0.542 z"
           id="path1-0"
           style="fill:#ffffff;fill-opacity:1" /><path
           d="M 113.672,32.321 V 80.84 c 0,16.717 -1.224,24.735 -4.893,31.666 -3.398,6.661 -7.883,10.873 -17.124,15.494 L 72.22,118.759 c 9.242,-4.35 13.726,-8.153 16.58,-14 2.99,-5.979 3.943,-12.91 3.943,-31.122 V 32.321 Z M 92.742,0.111 h 20.93 v 21.474 h -20.93 z"
           id="path2-6"
           style="fill:#ffffff;fill-opacity:1" /></g></g></g></svg>
