<?xml version="1.0" encoding="UTF-8" standalone="no"?>
<!-- Created with Inkscape (http://www.inkscape.org/) -->

<svg
   width="23.34856mm"
   height="23.348566mm"
   viewBox="0 0 88.246528 88.246551"
   version="1.1"
   id="svg1"
   xml:space="preserve"
   xmlns="http://www.w3.org/2000/svg"
   xmlns:svg="http://www.w3.org/2000/svg"><defs
     id="defs1" /><g
     id="layer1"
     transform="translate(-930.11753,-305.30985)"><g
       id="g714"><path
         id="rect33"
         style="fill:#019bc6;stroke-width:0.778285"
         d="m 947.2716,305.30984 h 53.9382 c 9.5034,0 17.1542,7.65077 17.1542,17.15418 v 53.93821 c 0,9.50341 -7.6508,17.15417 -17.1542,17.15417 h -53.9382 c -9.50341,0 -17.15417,-7.65076 -17.15417,-17.15417 v -53.93821 c 0,-9.50341 7.65076,-17.15418 17.15417,-17.15418 z" /><path
         d="m 1006.927,342.93558 c -2.309,-1.34246 -5.3698,-1.50356 -7.94739,-0.75178 -0.3222,-2.79233 -2.1479,-5.20877 -4.2959,-6.92713 l -0.8592,-0.69808 -0.7517,0.85917 c -1.4499,1.66466 -1.8795,4.457 -1.6647,6.60495 0.1611,1.55726 0.6444,3.16822 1.611,4.45699 -0.7518,0.42959 -1.5573,1.02027 -2.3091,1.28877 -1.5035,0.53698 -3.1682,1.07397 -4.7792,1.07397 h -3.5978 v -7.57152 h -6.9808 v -13.42467 h -8.0548 v 6.44384 h -13.4247 v 6.98083 h -6.9808 v 7.51782 h -6.0143 l -0.1074,0.80548 c -0.2685,3.43672 0.1611,6.76604 1.611,9.93426 l 0.5907,1.18137 0.054,0.1074 c 4.2422,7.19563 11.6526,10.20275 19.7611,10.20275 15.68,0 28.6214,-7.03453 34.5283,-21.80167 3.97369,0.2148 8.05479,-0.96658 9.98789,-4.77918 l 0.4833,-0.96658 z m -51.98029,-7.03453 h 5.3699 v 5.90686 h -5.3699 z m 7.0345,23.73483 c 0,0.91288 -0.7518,1.66466 -1.6646,1.66466 -0.9129,0 -1.6647,-0.75178 -1.6647,-1.66466 0,-0.91288 0.7518,-1.66466 1.6647,-1.66466 0.9128,0.0537 1.6646,0.75178 1.6646,1.66466 z m -7.0345,-16.754 h 5.3699 v 5.90686 h -5.3699 z m -6.9808,0 h 5.9068 v 5.90686 h -5.9068 z m 14.8745,26.95675 c -8.4844,-0.0537 -13.0488,-2.89973 -16.8077,-6.65864 1.1277,0.0537 2.2016,0.1074 3.1682,0.1074 0.8592,0 1.7184,0 2.5239,-0.0537 2.0942,-0.10739 3.92,-0.37589 5.4235,-0.80548 1.2351,2.84603 3.4904,5.47727 7.5179,7.41042 z m 4.457,-21.04989 h -5.9069 v -5.90686 h 5.9069 z m 0,-6.98083 h -5.9069 v -5.90686 h 5.9069 z m 6.9808,6.98083 h -5.9068 v -5.90686 h 5.9068 z m 0,-6.98083 h -5.9068 v -5.90686 h 5.9068 z m 0,-6.98083 h -5.9068 v -5.90686 h 5.9068 z m 6.9809,13.96166 h -5.9069 v -5.90686 h 5.9069 z m -20.513,9.77317 c -0.1074,-0.0537 -0.2684,-0.1074 -0.4295,-0.1074 -0.6444,0 -1.1814,0.53699 -1.1814,1.18137 0,0.64438 0.537,1.18137 1.1814,1.18137 0.6443,0 1.1813,-0.53699 1.1813,-1.18137 0,-0.1611 -0.054,-0.32219 -0.1074,-0.42959 -0.1074,0.1611 -0.2148,0.26849 -0.4296,0.26849 -0.2685,0 -0.4832,-0.21479 -0.4832,-0.48328 0.054,-0.2148 0.161,-0.3759 0.2684,-0.42959 z"
         fill="#019bc6"
         id="path1-8"
         style="fill:#ffffff;fill-opacity:1;stroke-width:0.536987" /></g></g></svg>
