<?xml version="1.0" encoding="UTF-8" standalone="no"?>
<!-- Created with Inkscape (http://www.inkscape.org/) -->

<svg
   width="23.34856mm"
   height="23.348558mm"
   viewBox="0 0 88.246528 88.246523"
   version="1.1"
   id="svg1"
   xml:space="preserve"
   xmlns:inkscape="http://www.inkscape.org/namespaces/inkscape"
   xmlns:sodipodi="http://sodipodi.sourceforge.net/DTD/sodipodi-0.dtd"
   xmlns="http://www.w3.org/2000/svg"
   xmlns:svg="http://www.w3.org/2000/svg"><sodipodi:namedview
     id="namedview1"
     pagecolor="#ffffff"
     bordercolor="#000000"
     borderopacity="0.25"
     inkscape:showpageshadow="2"
     inkscape:pageopacity="0.0"
     inkscape:pagecheckerboard="0"
     inkscape:deskcolor="#d1d1d1"
     inkscape:document-units="mm"
     showguides="true"
     inkscape:export-bgcolor="#ffffff00"><inkscape:page
       x="0"
       y="0"
       width="88.246529"
       height="88.246521"
       id="page2"
       margin="0"
       bleed="0" /></sodipodi:namedview><defs
     id="defs1" /><g
     inkscape:groupmode="layer"
     id="layer2"
     inkscape:label="icones"
     transform="translate(-549.8915,-558.79376)"><g
       id="g727"><rect
         id="rect13"
         width="88.246559"
         height="88.246559"
         x="549.89148"
         y="558.79376"
         rx="17.154173"
         ry="0"
         inkscape:transform-center-x="193.08745"
         inkscape:transform-center-y="-83.850702"
         style="fill:#8f0000;fill-opacity:1;stroke-width:0.778285" /><path
         style="fill:#ffffff;fill-opacity:1;stroke-width:1.80531"
         d="m 595.17671,635.76412 c -8.9257,-0.49928 -17.2104,-4.18466 -23.4415,-10.42755 -1.9984,-2.00219 -3.0623,-3.28307 -4.4728,-5.38502 -3.2427,-4.83236 -5.2821,-10.36646 -5.916,-16.05301 -0.2392,-2.14737 -0.203,-6.32937 0.072,-8.38484 1.0026,-7.47198 4.2536,-14.41805 9.245,-19.75395 l 0.8899,-0.95119 0.9801,0.87754 0.9801,0.87753 -1.1034,1.23354 c -2.2668,2.53414 -3.7703,4.7704 -5.2623,7.82674 -3.1873,6.52891 -4.1458,13.72892 -2.7761,20.85458 2.3746,12.35236 11.7915,22.55364 23.8911,25.88064 3.3465,0.92018 4.9612,1.12395 8.9195,1.12572 3.0301,10e-4 3.7637,-0.0433 5.351,-0.32596 6.6856,-1.19044 12.0685,-3.81072 17.1631,-8.35454 l 1.086,-0.96873 0.8938,0.90183 0.8939,0.90183 -0.8334,0.76402 c -3.256,2.98536 -7.7111,5.70452 -11.8491,7.23248 -4.4384,1.63879 -9.7435,2.40626 -14.7119,2.12834 z m -3.5466,-6.07411 c -2.2238,-0.37882 -2.8687,-0.63299 -4.7821,-1.88504 l -1.6637,-1.08857 0.5523,-1.12498 c 0.8515,-1.73401 1.0529,-2.68027 1.0481,-4.92322 0,-1.80547 -0.036,-2.02555 -0.471,-3.28882 -1.0334,-2.99658 -2.9423,-5.19351 -5.6812,-6.53792 -1.0479,-0.51446 -2.321,-0.8613 -4.7032,-1.28133 -2.8208,-0.49737 -5.4877,-2.24528 -7.2296,-4.73817 -0.5684,-0.81354 -1.3152,-2.44594 -1.6412,-3.58718 -0.4243,-1.48672 -0.4553,-4.36548 -0.062,-5.79241 1.1309,-4.10289 3.8796,-6.99871 7.9139,-8.33772 0.8513,-0.28247 1.2857,-0.32826 3.138,-0.33048 1.8073,-0.002 2.4698,0.0627 4.1565,0.40656 6.8898,1.40487 12.8663,4.59049 17.7823,9.47853 5.2277,5.19761 8.5717,11.81622 9.7615,19.32048 0.3503,2.20799 0.3583,8.02118 0.018,9.97663 -0.1299,0.74061 -0.2892,1.39334 -0.3525,1.45047 -0.1499,0.13558 -2.7636,1.18234 -3.749,1.50181 l -0.7668,0.24865 -2.6732,-0.75702 c -1.47,-0.41636 -2.6868,-0.76532 -2.7036,-0.77544 -0.018,-0.0109 0.065,-0.37018 0.182,-0.80008 0.656,-2.41273 0.8481,-6.74196 0.4226,-9.52482 -0.5781,-3.7805 -2.0812,-7.47704 -4.342,-10.67812 -1.2306,-1.7426 -4.0144,-4.52758 -5.7634,-5.76601 -3.3095,-2.34325 -7.8964,-4.08352 -11.4664,-4.35034 -1.2632,-0.0944 -1.7997,0.14587 -2.1973,0.98376 -0.2912,0.61333 -0.3004,0.9692 -0.041,1.58827 0.2728,0.65276 0.8463,1.06286 1.6399,1.17282 5.0058,0.69339 8.9093,2.6234 12.4332,6.14725 3.8771,3.87715 5.8824,8.35954 6.1751,13.80293 0.1408,2.61624 -0.4006,5.6462 -1.499,8.39107 l -0.5287,1.32145 -0.6451,0.0258 c -0.3547,0.0145 -1.37,-0.0978 -2.2564,-0.24876 z m -14.45,-6.13851 c -3.3761,-0.87285 -4.6796,-4.93623 -2.3977,-7.47428 1.7313,-1.92558 4.4853,-2.09884 6.4114,-0.40339 0.3667,0.32268 0.8406,0.91715 1.0532,1.32103 0.3412,0.64784 0.3869,0.8947 0.3874,2.09597 0,1.24007 -0.036,1.42971 -0.4215,2.124 -0.5134,0.92665 -1.1775,1.53056 -2.1954,1.99662 -0.8184,0.37464 -2.1065,0.52901 -2.8374,0.34005 z m 36.8527,-4.35317 c -0.5588,-9.77722 -4.4188,-18.49339 -11.1877,-25.26237 -6.7615,-6.7615 -15.5336,-10.64827 -25.2623,-11.19332 l -1.7559,-0.0984 v -2.17764 -2.17763 l 1.1553,-0.99117 c 1.2871,-1.10444 3.7581,-2.83018 4.9325,-3.44506 l 0.7674,-0.40182 2.2698,0.45205 c 11.8172,2.35352 22.0808,8.82631 29.3119,18.48577 4.1192,5.50266 7.1941,12.33478 8.5008,18.88846 0.6142,3.08019 0.6263,2.84216 -0.214,4.23033 -0.7829,1.29281 -2.8053,4.01208 -3.6514,4.90907 l -0.507,0.53749 h -2.1295 -2.1297 z m 10.538,-15.76636 c -2.9668,-7.67782 -6.4109,-13.15069 -11.6929,-18.58045 -5.1283,-5.27176 -11.2858,-9.3933 -18.0057,-12.05225 l -1.9525,-0.77262 0.317,-0.9416 0.3172,-0.94159 1.3487,-0.0955 c 1.6501,-0.11681 5.3606,0.0834 7.0071,0.37779 7.127,1.27472 13.4788,4.96863 18.1434,10.55141 1.9432,2.32573 4.0313,5.96778 5.0839,8.86763 1.3762,3.79067 1.9704,8.0925 1.5943,11.54464 -0.078,0.70948 -0.1462,1.3942 -0.1534,1.5216 0,0.14749 -0.3172,0.34275 -0.8514,0.53747 -1.0316,0.37618 -1.0041,0.37657 -1.1561,-0.0163 z"
         id="path697"
         sodipodi:nodetypes="cssscscccssssssscccsscccscsccsssscssssscsscssssssssssssscsccssssscssssscccsscssssscccscsscccssssscscc" /></g></g></svg>
