<?xml version="1.0" encoding="UTF-8" standalone="no"?>
<!-- Created with Inkscape (http://www.inkscape.org/) -->

<svg
   width="23.348572mm"
   height="23.348558mm"
   viewBox="0 0 88.246571 88.246523"
   version="1.1"
   id="svg1"
   xml:space="preserve"
   xmlns="http://www.w3.org/2000/svg"
   xmlns:svg="http://www.w3.org/2000/svg"><defs
     id="defs1" /><g
     id="layer1"
     transform="translate(-169.66553,-558.79376)"><g
       id="g724"><path
         id="rect28"
         style="fill:#092e20;stroke-width:0.778285"
         d="m 186.81968,558.79376 h 53.93822 c 9.50341,0 17.15417,7.65076 17.15417,17.15418 v 53.93821 c 0,9.50341 -7.65076,17.15417 -17.15417,17.15417 h -53.93822 c -9.50341,0 -17.15417,-7.65076 -17.15417,-17.15417 v -53.93821 c 0,-9.50342 7.65076,-17.15418 17.15417,-17.15418 z" /><path
         style="font-weight:bold;font-size:25.8227px;line-height:1.25;font-family:'Bitstream Vera Sans';-inkscape-font-specification:'Bitstream Vera Sans Bold';fill:#ffffff;stroke-width:0.400699"
         d="m 189.34402,588.13743 q 1.52566,0 2.18132,-0.56739 0.66826,-0.56739 0.66826,-1.86609 0,-1.2861 -0.66826,-1.84088 -0.65566,-0.55479 -2.18132,-0.55479 h -2.04261 v 4.82915 z m -2.04261,3.35393 v 7.12394 h -4.85437 v -18.82485 h 7.41394 q 3.71958,0 5.44698,1.24826 1.74,1.24827 1.74,3.94654 0,1.86609 -0.90783,3.06392 -0.89522,1.19783 -2.71087,1.76522 0.99609,0.22696 1.77783,1.03392 0.79435,0.79435 1.60131,2.42088 l 2.63522,5.34611 h -5.16958 l -2.29479,-4.67785 q -0.69348,-1.41218 -1.41218,-1.92913 -0.70609,-0.51696 -1.89131,-0.51696 z m 11.62526,-11.70091 h 17.34962 v 3.66914 h -6.24132 v 15.15571 h -4.85437 v -15.15571 h -6.25393 z m 28.45792,3.1774 q -2.21913,0 -3.44218,1.63913 -1.22305,1.63914 -1.22305,4.6148 0,2.96306 1.22305,4.60219 1.22305,1.63914 3.44218,1.63914 2.23175,0 3.4548,-1.63914 1.22305,-1.63913 1.22305,-4.60219 0,-2.97566 -1.22305,-4.6148 -1.22305,-1.63913 -3.4548,-1.63913 z m 0,-3.51784 q 4.53915,0 7.11133,2.5974 2.57219,2.5974 2.57219,7.17437 0,4.56437 -2.57219,7.16177 -2.57218,2.5974 -7.11133,2.5974 -4.52653,0 -7.11133,-2.5974 -2.57218,-2.5974 -2.57218,-7.16177 0,-4.57697 2.57218,-7.17437 2.5848,-2.5974 7.11133,-2.5974 z m 26.45314,0.93305 v 3.98436 q -1.55087,-0.69348 -3.0261,-1.04653 -1.47522,-0.35304 -2.78653,-0.35304 -1.74,0 -2.57218,0.47913 -0.83218,0.47913 -0.83218,1.48783 0,0.75653 0.55479,1.18522 0.56739,0.41609 2.04261,0.7187 l 2.06784,0.41609 q 3.13957,0.63044 4.46349,1.91653 1.32392,1.28609 1.32392,3.65653 0,3.11436 -1.85349,4.64002 -1.84087,1.51305 -5.6361,1.51305 -1.79045,0 -3.5935,-0.34044 -1.80305,-0.34043 -3.6061,-1.0087 v -4.09784 q 1.80305,0.95827 3.48002,1.45001 1.68957,0.47913 3.25305,0.47913 1.5887,0 2.43349,-0.52957 0.84478,-0.52956 0.84478,-1.51305 0,-0.88261 -0.58,-1.36174 -0.56739,-0.47913 -2.28218,-0.85739 l -1.8787,-0.41609 q -2.82436,-0.60522 -4.13567,-1.92914 -1.2987,-1.32392 -1.2987,-3.56827 0,-2.81175 1.81566,-4.3248 1.81566,-1.51305 5.22002,-1.51305 1.55087,0 3.19001,0.23957 1.63914,0.22695 3.39175,0.69348 z"
         id="text2902"
         transform="scale(0.97727455,1.0232539)"
         aria-label="RTOS" /></g></g></svg>
