<?xml version="1.0" encoding="UTF-8" standalone="no"?>
<!-- Created with Inkscape (http://www.inkscape.org/) -->

<svg
   width="23.348572mm"
   height="23.733713mm"
   viewBox="0 0 88.246571 89.702225"
   version="1.1"
   id="svg1"
   xml:space="preserve"
   xmlns="http://www.w3.org/2000/svg"
   xmlns:svg="http://www.w3.org/2000/svg"><defs
     id="defs1" /><g
     id="layer1"
     transform="translate(-42.924292,-178.56783)"><g
       id="g698"><path
         id="rect6"
         style="fill:#f34f29;stroke-width:0.784678"
         d="m 60.078463,178.56783 h 53.938217 c 9.50341,0 17.15417,7.65076 17.15417,17.15417 v 55.39388 c 0,9.50342 -7.65076,17.15418 -17.15417,17.15418 H 60.078463 c -9.503412,0 -17.154173,-7.65076 -17.154173,-17.15418 V 195.722 c 0,-9.50341 7.650761,-17.15417 17.154173,-17.15417 z" /><path
         fill="#f34f29"
         d="m 119.6699,220.39972 -29.597099,-29.5955 c -1.7033,-1.70438 -4.4677,-1.70438 -6.1737,0 l -6.1448,6.14636 7.796,7.79597 c 1.8123,-0.61163 3.8894,-0.20137 5.3333,1.24258 a 5.1872947,5.1872947 0 0 1 1.2314,5.36611 l 7.5135,7.5146 c 1.817699,-0.62666 3.915699,-0.22177 5.366599,1.23239 2.0298,2.0282 2.0298,5.31617 0,7.34544 a 5.1942756,5.1942756 0 0 1 -7.347599,0 5.1964235,5.1964235 0 0 1 -1.1303,-5.64964 l -7.0066,-7.00714 v 18.44067 a 5.2130701,5.2130701 0 0 1 1.3741,0.98161 c 2.0293,2.0282 2.0293,5.3151 0,7.34759 -2.0293,2.0282 -5.3183,2.0282 -7.3454,0 -2.0288,-2.03195 -2.1952,-5.31885 -0.167,-7.34759 0.5015,-0.50101 0.9961,-0.87958 1.5331,-1.13304 V 214.4687 c -0.537,-0.25346 -1.031,-0.62935 -1.5337,-1.13358 -1.5363,-1.53579 -1.8236,-3.79113 -1.0353,-5.67918 l -7.6429,-7.68588 -20.2734,20.29273 c -1.705,1.706 -1.6942,4.47041 0.011,6.17535 l 29.6019,29.5955 c 1.7039,1.7044 4.4704,1.7044 6.177,0 L 119.6691,226.5756 c 1.7049,-1.70547 1.7065,-4.47149 0,-6.17588 z"
         id="path1-22"
         style="fill:#ffffff;fill-opacity:1;stroke-width:0.536987" /></g></g></svg>
