<?xml version="1.0" encoding="UTF-8" standalone="no"?>
<!-- Created with Inkscape (http://www.inkscape.org/) -->

<svg
   width="23.348572mm"
   height="23.733713mm"
   viewBox="0 0 88.246571 89.702225"
   version="1.1"
   id="svg1"
   xml:space="preserve"
   xmlns:inkscape="http://www.inkscape.org/namespaces/inkscape"
   xmlns:sodipodi="http://sodipodi.sourceforge.net/DTD/sodipodi-0.dtd"
   xmlns="http://www.w3.org/2000/svg"
   xmlns:svg="http://www.w3.org/2000/svg"><sodipodi:namedview
     id="namedview1"
     pagecolor="#ffffff"
     bordercolor="#000000"
     borderopacity="0.25"
     inkscape:showpageshadow="2"
     inkscape:pageopacity="0.0"
     inkscape:pagecheckerboard="0"
     inkscape:deskcolor="#d1d1d1"
     inkscape:document-units="mm"
     showguides="true"
     inkscape:export-bgcolor="#ffffff00"><inkscape:page
       x="-2.4856376e-13"
       y="0"
       width="88.246567"
       height="89.702225"
       id="page2"
       margin="0"
       bleed="0" /></sodipodi:namedview><defs
     id="defs1" /><g
     inkscape:label="Camada 1"
     inkscape:groupmode="layer"
     id="layer1"
     transform="translate(-42.924292,-178.56783)"><g
       id="g698"><rect
         id="rect6"
         width="88.246559"
         height="89.702232"
         x="42.92429"
         y="178.56783"
         rx="17.154173"
         ry="0"
         style="fill:#f34f29;fill-opacity:1;stroke-width:0.784678" /><path
         fill="#f34f29"
         d="m 119.6699,220.39972 -29.597099,-29.5955 c -1.7033,-1.70438 -4.4677,-1.70438 -6.1737,0 l -6.1448,6.14636 7.796,7.79597 c 1.8123,-0.61163 3.8894,-0.20137 5.3333,1.24258 a 5.1872947,5.1872947 0 0 1 1.2314,5.36611 l 7.5135,7.5146 c 1.817699,-0.62666 3.915699,-0.22177 5.366599,1.23239 2.0298,2.0282 2.0298,5.31617 0,7.34544 a 5.1942756,5.1942756 0 0 1 -7.347599,0 5.1964235,5.1964235 0 0 1 -1.1303,-5.64964 l -7.0066,-7.00714 v 18.44067 a 5.2130701,5.2130701 0 0 1 1.3741,0.98161 c 2.0293,2.0282 2.0293,5.3151 0,7.34759 -2.0293,2.0282 -5.3183,2.0282 -7.3454,0 -2.0288,-2.03195 -2.1952,-5.31885 -0.167,-7.34759 0.5015,-0.50101 0.9961,-0.87958 1.5331,-1.13304 V 214.4687 c -0.537,-0.25346 -1.031,-0.62935 -1.5337,-1.13358 -1.5363,-1.53579 -1.8236,-3.79113 -1.0353,-5.67918 l -7.6429,-7.68588 -20.2734,20.29273 c -1.705,1.706 -1.6942,4.47041 0.011,6.17535 l 29.6019,29.5955 c 1.7039,1.7044 4.4704,1.7044 6.177,0 L 119.6691,226.5756 c 1.7049,-1.70547 1.7065,-4.47149 0,-6.17588 z"
         id="path1-22"
         style="fill:#ffffff;fill-opacity:1;stroke-width:0.536987" /></g></g></svg>
