<?xml version="1.0" encoding="UTF-8" standalone="no"?>
<!-- Created with Inkscape (http://www.inkscape.org/) -->

<svg
   width="23.34857mm"
   height="23.348574mm"
   viewBox="0 0 88.246564 88.24658"
   version="1.1"
   id="svg1"
   xml:space="preserve"
   inkscape:version="1.4.3 (0d15f75042, 2025-12-25)"
   sodipodi:docname="icones.svg"
   inkscape:export-filename="icones.svg"
   inkscape:export-xdpi="96"
   inkscape:export-ydpi="96"
   xmlns:inkscape="http://www.inkscape.org/namespaces/inkscape"
   xmlns:sodipodi="http://sodipodi.sourceforge.net/DTD/sodipodi-0.dtd"
   xmlns="http://www.w3.org/2000/svg"
   xmlns:svg="http://www.w3.org/2000/svg"><sodipodi:namedview
     id="namedview1"
     pagecolor="#ffffff"
     bordercolor="#000000"
     borderopacity="0.25"
     inkscape:showpageshadow="2"
     inkscape:pageopacity="0.0"
     inkscape:pagecheckerboard="0"
     inkscape:deskcolor="#d1d1d1"
     inkscape:document-units="mm"
     showguides="false"
     inkscape:export-bgcolor="#ffffff00"
     inkscape:zoom="0.71539146"
     inkscape:cx="1063.0544"
     inkscape:cy="590.58575"
     inkscape:window-width="1890"
     inkscape:window-height="974"
     inkscape:window-x="56"
     inkscape:window-y="50"
     inkscape:window-maximized="0"
     inkscape:current-layer="layer2"><inkscape:page
       x="-1.9716512e-20"
       y="0"
       width="88.246567"
       height="88.246582"
       id="page2"
       margin="0"
       bleed="0" /></sodipodi:namedview><defs
     id="defs1" /><g
     inkscape:groupmode="layer"
     id="layer2"
     inkscape:label="icones"
     transform="translate(-42.92351,-658.10454)"><g
       id="g747"><path
         id="path706"
         style="fill:#18bcf2;fill-opacity:1;stroke-width:0.778285"
         inkscape:transform-center-x="193.08745"
         inkscape:transform-center-y="-83.850702"
         d="m 60.077678,658.10459 h 53.938212 c 9.50342,0 17.15418,7.65076 17.15418,17.15418 v 53.93821 c 0,9.50341 -7.65076,17.15417 -17.15418,17.15417 H 60.077678 c -9.50341,0 -17.15417,-7.65076 -17.15417,-17.15417 v -53.93821 c 0,-9.50342 7.65076,-17.15418 17.15417,-17.15418 z" /><g
         id="g732"
         transform="matrix(0.12099501,0,0,0.12099501,56.072066,671.2471)"><path
           d="m 512,473.3 c 0,17.6 -14.4,32 -32,32 H 32 c -17.6,0 -32,-14.4 -32,-32 v -192 C 0,263.7 10.2,239.1 22.6,226.7 L 233.4,16 c 12.4,-12.4 32.8,-12.4 45.2,0 l 210.8,210.8 c 12.4,12.4 22.6,37 22.6,54.6 z"
           style="fill:#18bcf2;fill-opacity:1"
           id="path1-62" /><path
           d="M 489.4,226.7 278.6,16 C 266.2,3.6 245.8,3.6 233.4,16 L 22.6,226.7 C 10.2,239.1 0,263.7 0,281.3 v 192 c 0,17.6 14.4,32 32,32 h 196.8 l -86.7,-86.7 c -4.5,1.5 -9.2,2.4 -14.2,2.4 -24.1,0 -43.7,-19.6 -43.7,-43.7 0,-24.1 19.6,-43.7 43.7,-43.7 24.1,0 43.7,19.6 43.7,43.7 0,5 -0.9,9.7 -2.4,14.2 L 236.7,459 V 211.8 c -14.5,-7.1 -24.5,-22 -24.5,-39.2 0,-24.1 19.6,-43.7 43.7,-43.7 24.1,0 43.7,19.6 43.7,43.7 0,17.2 -10,32.1 -24.5,39.2 v 173.4 l 67.1,-67.1 c -1.3,-4.2 -2,-8.6 -2,-13.2 0,-24.1 19.6,-43.7 43.7,-43.7 24.1,0 43.7,19.6 43.7,43.7 0,24.1 -19.6,43.7 -43.7,43.7 -5.3,0 -10.4,-1 -15.1,-2.8 l -93.7,93.7 v 65.9 H 480 c 17.6,0 32,-14.4 32,-32 v -192 c 0,-17.6 -10.2,-42.2 -22.6,-54.7"
           style="fill:#ffffff;fill-opacity:1"
           id="path2-91" /></g></g></g></svg>
