<?xml version="1.0" encoding="UTF-8" standalone="no"?>
<!-- Created with Inkscape (http://www.inkscape.org/) -->

<svg
   width="23.34856mm"
   height="23.348572mm"
   viewBox="0 0 88.246528 88.246573"
   version="1.1"
   id="svg1"
   xml:space="preserve"
   xmlns:inkscape="http://www.inkscape.org/namespaces/inkscape"
   xmlns:sodipodi="http://sodipodi.sourceforge.net/DTD/sodipodi-0.dtd"
   xmlns="http://www.w3.org/2000/svg"
   xmlns:svg="http://www.w3.org/2000/svg"><sodipodi:namedview
     id="namedview1"
     pagecolor="#ffffff"
     bordercolor="#000000"
     borderopacity="0.25"
     inkscape:showpageshadow="2"
     inkscape:pageopacity="0.0"
     inkscape:pagecheckerboard="0"
     inkscape:deskcolor="#d1d1d1"
     inkscape:document-units="mm"
     showguides="true"
     inkscape:export-bgcolor="#ffffff00"><inkscape:page
       x="0"
       y="-2.0136887e-13"
       width="88.246529"
       height="88.246567"
       id="page2"
       margin="0"
       bleed="0" /></sodipodi:namedview><defs
     id="defs1" /><g
     inkscape:label="Camada 1"
     inkscape:groupmode="layer"
     id="layer1"
     transform="translate(-549.8915,-178.56783)"><g
       id="g703"><rect
         id="rect7"
         width="88.246559"
         height="88.246559"
         x="549.89148"
         y="178.56783"
         rx="17.154173"
         ry="0"
         style="fill:#ff6600;fill-opacity:1;stroke-width:0.778285" /><path
         fill="#e44d26"
         d="m 564.49766,189.26525 5.3725,60.19252 24.1086,6.65918 24.1751,-6.65166 5.378,-60.20004 z m 47.8595,14.2511 -0.3367,3.85127 -0.1482,1.76615 h -28.2805 l 0.675,7.51782 h 26.9332 l -0.1805,1.86388 -1.736,19.39542 -0.1279,1.21896 -15.1408,4.16116 v 0 l -0.018,0.01 -15.1307,-3.98611 -1.0272,-11.38733 h 7.4184 l 0.5258,5.86337 8.2089,2.19144 h 0.023 v -0.2932 l 8.2454,-2.08082 0.8613,-9.4397 h -25.6132 l -1.8166,-20.46833 -0.1767,-2.08512 h 37.0194 z"
         id="path1-29"
         style="fill:#ffffff;fill-opacity:1;stroke-width:0.536987" /></g></g></svg>
