<?xml version="1.0" encoding="UTF-8" standalone="no"?>
<!-- Created with Inkscape (http://www.inkscape.org/) -->

<svg
   width="23.34856mm"
   height="23.348572mm"
   viewBox="0 0 88.246528 88.246573"
   version="1.1"
   id="svg1"
   xml:space="preserve"
   xmlns:inkscape="http://www.inkscape.org/namespaces/inkscape"
   xmlns:sodipodi="http://sodipodi.sourceforge.net/DTD/sodipodi-0.dtd"
   xmlns="http://www.w3.org/2000/svg"
   xmlns:svg="http://www.w3.org/2000/svg"><sodipodi:namedview
     id="namedview1"
     pagecolor="#ffffff"
     bordercolor="#000000"
     borderopacity="0.25"
     inkscape:showpageshadow="2"
     inkscape:pageopacity="0.0"
     inkscape:pagecheckerboard="0"
     inkscape:deskcolor="#d1d1d1"
     inkscape:document-units="mm"
     showguides="true"
     inkscape:export-bgcolor="#ffffff00"><inkscape:page
       x="0"
       y="-2.0136887e-13"
       width="88.246529"
       height="88.246567"
       id="page2"
       margin="0"
       bleed="0" /></sodipodi:namedview><defs
     id="defs1" /><g
     inkscape:label="Camada 1"
     inkscape:groupmode="layer"
     id="layer1"
     transform="translate(-803.37551,-178.56783)"><g
       id="g705"><rect
         id="rect15"
         width="88.246559"
         height="88.246559"
         x="803.37543"
         y="178.56783"
         rx="17.154173"
         ry="0"
         style="fill:#f0db4f;fill-opacity:1;stroke-width:0.778285" /><path
         fill="#f0db4f"
         d="m 813.93701,189.12941 v 67.12338 h 67.1234 v -67.12338 z m 35.5051,57.1961 c -0.9908,2.01317 -2.8821,3.33577 -5.0735,3.97424 -3.3674,0.77327 -6.5883,0.3324 -8.9843,-1.10565 -1.6035,-0.98376 -2.8557,-2.49807 -3.7058,-4.24274 l 5.1121,-3.13063 c 0.045,0.0188 0.1789,0.26151 0.3582,0.57511 0.6519,1.09223 1.2141,1.86549 2.3193,2.40839 1.0857,0.37052 3.4694,0.60733 4.3898,-1.30327 0.5623,-0.97195 0.3834,-4.09614 0.3834,-7.55272 -5e-4,-5.43162 0.025,-10.8407 0.025,-16.21057 h 6.2876 c 0,5.90686 0.032,11.50119 0,17.26521 0.013,3.53338 0.3201,6.68334 -1.1115,9.32263 z m 26.0836,-1.77635 c -2.1856,7.47593 -14.3709,7.71865 -19.2403,2.77944 -1.0289,-1.16257 -1.6738,-1.7699 -2.2875,-3.11183 2.5877,-1.48853 2.5877,-1.48853 5.1056,-2.94538 1.3677,2.10231 2.6323,3.25844 4.9075,3.73152 3.0866,0.37697 6.192,-0.68358 5.4956,-3.96189 -0.7158,-2.67741 -6.3204,-3.32878 -10.1346,-6.19199 -3.8722,-2.60063 -4.7797,-8.91989 -1.5975,-12.5306 1.0605,-1.33548 2.8691,-2.33213 4.7668,-2.81112 l 1.9804,-0.25615 c 3.8024,-0.0768 6.1791,0.92738 7.9238,2.87557 0.4854,0.49188 0.8817,1.02242 1.6228,2.17211 -2.0255,1.29092 -2.0191,1.27857 -4.9204,3.15695 -0.6197,-1.33495 -1.648,-2.17265 -2.7349,-2.53673 -1.6872,-0.51121 -3.8148,0.0446 -4.2562,1.82737 -0.153,0.54934 -0.1213,1.06055 0.1219,1.96806 0.6836,1.55887 2.9776,2.23655 5.0354,3.18218 5.9235,2.40248 7.9237,4.97841 8.4156,8.0446 0.4736,2.63983 -0.1144,4.35228 -0.204,4.60789 z"
         id="path1-4"
         style="fill:#ffffff;fill-opacity:1;stroke-width:0.536987" /></g></g></svg>
