<?xml version="1.0" encoding="UTF-8" standalone="no"?>
<!-- Created with Inkscape (http://www.inkscape.org/) -->

<svg
   width="23.348576mm"
   height="23.348562mm"
   viewBox="0 0 88.246586 88.246537"
   version="1.1"
   id="svg1"
   xml:space="preserve"
   xmlns="http://www.w3.org/2000/svg"
   xmlns:svg="http://www.w3.org/2000/svg"><defs
     id="defs1" /><g
     id="layer1"
     transform="translate(-803.37541,-178.56783)"><g
       id="g741"><path
         id="rect15"
         style="fill:#f0db4f;stroke-width:0.778285"
         d="m 820.52957,178.56783 h 53.93821 c 9.50342,0 17.15418,7.65076 17.15418,17.15417 v 53.93821 c 0,9.50341 -7.65076,17.15417 -17.15418,17.15417 h -53.93821 c -9.50341,0 -17.15417,-7.65076 -17.15417,-17.15417 V 195.722 c 0,-9.50341 7.65076,-17.15417 17.15417,-17.15417 z" /><g
         id="rect740"
         style="opacity:1"><path
           style="baseline-shift:baseline;display:inline;overflow:visible;vector-effect:none;enable-background:accumulate;stop-color:#000000;stop-opacity:1"
           d="m 865.47701,220.26338 -1.9804,0.25586 c -1.8977,0.47899 -3.7071,1.47702 -4.7676,2.8125 -3.1822,3.61071 -2.2746,9.92867 1.5976,12.5293 3.8142,2.86321 9.419,3.51595 10.1348,6.19336 0.6964,3.27831 -2.4095,4.33791 -5.4961,3.96094 -2.2752,-0.47308 -3.5385,-1.62816 -4.9062,-3.73047 -2.5179,1.45685 -2.5178,1.45678 -5.1055,2.94531 0.6137,1.34193 1.2582,1.94876 2.2871,3.11133 4.8694,4.93921 17.0546,4.69663 19.2402,-2.7793 0.09,-0.25561 0.6768,-1.96954 0.2032,-4.60937 -0.4919,-3.06619 -2.4926,-5.64049 -8.4161,-8.04297 -2.0578,-0.94563 -4.3515,-1.62473 -5.0351,-3.1836 -0.2432,-0.90751 -0.2741,-1.41745 -0.1211,-1.96679 0.4414,-1.78277 2.5687,-2.33934 4.2559,-1.82813 1.0869,0.36408 2.1146,1.20216 2.7343,2.53711 2.9013,-1.87838 2.8964,-1.86533 4.9219,-3.15625 -0.7411,-1.14969 -1.1376,-1.68195 -1.623,-2.17383 -1.7447,-1.94819 -4.1215,-2.9518 -7.9239,-2.875 z m -20.2558,0.48633 c 0,5.36987 -0.026,10.77932 -0.025,16.21094 0,3.45658 0.1795,6.58078 -0.3828,7.55273 -0.9204,1.9106 -3.305,1.67326 -4.3907,1.30274 -1.1052,-0.5429 -1.6664,-1.31597 -2.3183,-2.4082 -0.1737,-0.3038 -0.3046,-0.54065 -0.3535,-0.57227 -8e-4,-4e-4 -0.01,-0.002 -0.01,-0.002 l -5.1113,3.13086 c 0.8501,1.74467 2.1016,3.25842 3.7051,4.24218 2.396,1.43805 5.6169,1.87874 8.9843,1.10547 2.1914,-0.63847 4.0834,-1.96144 5.0742,-3.97461 1.4316,-2.63929 1.1244,-5.78888 1.1114,-9.32226 0.032,-5.76402 0,-11.35877 0,-17.26563 z"
           id="path742" /><path
           style="baseline-shift:baseline;display:inline;overflow:visible;vector-effect:none;enable-background:accumulate;stop-color:#000000;stop-opacity:1"
           d="m 865.45312,219.94531 -2.01562,0.25977 -0.0195,0.006 c -1.9486,0.49184 -3.8067,1.50579 -4.92969,2.91406 -3.31919,3.77066 -2.38997,10.27408 1.65625,12.99609 1.95599,1.4655 4.33286,2.35005 6.28516,3.19922 0.97768,0.42525 1.84851,0.84242 2.5,1.30078 0.64914,0.45672 1.06635,0.94022 1.2207,1.50977 0.32147,1.5308 -0.20028,2.42837 -1.17969,3 -0.97844,0.57106 -2.46171,0.74769 -3.95117,0.56836 -2.18933,-0.45818 -3.3479,-1.51977 -4.69336,-3.58789 l -0.16406,-0.25391 -0.26172,0.15235 c -2.5179,1.45685 -2.51777,1.45482 -5.10547,2.94335 l -0.25195,0.14649 0.12109,0.26367 c 0.63369,1.38563 1.31629,2.03513 2.33789,3.18945 l 0.006,0.006 0.006,0.006 c 2.52983,2.5661 6.87209,3.74524 10.88477,3.35938 4.00963,-0.38557 7.74439,-2.37933 8.88476,-6.26367 0.0965,-0.27443 0.6971,-2.06061 0.21485,-4.75782 -0.25445,-1.58604 -0.91228,-3.07193 -2.25782,-4.44336 -1.34344,-1.3693 -3.36056,-2.62817 -6.33984,-3.83789 l -0.0117,-0.006 c -1.03961,-0.47701 -2.12012,-0.88277 -3.00586,-1.34961 -0.88284,-0.46531 -1.54449,-0.9883 -1.84375,-1.65625 -0.22433,-0.85045 -0.25478,-1.28367 -0.12109,-1.76367 l 0.002,-0.006 0.002,-0.004 c 0.19386,-0.78297 0.74049,-1.28285 1.4629,-1.55274 0.72063,-0.26922 1.6088,-0.2806 2.38476,-0.0469 1.00317,0.33722 1.95925,1.10973 2.54297,2.36719 l 0.1543,0.33203 0.30859,-0.19922 c 2.90087,-1.8781 2.8938,-1.86493 4.91992,-3.15625 l 0.26953,-0.17188 -0.17382,-0.26953 c -0.74342,-1.15327 -1.15632,-1.7096 -1.66016,-2.2207 -1.8038,-2.00936 -4.30437,-3.05054 -8.16016,-2.97266 z m -20.55078,0.48633 V 220.75 c 0,5.36884 -0.0264,10.77826 -0.0254,16.21094 0,1.7338 0.0447,3.37868 0.0195,4.70117 -0.0252,1.32249 -0.15969,2.34626 -0.35937,2.69141 l -0.006,0.01 -0.006,0.0117 c -0.41126,0.85371 -1.11736,1.20787 -1.89453,1.33008 -0.77067,0.12118 -1.59142,-0.0224 -2.08789,-0.18946 -1.02001,-0.5079 -1.52446,-1.19985 -2.16406,-2.27148 -0.0849,-0.14845 -0.16113,-0.28263 -0.22461,-0.38867 -0.0322,-0.0537 -0.0604,-0.10028 -0.0899,-0.14258 -0.0294,-0.0423 -0.0305,-0.0733 -0.14062,-0.14453 l -0.0156,-0.01 -0.0156,-0.008 c -5e-5,-2e-5 -0.0487,-0.0195 -0.0488,-0.0195 -1.1e-4,-3e-5 -0.0122,-0.005 -0.0156,-0.006 -0.007,-0.002 -0.011,-0.001 -0.0137,-0.002 -0.005,-0.001 -0.007,-0.001 -0.01,-0.002 -0.005,-9.4e-4 -0.01,-0.002 -0.01,-0.002 l -0.11719,-0.0195 -5.46093,3.34375 0.12695,0.25977 c 0.87225,1.79013 2.15952,3.35369 3.82422,4.375 h 0.002 v 0.002 c 2.47942,1.48811 5.78436,1.93168 9.2207,1.14258 l 0.008,-0.002 0.01,-0.004 c 2.2562,-0.65735 4.23166,-2.02925 5.26953,-4.13477 1.48594,-2.74668 1.15965,-5.95417 1.14649,-9.46484 v -0.004 c 0.032,-5.76496 0,-11.3593 0,-17.26367 v -0.31836 z m 20.58985,0.15234 c 3.7379,-0.0738 5.98829,0.88764 7.67187,2.76758 l 0.004,0.006 0.006,0.004 c 0.40942,0.41488 0.81263,0.98885 1.39062,1.86719 -1.60712,1.02338 -2.05051,1.30281 -4.38672,2.81445 -0.66568,-1.21425 -1.63791,-2.05529 -2.70898,-2.41406 l -0.004,-0.002 h -0.004 c -0.90989,-0.27569 -1.92739,-0.26574 -2.80078,0.0606 -0.87207,0.32579 -1.60682,0.99491 -1.85547,1.99219 -0.16804,0.60739 -0.12741,1.20163 0.12109,2.1289 l 0.006,0.0234 0.01,0.0215 c 0.38761,0.88389 1.20158,1.47957 2.14453,1.97656 0.94294,0.49698 2.03445,0.903 3.04883,1.36914 l 0.006,0.004 0.008,0.002 c 2.93659,1.19104 4.87805,2.41828 6.13672,3.70117 1.25866,1.28289 1.84652,2.61751 2.08398,4.09766 v 0.002 l 0.002,0.004 c 0.46129,2.5712 -0.1055,4.20328 -0.1914,4.44726 l -0.002,0.008 -0.002,0.008 c -1.0483,3.58576 -4.49617,5.44875 -8.33984,5.81836 -3.84208,0.36945 -8.0251,-0.80076 -10.36524,-3.17188 -9.7e-4,-9.9e-4 -0.003,-9.7e-4 -0.004,-0.002 -0.94756,-1.06962 -1.50168,-1.69 -2.05078,-2.78516 2.06092,-1.18553 2.51048,-1.44544 4.57617,-2.64062 1.32461,1.95895 2.66191,3.16965 4.9082,3.63671 l 0.0137,0.002 0.0117,0.002 c 1.59173,0.1944 3.19865,0.0316 4.36719,-0.65039 1.16853,-0.68201 1.85013,-1.95319 1.48047,-3.69336 l -0.002,-0.008 -0.002,-0.008 c -0.20491,-0.76648 -0.75468,-1.36653 -1.47461,-1.87305 -0.71993,-0.50652 -1.62155,-0.93472 -2.61133,-1.36524 -1.97954,-0.86102 -4.30955,-1.73531 -6.16601,-3.1289 l -0.006,-0.004 -0.008,-0.006 c -3.69303,-2.48029 -4.57557,-8.60291 -1.53516,-12.05273 l 0.004,-0.006 0.006,-0.008 c 0.99662,-1.25504 2.74594,-2.231 4.58398,-2.69727 z m -19.95313,0.48438 h 5.64649 c 10e-4,5.78786 0.0314,11.28987 0,16.94531 v 0.002 c 0.0131,3.55116 0.29956,6.64083 -1.07227,9.16993 l -0.004,0.006 -0.002,0.006 c -0.94322,1.9165 -2.7489,3.18476 -4.87109,3.80468 -3.29232,0.75318 -6.42498,0.31819 -8.73438,-1.0664 l -0.004,-0.002 c -1.4607,-0.89721 -2.60158,-2.28109 -3.42383,-3.86718 l 4.57812,-2.80469 c 0.0512,0.0878 0.10618,0.18294 0.17578,0.30469 l 0.002,0.002 v 0.002 c 0.65923,1.10452 1.27684,1.95439 2.45117,2.53125 l 0.0195,0.01 0.0195,0.006 c 0.59066,0.20157 1.49351,0.36289 2.41016,0.21875 0.913,-0.14357 1.85076,-0.6257 2.36133,-1.67383 0.35881,-0.62745 0.41781,-1.64487 0.44336,-2.98633 0.0256,-1.34674 -0.0195,-2.99207 -0.0195,-4.71484 -9.8e-4,-5.32392 0.0225,-10.62568 0.0234,-15.89258 z"
           id="path743" /></g></g></g></svg>
