<?xml version="1.0" encoding="UTF-8" standalone="no"?>
<!-- Created with Inkscape (http://www.inkscape.org/) -->

<svg
   width="23.348568mm"
   height="23.348566mm"
   viewBox="0 0 88.246557 88.246551"
   version="1.1"
   id="svg1"
   xml:space="preserve"
   xmlns:inkscape="http://www.inkscape.org/namespaces/inkscape"
   xmlns:sodipodi="http://sodipodi.sourceforge.net/DTD/sodipodi-0.dtd"
   xmlns="http://www.w3.org/2000/svg"
   xmlns:svg="http://www.w3.org/2000/svg"><sodipodi:namedview
     id="namedview1"
     pagecolor="#ffffff"
     bordercolor="#000000"
     borderopacity="0.25"
     inkscape:showpageshadow="2"
     inkscape:pageopacity="0.0"
     inkscape:pagecheckerboard="0"
     inkscape:deskcolor="#d1d1d1"
     inkscape:document-units="mm"
     showguides="true"
     inkscape:export-bgcolor="#ffffff00"><inkscape:page
       x="1.7981906e-14"
       y="0"
       width="88.246552"
       height="88.246552"
       id="page2"
       margin="0"
       bleed="0" /></sodipodi:namedview><defs
     id="defs1" /><g
     inkscape:label="Camada 1"
     inkscape:groupmode="layer"
     id="layer1"
     transform="translate(-42.92351,-432.0518)"><g
       id="g715"><rect
         id="rect10"
         width="88.246559"
         height="88.246559"
         x="42.923508"
         y="432.05179"
         rx="17.154173"
         ry="0"
         style="fill:#336791;fill-opacity:1;stroke-width:0.778285" /><path
         fill="#003545"
         d="m 121.09375,454.03355 a 0.97946432,0.97946432 0 0 0 -0.6659,-0.22231 c -0.6637,0 -1.5213,0.44999 -1.9831,0.6911 l -0.1826,0.094 a 6.2940249,6.2940249 0 0 1 -2.4766,0.62291 34.773133,34.773133 0 0 0 -2.629,0.18258 c -5.8586,0.60196 -8.4721,5.09278 -10.989,9.43486 -1.3703,2.36221 -2.785794,4.81624 -4.726494,6.69086 -0.4011,0.38878 -0.8275,0.75178 -1.277,1.08471 -2.0083,1.49283 -4.5295,2.55875 -6.4911,3.31321 -1.8891,0.72225 -3.9517,1.37093 -5.9423,1.99867 -1.8257,0.57457 -3.5489,1.118 -5.1336,1.70654 -0.6143,0.22661 -1.2345,0.44194 -1.8574,0.64707 -1.4434,0.46825 -2.4841,0.82696 -4.0048,1.87409 a 25.747991,25.747991 0 0 0 -1.5911,1.17224 16.78353,16.78353 0 0 0 -3.1752,3.34382 19.743402,19.743402 0 0 1 -2.6667,3.20098 c -0.3211,0.3136 -0.8909,0.46825 -1.7442,0.46825 -0.9988,0 -2.2097,-0.2062 -3.4909,-0.42422 -1.3221,-0.23359 -2.6882,-0.45644 -3.8599,-0.45644 -0.951,0 -1.6807,0.15573 -2.2236,0.46879 0,0 -0.9172,0.5343 -1.3033,1.22541 l 0.3796,0.17183 a 7.7825529,7.7825529 0 0 1 1.6218,1.17117 8.1369643,8.1369643 0 0 0 1.6866,1.19964 c 0.196,0.072 0.3732,0.18472 0.5209,0.33078 -0.1589,0.23413 -0.3941,0.53645 -0.6406,0.85918 -1.3516,1.76991 -2.141,2.88738 -1.6888,3.49633 0.2169,0.11276 0.4591,0.16753 0.7034,0.15948 2.9481,0 4.5322,-0.76574 6.5351,-1.73608 0.5811,-0.28031 1.1717,-0.56921 1.8747,-0.86723 1.1717,-0.50799 2.433,-1.31884 3.7707,-2.17695 1.7506,-1.14057 3.5806,-2.31228 5.357,-2.87719 a 14.599604,14.599604 0 0 1 4.5058,-0.6331 c 1.8752,0 3.8486,0.25023 5.7512,0.49402 1.4181,0.18365 2.8873,0.37053 4.3281,0.45752 a 26.994338,26.994338 0 0 0 1.5819,0.0494 18.325757,18.325757 0 0 0 2.0175,-0.10525 l 0.1611,-0.0564 c 1.0111,-0.62183 1.4848,-1.95464 1.9428,-3.2434 0.2959,-0.83019 0.5445,-1.57499 0.9381,-2.04807 0.023,-0.0231 0.048,-0.044 0.075,-0.0628 a 0.09397273,0.09397273 0 0 1 0.1144,0.0183 v 0.0376 c -0.2336,5.04069 -2.2634,8.24168 -4.3163,11.08664 l -1.3704,1.4692 c 0,0 1.9186,0 3.0109,-0.42207 3.9844,-1.1905 6.9905,-3.81476 9.178694,-8.00058 a 34.143246,34.143246 0 0 0 1.4461,-3.30247 c 0.038,-0.0924 0.3823,-0.26635 0.349,0.21855 -0.011,0.14337 -0.021,0.30232 -0.033,0.46933 0,0.0977 0,0.19868 -0.019,0.29963 -0.056,0.70346 -0.2223,2.18876 -0.2223,2.18876 l 1.2297,-0.65888 c 2.9668,-1.87408 5.2539,-5.65608 6.9889,-11.54039 0.7217,-2.45188 1.2511,-4.88658 1.7167,-7.03077 0.5579,-2.57807 1.0391,-4.78724 1.5895,-5.64481 0.8645,-1.34569 2.1839,-2.25534 3.4609,-3.13815 0.1734,-0.11921 0.349,-0.23466 0.5209,-0.36139 1.6045,-1.1266 3.2004,-2.42718 3.5527,-4.85275 v -0.0537 c 0.2545,-1.80965 0.039,-2.27039 -0.2062,-2.48142 z"
         id="path1-06"
         style="fill:#ffffff;fill-opacity:1;stroke-width:0.536987" /></g></g></svg>
