<?xml version="1.0" encoding="UTF-8" standalone="no"?>
<!-- Created with Inkscape (http://www.inkscape.org/) -->

<svg
   width="23.348572mm"
   height="23.348566mm"
   viewBox="0 0 88.246571 88.246551"
   version="1.1"
   id="svg1"
   xml:space="preserve"
   xmlns="http://www.w3.org/2000/svg"
   xmlns:svg="http://www.w3.org/2000/svg"><defs
     id="defs1" /><g
     id="layer1"
     transform="translate(-42.92351,-305.30985)"><g
       id="g729"><g
         id="g707"><path
           id="rect8"
           style="fill:#8f0000;stroke-width:0.778285"
           d="m 60.077681,305.30984 h 53.938209 c 9.50342,0 17.15418,7.65077 17.15418,17.15418 v 53.93821 c 0,9.50341 -7.65076,17.15417 -17.15418,17.15417 H 60.077681 c -9.503412,0 -17.154173,-7.65076 -17.154173,-17.15417 v -53.93821 c 0,-9.50341 7.650761,-17.15418 17.154173,-17.15418 z" /></g><path
         fill="#8f0000"
         d="m 87.046787,315.06595 -29.7437,17.20131 v 34.35589 l 29.7437,17.17714 29.743703,-17.17606 V 332.278 Z m 0.012,2.84603 a 0.52946921,0.52946921 0 0 1 0.2529,0.0709 l 26.861103,15.50444 c 0.1644,0.0945 0.2809,0.26956 0.2809,0.45912 v 31.00778 c 0,0.19009 -0.1165,0.36515 -0.2809,0.45966 l -26.860703,15.50763 a 0.53054319,0.53054319 0 0 1 -0.5306,0 l -26.903,-15.50658 a 0.5300062,0.5300062 0 0 1 -0.2653,-0.45966 v -31.00885 c 0,-0.18956 0.101,-0.36461 0.2653,-0.45912 l 26.903,-15.50444 a 0.53054319,0.53054319 0 0 1 0.2777,-0.0703 z m -0.012,1.14378 -26.3446,15.19674 v 9.17604 h 10.9051 c 1.7576,0.0102 3.2499,1.24903 3.4169,2.96631 1.2941,-0.16324 2.0894,-0.52087 2.6581,-1.04175 0.6658,-0.61109 1.125,-1.4837 1.684,-2.49807 0.5595,-1.01436 1.2436,-2.17855 2.4932,-3.03612 1.0095,-0.69325 2.4965,-1.03639 4.2433,-1.1223 v -0.60519 c 0,-1.86764 1.4568,-3.37281 3.325,-3.37281 h 13.522903 c 1.8682,0 3.5366,1.50517 3.5366,3.37228 v 3.32287 c 0,1.86818 -1.6759,3.39644 -3.5441,3.39644 H 89.421887 c -1.8676,0 -3.3186,-1.52826 -3.3186,-3.39644 v -0.43066 c -1.321,0.0784 -2.3412,0.32487 -2.9384,0.73513 -0.7679,0.52625 -1.2474,1.28877 -1.7779,2.25052 -0.4941,0.89515 -1.0472,1.94496 -1.9686,2.86858 4.9402,0.784 7.3964,2.66077 9.3575,4.37537 2.359,2.0631 4.2508,3.70521 10.5937,3.75193 v -0.45966 c 0,-1.86764 1.599703,-3.42759 3.467303,-3.42759 h 10.5556 V 334.2525 Z m 2.381,17.99981 c -0.631,0 -1.1508,0.40489 -1.1508,1.03585 v 3.32234 c 0,0.63096 0.5134,1.05948 1.1438,1.05948 h 13.523503 c 0.631,0 1.0992,-0.42852 1.0992,-1.05948 v -3.3218 c 0,-0.63096 -0.4618,-1.03639 -1.0928,-1.03639 z m -28.7256,8.49729 v 5.52398 h 10.9046 c 0.631,0 1.0992,-0.4167 1.0992,-1.04712 v -3.32288 c 0,-0.63096 -0.4688,-1.15398 -1.0992,-1.15398 z m 14.3875,3.21279 v 1.26353 c 0,1.86818 -1.6131,3.38463 -3.4807,3.38463 h -10.9052 v 11.23377 l 26.3441,15.20103 26.344603,-15.20049 v -3.47914 h -10.5534 c -1.8677,0 -3.467403,-1.4735 -3.467403,-3.34114 v -0.57672 c -6.868,-0.0913 -9.7608,-2.24783 -12.1112,-4.30341 -2.4497,-2.14205 -4.5504,-4.06177 -12.1681,-4.18152 z m 27.748303,4.64816 c -0.6304,0 -1.1315,0.4602 -1.1315,1.09062 v 3.26488 c 0,0.63096 0.5011,1.0627 1.1315,1.0627 h 10.5545 v -5.4182 z"
         id="path1-3"
         style="fill:#ffffff;fill-opacity:1;stroke-width:0.536987" /></g></g></svg>
