<?xml version="1.0" encoding="UTF-8" standalone="no"?>
<!-- Created with Inkscape (http://www.inkscape.org/) -->

<svg
   width="23.348576mm"
   height="23.348574mm"
   viewBox="0 0 88.246586 88.24658"
   version="1.1"
   id="svg1"
   xml:space="preserve"
   inkscape:version="1.4.3 (0d15f75042, 2025-12-25)"
   sodipodi:docname="icones.svg"
   inkscape:export-filename="icones.svg"
   inkscape:export-xdpi="96"
   inkscape:export-ydpi="96"
   xmlns:inkscape="http://www.inkscape.org/namespaces/inkscape"
   xmlns:sodipodi="http://sodipodi.sourceforge.net/DTD/sodipodi-0.dtd"
   xmlns="http://www.w3.org/2000/svg"
   xmlns:svg="http://www.w3.org/2000/svg"><sodipodi:namedview
     id="namedview1"
     pagecolor="#ffffff"
     bordercolor="#000000"
     borderopacity="0.25"
     inkscape:showpageshadow="2"
     inkscape:pageopacity="0.0"
     inkscape:pagecheckerboard="0"
     inkscape:deskcolor="#d1d1d1"
     inkscape:document-units="mm"
     showguides="false"
     inkscape:export-bgcolor="#ffffff00"
     inkscape:zoom="0.71539146"
     inkscape:cx="1063.0544"
     inkscape:cy="590.58575"
     inkscape:window-width="1890"
     inkscape:window-height="974"
     inkscape:window-x="56"
     inkscape:window-y="50"
     inkscape:window-maximized="0"
     inkscape:current-layer="layer2"><inkscape:page
       x="0"
       y="0"
       width="88.24659"
       height="88.246582"
       id="page2"
       margin="0"
       bleed="0" /></sodipodi:namedview><defs
     id="defs1" /><g
     inkscape:groupmode="layer"
     id="layer2"
     inkscape:label="icones"
     transform="translate(-752.40288,-538.40232)"><g
       id="g745"><path
         id="rect21"
         style="fill:#ffffff;fill-opacity:1;stroke-width:0.778285"
         inkscape:transform-center-x="193.08745"
         inkscape:transform-center-y="-83.850702"
         d="m 769.5571,538.40236 h 53.93821 c 9.50342,0 17.15418,7.65076 17.15418,17.15418 v 53.93821 c 0,9.50341 -7.65076,17.15417 -17.15418,17.15417 H 769.5571 c -9.50341,0 -17.15417,-7.65076 -17.15417,-17.15417 v -53.93821 c 0,-9.50342 7.65076,-17.15418 17.15417,-17.15418 z" /><g
         style="fill:none"
         id="g731"
         transform="matrix(1.1300538,0,0,1.1300538,790.30904,590.89438)"><path
           fill-rule="evenodd"
           clip-rule="evenodd"
           d="m -5.0611875,-32.585807 c 0.557184,0.24916 1.060197,0.659536 1.516779,1.201821 0.760969,0.896969 1.403305,2.180835 1.893421,3.702154 0.492695,1.530116 0.81255998,3.224395 0.93379898,4.924529 1.624089,-1.04405 3.42658002,-1.679833 5.28551202,-1.864272 l 0.131558,-0.01174 c 2.24424,-0.205177 4.462659,0.255015 6.3973515,1.389427 0.260536,0.155367 0.515912,0.322445 0.766129,0.498319 0.128978,-1.66789 0.443684,-3.324069 0.92864,-4.819025 0.490116,-1.52426 1.132426,-2.805175 1.890816,-3.705074 0.423821,-0.520993 0.942312,-0.931066 1.519359,-1.201821 0.662946,-0.293128 1.367165,-0.345891 2.053327,-0.123115 1.034402,0.334167 1.92177,1.078709 2.62083,2.160348 0.63973,0.987798 1.119527,2.254102 1.447131,3.772507 0.593298,2.737813 0.69648,6.340344 0.296649,10.684473 l 0.136717,0.117267 0.06707,0.05569 c 1.952725,1.688398 3.312151,4.09497 4.031848,6.8884746 1.122365,4.358755 0.557442,9.24804671 -1.377484,11.9831509 l -0.04643,0.061393 0.0052,0.00877 c 1.075933,2.2336384 1.728561,4.593417 1.867857,7.0352255 l 0.0052,0.08796 c 0.165091,3.12178 -0.51617,6.263938 -2.100018,9.350636 l -0.01806,0.02941 0.0258,0.07016 c 1.217551,3.391601 1.599325,6.806419 1.129846,10.218399 l -0.01548,0.114532 c -0.07274,0.498113 -0.316511,0.94386 -0.677649,1.237929 -0.361138,0.294328 -0.810497,0.414535 -1.24928,0.333021 -0.217198,-0.03869 -0.425626,-0.125366 -0.613418,-0.255634 -0.187534,-0.13001 -0.35082,-0.301292 -0.480314,-0.503529 -0.129235,-0.201722 -0.222357,-0.430786 -0.273691,-0.674039 -0.05133,-0.242736 -0.0601,-0.495017 -0.02554,-0.741622 0.430786,-3.028142 0.0258,-6.064796 -1.238188,-9.154332 -0.117885,-0.287104 -0.17025,-0.603358 -0.152193,-0.919354 0.01806,-0.316253 0.105761,-0.621931 0.255376,-0.889431 l 0.01032,-0.01754 c 1.557969,-2.708529 2.202859,-5.364183 2.063562,-7.972889 C 23.832506,8.2026934 23.112809,5.9602846 21.88752,3.8233796 21.649169,3.408071 21.564301,2.9027358 21.651233,2.4167472 21.738163,1.9307587 21.98967,1.5030682 22.35184,1.2262817 l 0.02322,-0.017541 c 0.626833,-0.46612589 1.204653,-1.65607549 1.496143,-3.283002 0.321671,-1.9235761 0.237577,-3.9064811 -0.245058,-5.7863071 -0.528809,-2.051909 -1.496143,-3.7637536 -2.85041,-4.9333506 -1.534836,-1.330794 -3.567527,-1.972742 -6.139346,-1.788072 -0.336374,0.02487 -0.671458,-0.06547 -0.962174,-0.259348 -0.290458,-0.19388 -0.523392,-0.482326 -0.668105,-0.828141 -0.809981,-1.949294 -1.991418,-3.344576 -3.4643445,-4.209295 -1.414139,-0.80201 -2.997317,-1.139055 -4.571027,-0.97319 -3.211548,0.2902 -6.043902,2.347939 -6.887417,4.942122 -0.11933,0.36511 -0.334001,0.6801 -0.615224,0.902767 -0.281223,0.22259 -0.615611,0.342307 -0.958331,0.34303 -2.752387,0.0059 -4.8831015,0.738682 -6.4411538,2.060679 -1.3465287,1.143182 -2.2648767,2.7407266 -2.7498337,4.6548616 -0.438834,1.80164 -0.498938,3.69555 -0.17541,5.5283255 0.288911,1.63569701 0.853834,2.98996441 1.501328,3.719721 l 0.02064,0.020637 c 0.546866,0.6067118 0.662946,1.5536671 0.281172,2.3009648 -0.928666,1.8232308 -1.622567,4.540536 -1.736068,7.1523371 -0.128977,2.984032 0.479798,5.575197 1.854728,7.433768 l 0.04127,0.05572 c 0.207499,0.274723 0.340914,0.611613 0.384405,0.970429 0.04344,0.358558 -0.0049,0.723824 -0.139348,1.052201 -1.48585,3.622988 -1.942432,6.601085 -1.449736,8.946162 0.08853,0.487794 0.0061,0.995451 -0.229684,1.414629 -0.235827,0.419691 -0.606458,0.718146 -1.033013,0.831905 -0.426556,0.114274 -0.875342,0.03405 -1.250876,-0.222358 -0.375584,-0.256666 -0.648186,-0.669395 -0.759881,-1.15074 -0.626835,-2.984032 -0.201208,-6.401945 1.220128,-10.253481 l 0.03611,-0.102667 -0.02064,-0.03508 c -0.698599,-1.172668 -1.219922,-2.469411 -1.542576,-3.837093 l -0.0129,-0.05572 c -0.391576,-1.706377 -0.545628,-3.471826 -0.456581,-5.232373 0.1135,-2.6675203 0.717119,-5.399271 1.604484,-7.5918944 l 0.03095,-0.076355 -0.0052,-0.00568 c -0.755807,-1.2252844 -1.315573,-2.79365499 -1.62512,-4.528923 l -0.0129,-0.070422 c -0.426506,-2.420398 -0.344321,-4.921021 0.239899,-7.298753 0.675846,-2.6821196 2.004316,-4.9861026 3.962194,-6.6510776 0.154774,-0.131893 0.317286,-0.263811 0.479798,-0.386908 -0.41015,-4.376398 -0.306967,-8.002378 0.288936,-10.757784 0.327604,-1.518379 0.809981,-2.784683 1.449711,-3.772491 0.6964804,-1.078709 1.5838479,-1.823251 2.6182502,-2.160347 0.6861622,-0.222777 1.3929603,-0.170014 2.0559073,0.126044 z m 10.617482,26.6453056 c 2.414491,0 4.6432535,0.917291 6.3096465,2.50604 1.625121,1.5448964 2.592455,3.62014991 2.592455,5.6868909 0,2.6027729 -1.0473,4.6313364 -2.922638,5.9267899 -1.5993245,1.0994072 -3.7429625,1.6328595 -6.1987265,1.6328595 -2.602773,0 -4.82635102,-0.7591636 -6.430835,-2.1516084 -1.591587,-1.3777413 -2.484139,-3.312409 -2.484139,-5.408041 0,-2.07241599 1.026689,-4.1538605 2.72403798,-5.7044319 1.723144,-1.574046 3.99831302,-2.488499 6.41019902,-2.488499 z m 0,2.6262471 c -1.789594,-0.017541 -3.531775,0.6539176 -4.94243102,1.9055187 -1.189176,1.08444571 -1.86244098,2.4474835 -1.86244098,3.6640026 0,1.2544385 0.54170698,2.4299426 1.57352998,3.324017 1.17369902,1.0171193 2.89942202,1.6062901 5.01207902,1.6062901 2.061092,0 3.799713,-0.430786 4.9837555,-1.2487635 1.194335,-0.8205571 1.80569,-2.0107646 1.80569,-3.6843811 0,-1.239993 -0.634571,-2.60896389 -1.761838,-3.6818016 C 9.1161085,-2.6164842 7.4239195,-3.3142543 5.5562945,-3.3142543 Z m 1.707692,3.54689071 0.01032,0.011866 c 0.309547,0.442394 0.245058,1.08444569 -0.144455,1.43629729 l -0.753231,0.6740382 v 1.3073194 c -0.0014,0.291232 -0.104265,0.5698241 -0.286072,0.774641 C 5.9087155,4.641873 5.6627805,4.7564054 5.4066815,4.7556315 5.1505835,4.7564054 4.9046485,4.641873 4.7228415,4.4367983 4.5409825,4.2319814 4.4381095,3.9533893 4.4367685,3.6621573 V 2.3138229 l -0.69906,-0.6389562 c -0.09224,-0.084094 -0.168909,-0.1877918 -0.225608,-0.3056775 -0.0567,-0.1178858 -0.0923,-0.2471216 -0.104782,-0.38074259 -0.01248,-0.1336211 -0.0015,-0.2685319 0.03214,-0.3972518 0.03369,-0.1287199 0.08946,-0.2486693 0.164111,-0.3526254 0.152245,-0.2107498 0.371508,-0.3443709 0.610117,-0.372488 0.238557,-0.027859 0.477269,0.052107 0.664184,0.2228737 l 0.554605,0.5043034 0.567502,-0.5099784 c 0.186244,-0.1674133 0.422635,-0.2453159 0.658716,-0.2171987 0.236158,0.027859 0.453306,0.1594166 0.605293,0.366555 z M -5.7370315,-5.3923454 c 1.233028,0 2.236476,1.143002 2.236476,2.5529875 6.7e-4,0.6758439 -0.23474,1.3243445 -0.654589,1.8031103 -0.419849,0.47876571 -0.989724,0.74858741 -1.584467,0.75013511 -0.593865,-0.00232 -1.1627093,-0.2721432 -1.5818873,-0.75013511 -0.4192296,-0.4779919 -0.6545884,-1.1252027 -0.6545884,-1.8000148 -0.00139,-0.675844 0.2333983,-1.32486 0.6527311,-1.804142 0.4193843,-0.479282 0.9915816,-0.749619 1.5863246,-0.751941 z m 22.4576985,0 c 1.238188,0 2.239056,1.143002 2.239056,2.5529875 7.74e-4,0.6758439 -0.23474,1.3243445 -0.654692,1.8031103 -0.419694,0.47876571 -0.989518,0.74858741 -1.584364,0.75013511 -0.593814,-0.00232 -1.162606,-0.2721432 -1.581784,-0.75013511 -0.419436,-0.4779919 -0.654691,-1.1252027 -0.654691,-1.8000148 -0.0013,-0.675844 0.23345,-1.32486 0.652628,-1.804142 0.419435,-0.479282 0.989002,-0.749619 1.583847,-0.751941 z m -22.9813485,-23.6466686 -0.0077,0.0059 c -0.2988675,0.14768 -0.5540373,0.389875 -0.7351738,0.697642 l -0.012898,0.01759 c -0.3559789,0.554012 -0.6655257,1.368919 -0.8976858,2.438816 -0.4385247,2.028461 -0.5571843,4.7809 -0.3198651,8.154805 1.1092095,-0.375196 2.3190217,-0.609704 3.6216977,-0.6947 l 0.0258,-0.0029 0.04901,-0.09967 c 0.118659,-0.240363 0.245058,-0.47193 0.381774,-0.700556 0.317286,-2.260027 0.05675,-4.959714 -0.652628,-7.164023 -0.34566,-1.066982 -0.766128,-1.905338 -1.168539,-2.383123 -0.08306,-0.09931 -0.175668,-0.187792 -0.276013,-0.263838 z m 23.6649315,0.117267 -0.0052,0.0029 c -0.100345,0.07605 -0.192951,0.164499 -0.276013,0.263812 -0.402411,0.477811 -0.825458,1.319082 -1.168539,2.386064 -0.748071,2.327431 -0.998288,5.205933 -0.593298,7.539219 l 0.149614,0.284345 0.02064,0.04104 h 0.07739 c 1.280235,4.12e-4 2.553762,0.209692 3.781631,0.621415 0.221842,-3.294739 0.09802,-5.98857 -0.330183,-7.978905 -0.232161,-1.069923 -0.541707,-1.884805 -0.900266,-2.438816 l -0.01032,-0.01759 c -0.180827,-0.308902 -0.435945,-0.552076 -0.735174,-0.700582 z"
           fill="#000000"
           id="path1-35"
           style="stroke-width:2.57956" /></g></g></g></svg>
