<?xml version="1.0" encoding="UTF-8" standalone="no"?>
<!-- Created with Inkscape (http://www.inkscape.org/) -->

<svg
   width="168.63901mm"
   height="168.63901mm"
   viewBox="0 0 637.37578 637.37575"
   version="1.1"
   id="svg1"
   xml:space="preserve"
   sodipodi:docname="orangepi.svg"
   inkscape:version="1.4.2 (ebf0e940d0, 2025-05-08)"
   xmlns:inkscape="http://www.inkscape.org/namespaces/inkscape"
   xmlns:sodipodi="http://sodipodi.sourceforge.net/DTD/sodipodi-0.dtd"
   xmlns="http://www.w3.org/2000/svg"
   xmlns:svg="http://www.w3.org/2000/svg"><sodipodi:namedview
     id="namedview1"
     pagecolor="#ffffff"
     bordercolor="#000000"
     borderopacity="0.25"
     inkscape:showpageshadow="2"
     inkscape:pageopacity="0.0"
     inkscape:pagecheckerboard="0"
     inkscape:deskcolor="#d1d1d1"
     inkscape:document-units="mm"
     inkscape:zoom="1.6630728"
     inkscape:cx="318.6872"
     inkscape:cy="-145.81442"
     inkscape:window-width="1920"
     inkscape:window-height="1008"
     inkscape:window-x="0"
     inkscape:window-y="0"
     inkscape:window-maximized="1"
     inkscape:current-layer="svg1" /><defs
     id="defs1" /><g
     id="layer2"
     transform="matrix(7.2226709,0,0,7.2226709,-4887.1006,-4035.9835)"
     inkscape:export-filename="orangepi.svg"
     inkscape:export-xdpi="96"
     inkscape:export-ydpi="96"><g
       id="g728"><path
         id="rect29"
         style="fill:#ff6600;stroke-width:0.778285"
         d="m 693.7876,558.79376 h 53.93821 c 9.50341,0 17.15417,7.65076 17.15417,17.15418 v 53.93821 c 0,9.50341 -7.65076,17.15417 -17.15417,17.15417 H 693.7876 c -9.50342,0 -17.15418,-7.65076 -17.15418,-17.15417 v -53.93821 c 0,-9.50342 7.65076,-17.15418 17.15418,-17.15418 z" /><path
         style="fill:#ffffff;fill-opacity:1;stroke-width:0.445699"
         d="m 724.06185,639.45889 c -0.23495,-0.0877 -0.65563,-0.30098 -0.93489,-0.47402 -0.27914,-0.17306 -0.71798,-0.46657 -0.97502,-0.65228 -0.25705,-0.1857 -0.73035,-0.4198 -1.05171,-0.52022 -0.43982,-0.13747 -1.21971,-0.18998 -3.15511,-0.21248 l -2.57069,-0.0299 -0.58432,0.3079 c -0.32136,0.16936 -0.92417,0.48487 -1.3396,0.70114 -0.69742,0.3631 -0.83611,0.39292 -1.81114,0.3893 -0.90305,-0.003 -1.14982,-0.0494 -1.70318,-0.31808 -0.35582,-0.17278 -0.87035,-0.50532 -1.14326,-0.73898 -0.3568,-0.30538 -0.64677,-0.73813 -1.03114,-1.53909 -0.29413,-0.61284 -0.74489,-1.34221 -1.00172,-1.62082 -0.25683,-0.27862 -0.92143,-0.77811 -1.47698,-1.10996 -0.55544,-0.33187 -1.24662,-0.7734 -1.53583,-0.98118 -0.2892,-0.20777 -0.73865,-0.48516 -0.99865,-0.61641 -0.26011,-0.13123 -0.65454,-0.27166 -0.87648,-0.31204 -0.22193,-0.0404 -0.9293,-0.0876 -1.57203,-0.10501 -0.98881,-0.0267 -1.28042,-0.082 -1.8957,-0.35983 -0.47471,-0.21437 -0.93171,-0.54466 -1.31673,-0.95173 -0.32432,-0.34288 -0.70519,-0.87535 -0.84651,-1.18325 -0.23036,-0.5017 -0.25748,-0.75542 -0.26087,-2.44367 v -1.88386 l -1.05171,-2.07095 c -0.61155,-1.20436 -1.25636,-2.3024 -1.54097,-2.62409 -0.26908,-0.30423 -0.81609,-0.72731 -1.21545,-0.94017 -0.39935,-0.21285 -0.93598,-0.57659 -1.19248,-0.80829 -0.25639,-0.23171 -0.58213,-0.60563 -0.72367,-0.83093 -0.14154,-0.2253 -0.351,-0.6925 -0.4652,-1.03821 -0.15072,-0.45578 -0.19305,-0.8573 -0.154,-1.46068 0.0306,-0.46983 0.15652,-1.0637 0.28964,-1.36399 0.12983,-0.29253 0.47854,-0.86155 0.77519,-1.26449 0.29664,-0.40294 0.61669,-1.00495 0.7112,-1.3378 0.0941,-0.33286 0.22423,-1.5587 0.28811,-2.72409 0.0908,-1.65724 0.0831,-2.26076 -0.035,-2.7701 -0.0831,-0.35816 -0.36544,-1.00849 -0.62697,-1.44518 -0.26153,-0.43669 -0.56474,-1.10585 -0.67368,-1.48703 -0.14111,-0.4933 -0.17687,-0.89636 -0.12448,-1.39842 0.0416,-0.39491 0.2204,-1.01564 0.4069,-1.41032 0.18332,-0.38774 0.56419,-0.93166 0.8464,-1.20872 0.30998,-0.3043 0.93926,-0.70715 1.58942,-1.01751 0.68353,-0.32633 1.25177,-0.69468 1.55749,-1.00969 0.2647,-0.27276 0.56277,-0.65624 0.6623,-0.85218 0.0995,-0.19592 0.56846,-0.94017 1.04176,-1.65387 0.4734,-0.71371 0.94429,-1.52876 1.04656,-1.81125 0.11638,-0.32116 0.19853,-0.99526 0.2192,-1.79902 0.0252,-0.98114 0.0941,-1.44311 0.28855,-1.95166 0.14045,-0.36645 0.49254,-0.93013 0.78252,-1.25262 0.33602,-0.37373 0.80964,-0.72536 1.30634,-0.9697 l 0.77913,-0.38335 h 1.87174 c 1.78281,0 1.8993,-0.0143 2.45594,-0.30141 0.32126,-0.16577 1.27343,-0.65499 2.11577,-1.08713 0.94528,-0.48493 1.71927,-0.97157 2.02182,-1.27112 0.26962,-0.26694 0.65377,-0.79233 0.85383,-1.1675 0.19984,-0.37516 0.56802,-0.91448 0.81806,-1.19849 0.27488,-0.31224 0.76294,-0.66819 1.2346,-0.90044 0.7136,-0.35127 0.87024,-0.38338 1.83433,-0.37597 0.79903,0.007 1.18154,0.0659 1.58002,0.24677 0.2892,0.13125 0.77157,0.42651 1.07183,0.65612 0.30036,0.22961 0.71798,0.50636 0.9281,0.61501 0.21012,0.10862 0.54275,0.24622 0.73931,0.3057 0.19667,0.0595 1.36618,0.15614 2.59902,0.2148 1.87436,0.0891 2.3528,0.0777 2.92027,-0.0701 0.37321,-0.0972 0.91618,-0.32925 1.20659,-0.51562 0.29052,-0.18638 0.76425,-0.44086 1.05291,-0.56551 0.28866,-0.12465 0.77595,-0.26218 1.08299,-0.30564 0.31392,-0.0444 0.85088,-0.0186 1.22704,0.0592 0.36774,0.076 0.90776,0.2589 1.19981,0.40649 0.29216,0.14759 0.75987,0.49639 1.03923,0.77511 0.32651,0.32574 0.68528,0.88836 1.00446,1.57503 0.29303,0.63051 0.68166,1.25301 0.94823,1.5191 0.2484,0.24797 0.84574,0.68195 1.32734,0.9644 0.4815,0.28246 1.20528,0.74602 1.60835,1.03015 0.40296,0.28412 0.98148,0.62781 1.28535,0.76376 0.43698,0.19543 0.84059,0.25551 1.92796,0.28697 1.02053,0.0295 1.539,0.10107 2.01011,0.2773 0.34914,0.13063 0.89113,0.46801 1.20451,0.74975 0.31338,0.28173 0.7497,0.84419 0.96967,1.24991 l 0.4,0.73765 v 1.88696 1.88695 l 1.09218,2.14454 c 0.72312,1.41994 1.25614,2.3148 1.5775,2.64845 0.267,0.27714 0.79007,0.66695 1.16251,0.86623 0.37234,0.19929 0.9094,0.56687 1.19336,0.81687 0.31217,0.27471 0.66843,0.76308 0.90054,1.23445 0.34313,0.69681 0.38404,0.88604 0.38404,1.77588 0,0.69056 -0.0667,1.16845 -0.21702,1.55845 -0.11933,0.30938 -0.40241,0.80542 -0.62905,1.10234 -0.22664,0.29692 -0.54494,0.80444 -0.70737,1.12782 -0.25147,0.50068 -0.31043,0.83145 -0.39717,2.22802 -0.0558,0.90204 -0.11157,2.11332 -0.12338,2.69175 -0.0197,0.97208 0.0109,1.10921 0.35516,1.81126 0.20717,0.41776 0.51136,1.00238 0.67587,1.29917 0.16451,0.29679 0.35943,0.89192 0.43315,1.3225 0.11431,0.66716 0.10391,0.8983 -0.07,1.56377 -0.11223,0.42949 -0.38689,1.05673 -0.61024,1.39385 -0.22325,0.33714 -0.65542,0.79456 -0.96026,1.0165 -0.30485,0.22193 -0.85231,0.51265 -1.21655,0.64603 -0.38404,0.14058 -0.91323,0.46803 -1.2592,0.77907 -0.32825,0.29511 -0.73636,0.78026 -0.90688,1.0781 -0.17053,0.29784 -0.62479,1.01426 -1.0096,1.59205 -0.38469,0.57777 -0.82791,1.331 -0.98487,1.67381 -0.24294,0.53061 -0.28964,0.82714 -0.31436,1.99384 -0.0252,1.20982 -0.0667,1.45511 -0.35254,2.09154 -0.2122,0.47285 -0.53969,0.9254 -0.95162,1.315 -0.34554,0.32673 -0.87801,0.70942 -1.18329,0.85044 -0.49889,0.2304 -0.7462,0.25639 -2.43932,0.25639 h -1.88432 l -2.07049,1.05169 c -1.20363,0.61135 -2.30226,1.25657 -2.62374,1.54101 -0.3043,0.26913 -0.7299,0.82102 -0.94604,1.22643 -0.21614,0.40541 -0.62599,0.98639 -0.91104,1.29107 -0.28494,0.30467 -0.81402,0.69555 -1.17563,0.86861 -0.51858,0.24818 -0.86729,0.32294 -1.65079,0.35388 -0.64338,0.0254 -1.1437,-0.0168 -1.42043,-0.12016 z m -0.65159,-7.67997 c 0.24228,-0.0673 0.61582,-0.29761 0.82999,-0.51186 0.24534,-0.24531 0.44223,-0.59851 0.53171,-0.95385 0.14066,-0.5588 0.11791,-0.64914 -2.33705,-9.27409 -1.36367,-4.79038 -2.55002,-8.78641 -2.63654,-8.88005 -0.11616,-0.12591 -0.19131,-0.13609 -0.28833,-0.039 -0.0722,0.0721 -1.1519,3.69823 -2.39951,8.05798 -1.24749,4.35974 -2.37117,8.31458 -2.49696,8.78851 -0.18901,0.71259 -0.20641,0.94952 -0.10063,1.36926 0.0766,0.30372 0.28417,0.66048 0.51715,0.88829 0.21417,0.20939 0.56332,0.44372 0.77585,0.52073 0.2647,0.0959 1.45456,0.14263 3.77531,0.14826 2.02848,0.005 3.56551,-0.0409 3.82912,-0.11406 z m -4.60037,-10.2921 c -0.23134,-0.13417 -0.51432,-0.40256 -0.62884,-0.59641 -0.11452,-0.19386 -0.21209,-0.54298 -0.21679,-0.77584 0,-0.23286 0.35713,-1.7511 0.80406,-3.37387 0.44705,-1.62279 0.84202,-2.95055 0.87779,-2.9506 0.0361,-4e-5 0.44781,1.39798 0.91574,3.10672 0.58552,2.13791 0.8266,3.20383 0.77311,3.418 -0.0426,0.17117 -0.1796,0.47651 -0.30408,0.67855 -0.12458,0.20204 -0.40449,0.45181 -0.62205,0.55507 -0.21756,0.10326 -0.57174,0.18651 -0.787,0.18503 -0.21516,-10e-4 -0.5806,-0.11247 -0.81194,-0.24665 z m -7.99373,8.30034 c 0.30201,-0.076 0.6704,-0.28762 0.89901,-0.51632 0.33723,-0.33744 0.78503,-1.47505 3.46762,-8.81002 1.69421,-4.6324 3.08763,-8.51279 3.0966,-8.62309 0.0109,-0.11031 -0.0722,-0.21893 -0.18059,-0.24138 -0.12065,-0.025 -2.95221,2.11514 -7.30353,5.52007 -5.74429,4.49503 -7.15859,5.65546 -7.37856,6.05436 -0.2157,0.39089 -0.26219,0.62202 -0.22368,1.11182 0.0284,0.36786 0.14252,0.74654 0.28067,0.93483 0.12776,0.17408 1.51625,1.25168 3.08566,2.39465 1.5693,1.14297 3.0116,2.1242 3.20499,2.18049 0.19328,0.0563 0.39399,0.10708 0.44584,0.11289 0.0514,0.005 0.32464,-0.0475 0.60597,-0.1183 z m 1.93092,-10.25388 c -0.22183,-0.119 -0.50447,-0.35172 -0.62796,-0.51715 -0.12349,-0.16544 -0.24655,-0.55449 -0.27324,-0.86455 -0.0361,-0.42371 0.0109,-0.65651 0.18595,-0.93705 0.12896,-0.2053 1.32669,-1.24837 2.66159,-2.31793 1.33489,-1.06957 2.44304,-1.89673 2.46251,-1.83817 0.0197,0.0586 -0.4593,1.40636 -1.06418,2.9951 -0.60477,1.58872 -1.19773,2.99867 -1.3175,3.13319 -0.11988,0.13453 -0.3871,0.31622 -0.59394,0.40374 -0.20673,0.0875 -0.52318,0.15916 -0.70289,0.15916 -0.17982,0 -0.50851,-0.0974 -0.73034,-0.21634 z m 17.351,9.96735 c 0.25705,-0.15461 1.59402,-1.11037 2.97091,-2.1239 1.3769,-1.01354 2.60931,-1.9867 2.73848,-2.16257 0.15237,-0.2072 0.25016,-0.55687 0.27805,-0.99326 0.035,-0.54842 -0.0109,-0.75376 -0.22609,-1.10579 -0.18059,-0.28992 -2.60744,-2.26479 -7.3697,-5.99706 -4.49504,-3.52277 -7.175,-5.54939 -7.30342,-5.52283 -0.11167,0.0231 -0.19743,0.11881 -0.19087,0.21276 0.0109,0.094 1.39484,3.95689 3.0849,8.58435 1.68994,4.62745 3.15686,8.52742 3.25979,8.66661 0.10282,0.13917 0.33657,0.34222 0.51934,0.45121 0.18267,0.10894 0.47188,0.24199 0.64273,0.2956 0.17074,0.0536 0.49451,0.0701 0.7194,0.0367 0.225,-0.0335 0.61943,-0.18723 0.87648,-0.34184 z m -5.02478,-9.91489 c -0.19284,-0.0851 -0.44606,-0.26194 -0.56277,-0.39295 -0.11671,-0.131 -0.70835,-1.54472 -1.31466,-3.14157 -0.60641,-1.59686 -1.0878,-2.94746 -1.06986,-3.00133 0.0175,-0.0538 1.12477,0.77714 2.45967,1.84671 1.33489,1.06956 2.52945,2.11263 2.65469,2.31793 0.12754,0.20923 0.22774,0.58393 0.22806,0.85263 2.2e-4,0.30442 -0.0963,0.62425 -0.26492,0.87641 -0.14581,0.21839 -0.44814,0.489 -0.67182,0.60138 -0.22369,0.11237 -0.56441,0.20233 -0.75725,0.19992 -0.19284,-0.002 -0.5083,-0.0741 -0.70114,-0.15913 z m -20.33307,-0.51639 c 1.4142,-0.95487 4.81914,-3.24609 7.5667,-5.0916 2.74756,-1.84552 4.99557,-3.42841 4.99557,-3.51753 0,-0.0892 -0.0492,-0.19228 -0.10829,-0.22923 -0.0602,-0.037 -4.01682,0.0673 -8.7933,0.23168 -4.77659,0.16438 -8.90433,0.32561 -9.17275,0.3583 -0.26842,0.0327 -0.66154,0.17636 -0.87363,0.31926 -0.21209,0.14291 -0.50513,0.43726 -0.65126,0.65412 -0.18737,0.278 -0.26569,0.56459 -0.26569,0.97187 0,0.41098 0.3066,1.51797 1.06286,3.83747 0.58465,1.79293 1.17214,3.39859 1.30547,3.56815 0.13334,0.16955 0.457,0.4088 0.71908,0.53167 0.35057,0.16429 0.63113,0.20732 1.06067,0.16267 0.51595,-0.0536 0.88326,-0.26278 3.15501,-1.79683 z m 4.0667,-4.80718 c -0.20575,-0.12545 -0.45546,-0.38557 -0.555,-0.57802 -0.0995,-0.19247 -0.18103,-0.61365 -0.18103,-0.93595 0,-0.48663 0.0602,-0.65486 0.35637,-0.99194 0.19601,-0.22325 0.5247,-0.45868 0.73045,-0.52316 0.20564,-0.0644 1.73064,-0.17894 3.38886,-0.25433 1.65823,-0.0754 3.04081,-0.11133 3.07221,-0.0799 0.0317,0.0315 -0.7205,0.57315 -1.67114,1.2037 -0.95063,0.63056 -2.17024,1.42594 -2.71026,1.76751 -0.81927,0.51815 -1.07084,0.62096 -1.51909,0.62059 -0.3265,-2.7e-4 -0.68396,-0.0899 -0.91137,-0.22855 z m 29.94762,6.4344 c 0.26207,-0.11905 0.5888,-0.35911 0.72596,-0.53345 0.13706,-0.17435 0.72455,-1.77986 1.30536,-3.56779 0.74971,-2.30766 1.05608,-3.41845 1.05608,-3.82874 0,-0.40767 -0.0788,-0.69415 -0.26568,-0.97224 -0.14614,-0.21686 -0.43917,-0.51121 -0.65126,-0.65412 -0.21209,-0.1429 -0.60521,-0.2865 -0.87363,-0.31909 -0.26843,-0.0326 -4.39157,-0.19664 -9.16258,-0.36453 -4.77101,-0.16789 -8.728,-0.27222 -8.79341,-0.23185 -0.0656,0.0404 -0.11879,0.14355 -0.11879,0.22927 0,0.0858 3.34445,2.40949 7.43194,5.16393 4.08759,2.75444 7.59754,5.07084 7.80011,5.14755 0.20247,0.0767 0.52591,0.14128 0.71864,0.14349 0.19284,0.002 0.56507,-0.0934 0.82726,-0.21243 z m -11.76947,-7.52609 c -1.11581,-0.72637 -2.33968,-1.52829 -2.71978,-1.78204 -0.5188,-0.34624 -0.6366,-0.47197 -0.47209,-0.50386 0.12043,-0.0234 1.50947,0.0188 3.08664,0.0938 1.57717,0.0749 3.03589,0.18933 3.24153,0.25413 0.20574,0.0648 0.53444,0.30049 0.73045,0.52373 0.19601,0.22327 0.36457,0.54872 0.37452,0.72321 0.0109,0.17451 0.0109,0.44488 -0.0109,0.60082 -0.0142,0.15593 -0.10391,0.43433 -0.19918,0.61866 -0.0952,0.18432 -0.34171,0.43778 -0.54735,0.56323 -0.22871,0.13944 -0.58497,0.22828 -0.9164,0.22854 -0.49375,4e-4 -0.72367,-0.11767 -2.5708,-1.32024 z m -9.68258,-4.37904 c 0,-0.1418 -1.08277,-0.93433 -3.41807,-2.50187 -1.87994,-1.26187 -5.29068,-3.55405 -7.5795,-5.09374 -2.70282,-1.81812 -4.30034,-2.82155 -4.55738,-2.86255 -0.21767,-0.0347 -0.61703,-0.01 -0.88753,0.0555 -0.27597,0.0666 -0.66044,0.28248 -0.87636,0.49219 -0.3358,0.32617 -0.52383,0.79964 -1.47994,3.72875 -0.95895,2.93773 -1.08878,3.43254 -1.04361,3.9773 0.0317,0.38519 0.14898,0.75891 0.30726,0.98121 0.14066,0.19747 0.47876,0.46512 0.75145,0.59477 0.45918,0.2183 1.05345,0.25677 8.03299,0.51995 4.14546,0.15631 8.26018,0.29137 9.14387,0.30013 1.46736,0.0145 1.60682,-0.002 1.60682,-0.1916 z m -5.02478,-0.56053 c -2.39327,-0.12178 -3.05514,-0.19154 -3.36239,-0.35437 -0.21034,-0.11151 -0.4908,-0.37799 -0.62315,-0.59217 -0.1527,-0.24694 -0.24075,-0.58816 -0.24075,-0.93247 0,-0.3529 0.0788,-0.64942 0.225,-0.84687 0.12371,-0.16711 0.40417,-0.42684 0.62326,-0.57717 0.31316,-0.21497 0.51092,-0.26286 0.92635,-0.22423 0.44507,0.0413 0.94539,0.32306 3.18334,1.79243 1.46046,0.95885 2.65567,1.7828 2.65622,1.831 0,0.0482 -0.0908,0.0804 -0.20356,0.0715 -0.11255,-0.009 -1.54545,-0.0843 -3.18432,-0.1677 z m 19.45627,0.46854 c 7.94352,-0.28184 8.56459,-0.31882 9.02629,-0.53744 0.27269,-0.12913 0.61177,-0.39773 0.75364,-0.59689 0.16998,-0.23871 0.27269,-0.58374 0.30156,-1.01245 0.0383,-0.56767 -0.0908,-1.0644 -1.01878,-3.90736 -0.58442,-1.79135 -1.16568,-3.40184 -1.29169,-3.57888 -0.12611,-0.17702 -0.42746,-0.41656 -0.66974,-0.53229 -0.24228,-0.11574 -0.6821,-0.20729 -0.97754,-0.20346 -0.29534,0.004 -0.64722,0.066 -0.78197,0.13805 -0.13465,0.0721 -3.57394,2.36795 -7.64272,5.10188 -5.03189,3.38097 -7.40996,5.04396 -7.43533,5.19957 -0.0328,0.20302 0.0328,0.22897 0.58431,0.23036 0.34193,8.9e-4 4.46026,-0.13464 9.15197,-0.30109 z m -8.09632,-0.4089 c 0.0186,-0.0499 1.20921,-0.86449 2.64638,-1.8103 2.07825,-1.36778 2.71452,-1.73112 3.10928,-1.77562 0.32826,-0.037 0.63978,0.0121 0.92001,0.14511 0.23309,0.11058 0.53455,0.38026 0.66986,0.59931 0.14624,0.23657 0.24928,0.60529 0.25387,0.90822 0,0.33041 -0.082,0.65458 -0.24611,0.9207 -0.13968,0.22589 -0.43053,0.49456 -0.64644,0.597 -0.29348,0.13926 -1.05258,0.21623 -3.00713,0.3049 -1.43804,0.0652 -2.86634,0.13722 -3.17382,0.15997 -0.30758,0.0228 -0.54417,4.4e-4 -0.5259,-0.0493 z m -5.4203,-0.72821 c 0.093,-0.11247 -0.66723,-2.32195 -2.96665,-8.61804 -1.70067,-4.65675 -3.18695,-8.59503 -3.30278,-8.75173 -0.11573,-0.1567 -0.3497,-0.38883 -0.51979,-0.51583 -0.18441,-0.13765 -0.56309,-0.25197 -0.93772,-0.28303 -0.44672,-0.0371 -0.73986,0.005 -1.01364,0.14709 -0.21188,0.10955 -1.61601,1.09416 -3.12023,2.18801 -2.22657,1.61917 -2.77993,2.07702 -2.97704,2.46331 -0.18332,0.35931 -0.2297,0.62395 -0.19098,1.09009 0.035,0.4174 0.1422,0.73183 0.33405,0.97662 0.15576,0.19859 3.46445,2.85546 7.35286,5.90415 3.8883,3.04872 7.1027,5.5448 7.14306,5.54685 0.0405,0.002 0.12984,-0.0643 0.19886,-0.14749 z m -3.54408,-3.25563 c -1.45489,-1.16639 -2.53733,-2.12147 -2.65852,-2.34586 -0.11245,-0.20819 -0.20444,-0.55543 -0.20444,-0.77167 0,-0.21623 0.0842,-0.57117 0.1877,-0.78875 0.10282,-0.21757 0.35298,-0.49749 0.55501,-0.62203 0.20202,-0.12454 0.51431,-0.26311 0.6938,-0.30792 0.20652,-0.0515 0.51705,-0.009 0.84574,0.11684 0.2856,0.10905 0.61888,0.33884 0.74074,0.51058 0.12174,0.17173 0.70343,1.59296 1.29245,3.15828 0.58913,1.5653 1.05542,2.88469 1.03628,2.93196 -0.0186,0.0473 -1.1391,-0.79937 -2.48876,-1.88143 z m 13.78559,-2.20249 c 3.93982,-3.08514 7.25803,-5.75381 7.37386,-5.93038 0.11573,-0.17657 0.23255,-0.58792 0.25967,-0.91413 0.0361,-0.44196 -0.012,-0.714 -0.19284,-1.06759 -0.1971,-0.38629 -0.75035,-0.84414 -2.97704,-2.46331 -1.50421,-1.09385 -2.90835,-2.07846 -3.12022,-2.18801 -0.27378,-0.1416 -0.56692,-0.18414 -1.01364,-0.14709 -0.37463,0.0311 -0.75331,0.14538 -0.93773,0.28303 -0.17009,0.127 -0.40351,0.35913 -0.51869,0.51583 -0.11518,0.1567 -1.6031,4.09305 -3.30628,8.74744 -2.35324,6.43047 -3.06586,8.49986 -2.96774,8.61804 0.0711,0.0855 0.15346,0.15552 0.18321,0.15552 0.0295,0 3.27763,-2.5242 7.21744,-5.60935 z m -6.36535,4.01399 c 0,-0.0419 0.47909,-1.3434 1.06461,-2.89216 0.58552,-1.54874 1.16459,-2.95642 1.28687,-3.12815 0.12229,-0.17174 0.45591,-0.4015 0.7415,-0.51058 0.32869,-0.12551 0.63923,-0.16841 0.84574,-0.11684 0.17961,0.0448 0.49178,0.18338 0.69381,0.30792 0.20203,0.12454 0.45175,0.40446 0.555,0.62203 0.10282,0.21758 0.18781,0.57252 0.18781,0.78875 0,0.21624 -0.0919,0.55945 -0.20454,0.7627 -0.11518,0.20819 -1.26205,1.21502 -2.6268,2.30606 -1.33227,1.06508 -2.44972,1.93652 -2.48319,1.93652 -0.0339,0 -0.0612,-0.0343 -0.0612,-0.0762 z m -2.17451,0.8066 c 0.0339,-0.11248 1.16918,-4.08863 2.52311,-8.83588 1.93561,-6.78733 2.44555,-8.71651 2.3867,-9.02983 -0.0405,-0.21916 -0.18824,-0.56685 -0.32694,-0.77266 -0.13869,-0.20581 -0.42954,-0.49377 -0.64644,-0.63991 -0.39006,-0.26291 -0.43436,-0.26571 -4.2159,-0.26571 -3.77083,0 -3.82683,0.003 -4.20792,0.26294 -0.21252,0.1446 -0.48674,0.39856 -0.60947,0.56435 -0.12284,0.16579 -0.27181,0.51752 -0.33121,0.78161 -0.0984,0.43679 0.10282,1.22251 2.23018,8.69639 1.2859,4.51892 2.41745,8.49229 2.51458,8.8297 0.13356,0.46352 0.23101,0.6135 0.39924,0.6135 0.1224,0 0.25027,-0.092 0.28407,-0.2045 z m -1.19161,-4.62181 c -0.74346,-2.76812 -0.83808,-3.2299 -0.73263,-3.57845 0.0667,-0.22011 0.26415,-0.5496 0.43916,-0.7322 0.1749,-0.18262 0.51858,-0.38601 0.76371,-0.452 0.3008,-0.0811 0.58377,-0.0818 0.871,-0.002 0.23397,0.0646 0.57579,0.26154 0.75955,0.43764 0.18376,0.17609 0.38863,0.52235 0.45525,0.76948 0.10828,0.40061 0.0306,0.78124 -0.7123,3.5112 -0.4582,1.68405 -0.86849,3.09863 -0.91159,3.14351 -0.0437,0.0448 -0.46257,-1.34861 -0.93215,-3.09665 z m 8.50771,-22.36306 c -0.225,-0.0229 -0.93488,-0.12073 -1.5775,-0.2174 -0.64273,-0.0967 -1.83904,-0.33722 -2.65852,-0.53456 -0.81938,-0.19733 -1.48989,-0.40315 -1.48989,-0.45737 0,-0.0543 0.32508,-0.50955 0.72236,-1.01186 0.39727,-0.50231 1.25176,-1.44274 1.89886,-2.08985 0.6471,-0.64711 1.5973,-1.51031 2.1114,-1.91821 0.5142,-0.40789 1.48113,-1.1025 2.1488,-1.54359 0.66767,-0.44108 1.88257,-1.13668 2.69987,-1.54578 0.81741,-0.40911 1.81792,-0.86483 2.22362,-1.01272 0.40559,-0.14789 0.68156,-0.28752 0.6133,-0.31029 -0.0678,-0.0227 -0.85274,0.20109 -1.7431,0.49745 -0.89037,0.29635 -2.41067,0.92167 -3.37848,1.38961 -0.9677,0.46792 -2.2712,1.17237 -2.89653,1.56542 -0.62545,0.39305 -1.63504,1.0889 -2.24353,1.5463 -0.6086,0.45741 -1.68459,1.38556 -2.39109,2.06257 -0.70649,0.677 -1.28457,1.1977 -1.28457,1.15712 0,-0.0406 0.21668,-0.50646 0.48138,-1.03525 0.26482,-0.52881 0.77126,-1.40843 1.12554,-1.95473 0.35429,-0.54629 0.97919,-1.39546 1.38849,-1.88702 0.40931,-0.49155 1.09918,-1.20657 1.53288,-1.58891 0.43381,-0.38235 1.1251,-0.94137 1.53648,-1.24228 0.41128,-0.30091 1.17378,-0.77705 1.69433,-1.05808 0.52065,-0.28105 1.44613,-0.69532 2.0567,-0.92062 0.61057,-0.22531 1.71489,-0.54339 2.45398,-0.70685 0.73909,-0.16346 2.05375,-0.37641 2.92136,-0.47321 0.86762,-0.0968 2.55035,-0.23793 3.73933,-0.31361 1.27375,-0.0811 3.28998,-0.11035 4.90795,-0.0713 1.51035,0.0365 3.40342,0.14734 4.20671,0.24636 0.80341,0.099 1.99972,0.268 2.65853,0.37552 0.65869,0.10752 1.19718,0.22724 1.19652,0.26602 0,0.0388 -0.48696,0.25201 -1.08091,0.47381 -0.59383,0.22179 -1.8422,0.7846 -2.77414,1.25064 -0.93193,0.46605 -2.27284,1.22424 -2.97977,1.68487 -0.70694,0.46062 -1.73239,1.18513 -2.27864,1.61 -0.54636,0.42489 -2.02903,1.78506 -3.29502,3.02259 -1.42863,1.39662 -2.63467,2.46743 -3.1795,2.82314 -0.48292,0.31519 -1.27835,0.73978 -1.76772,0.94353 -0.48948,0.20374 -1.28425,0.47131 -1.7663,0.5946 -0.48204,0.12328 -1.30492,0.27788 -1.82875,0.34355 -0.52372,0.0656 -1.47939,0.11098 -2.12375,0.10074 -0.64448,-0.01 -1.35579,-0.0374 -1.58068,-0.0604 z m 7.08914,-10.74952 c -0.0427,-0.0429 -0.11288,-0.0429 -0.15576,0 -0.0427,0.0429 -0.0109,0.0779 0.0777,0.0779 0.0853,0 0.12076,-0.035 0.0777,-0.0779 z m -17.97502,9.43602 c -0.36359,-0.11629 -1.07347,-0.43292 -1.57751,-0.70364 -0.50403,-0.27072 -1.28775,-0.77539 -1.74146,-1.12149 -0.45372,-0.34611 -1.11427,-0.93373 -1.46769,-1.30584 -0.35352,-0.37209 -0.85591,-0.99204 -1.11634,-1.37766 -0.26055,-0.38562 -0.6319,-1.01665 -0.82529,-1.40226 -0.1935,-0.38563 -0.48631,-1.10409 -0.65082,-1.59659 -0.16451,-0.49249 -0.35877,-1.22867 -0.43162,-1.63596 -0.0722,-0.40729 -0.15149,-0.83731 -0.17501,-0.95563 -0.0361,-0.17986 0.0109,-0.20259 0.27072,-0.13865 0.17216,0.0421 0.84388,0.32887 1.49251,0.63739 0.64874,0.30851 1.56897,0.82506 2.045,1.14791 0.47603,0.32284 1.181,0.8638 1.56668,1.20212 0.38557,0.33833 1.0319,0.98844 1.43629,1.44469 0.40438,0.45625 1.05105,1.2891 1.43694,1.85075 0.38601,0.56165 0.86674,1.3736 1.06833,1.80434 0.20608,0.44032 0.38842,1.04778 0.41664,1.3877 0.0438,0.53128 0.0164,0.62772 -0.2227,0.79569 -0.15007,0.10511 -0.40581,0.18829 -0.56824,0.18483 -0.16243,-0.003 -0.59285,-0.1014 -0.95643,-0.2177 z"
         id="path698" /></g></g></svg>
