<?xml version="1.0" encoding="UTF-8" standalone="no"?>
<!-- Created with Inkscape (http://www.inkscape.org/) -->

<svg
   width="23.34856mm"
   height="23.348566mm"
   viewBox="0 0 88.246528 88.246551"
   version="1.1"
   id="svg1"
   xml:space="preserve"
   xmlns="http://www.w3.org/2000/svg"
   xmlns:svg="http://www.w3.org/2000/svg"><defs
     id="defs1" /><g
     id="layer1"
     transform="translate(-801.39859,-305.31025)"><g
       id="g713"><path
         id="rect17"
         style="fill:#019bc6;stroke-width:0.778285"
         d="m 818.55273,305.31024 h 53.93822 c 9.50341,0 17.15417,7.65076 17.15417,17.15417 v 53.93822 c 0,9.50341 -7.65076,17.15417 -17.15417,17.15417 h -53.93822 c -9.50341,0 -17.15417,-7.65076 -17.15417,-17.15417 v -53.93822 c 0,-9.50341 7.65076,-17.15417 17.15417,-17.15417 z" /><g
         style="fill:#ffffff;fill-opacity:1;stroke:#3bbced;stroke-opacity:1"
         id="g5"
         transform="matrix(0.53698701,0,0,0.53698701,811.15467,315.06098)"><g
           id="path1-25"
           style="opacity:1"><path
             style="baseline-shift:baseline;display:inline;overflow:visible;vector-effect:none;stroke:none;enable-background:accumulate;stop-color:#000000;stop-opacity:1"
             d="m 49.32,29.44 h -1.88 v 9.75 h 1.88 z m 8.09,0 h -1.88 v 9.75 h 1.88 z M 68.47,10.84 66.54,7.5 34.36,26.1 l 1.93,3.34 z"
             id="path700" /><path
             style="baseline-shift:baseline;display:inline;overflow:visible;vector-effect:none;fill:#3bbced;stroke:none;enable-background:accumulate;stop-color:#000000;stop-opacity:1"
             d="M 66.722656,6.8164062 33.677734,25.917969 36.107422,30.123047 69.152344,11.023438 Z M 66.357422,8.1835938 67.787109,10.65625 36.472656,28.757812 35.042969,26.283203 Z M 46.939453,28.939453 v 10.75 h 2.880859 v -10.75 z m 8.089844,0 v 10.75 h 2.880859 v -10.75 z m -7.089844,1 h 0.880859 v 8.75 h -0.880859 z m 8.089844,0 h 0.880859 v 8.75 h -0.880859 z"
             id="path701" /></g><g
           id="path2-4"
           style="opacity:1"><path
             style="baseline-shift:baseline;display:inline;overflow:visible;vector-effect:none;stroke:none;enable-background:accumulate;stop-color:#000000;stop-opacity:1"
             d="m 68.28,10.84 1.93,-3.34 32.18,18.6 -1.93,3.34 z"
             id="path730" /><path
             style="baseline-shift:baseline;display:inline;overflow:visible;vector-effect:none;fill:#3bbced;stroke:none;enable-background:accumulate;stop-color:#000000;stop-opacity:1"
             d="m 70.027344,6.8164062 -2.429688,4.2070318 33.044924,19.099609 2.42969,-4.205078 z M 70.392578,8.1835938 101.70703,26.283203 100.27734,28.757812 68.962891,10.65625 Z"
             id="path731" /></g><g
           id="path3-7"
           style="opacity:1"><path
             style="baseline-shift:baseline;display:inline;overflow:visible;vector-effect:none;stroke:none;enable-background:accumulate;stop-color:#000000;stop-opacity:1"
             d="M 108.08,29.49 V 25.63 H 19.92 v 3.86 z"
             id="path733" /><path
             style="baseline-shift:baseline;display:inline;overflow:visible;vector-effect:none;fill:#3bbced;stroke:none;enable-background:accumulate;stop-color:#000000;stop-opacity:1"
             d="m 19.419922,25.130859 v 4.859375 h 89.160158 v -4.859375 z m 1,1 h 87.160158 v 2.859375 H 20.419922 Z"
             id="path734" /></g><g
           id="path4"
           style="opacity:1"><path
             style="baseline-shift:baseline;display:inline;overflow:visible;vector-effect:none;stroke:none;enable-background:accumulate;stop-color:#000000;stop-opacity:1"
             d="M 73.17,84.01 V 26.8 h 3.86 V 86.78 C 76,85.61 74.68,84.76 73.17,84.01 Z M 66.59,83.02 V 2.32 h 3.86 v 81.17 c -1.09,-0.52 -3.72,-0.47 -3.86,-0.47 z m -36.55,8.05 c -4.7,-3.48 -7.81,-9.04 -7.81,-15.35 0,-3.34 0.89,-6.64 2.54,-9.51 H 57.7 c 1.69,2.87 2.54,6.17 2.54,9.51 0,2.92 -0.38,5.65 -1.55,8.1 -2.49,-2.4 -6.16,-3.44 -9.88,-3.44 -6.59,0 -12.23,4.1 -13.69,10.22 -0.52,-0.05 -0.85,-0.09 -1.36,-0.09 -1.28,0.04 -2.5,0.23 -3.72,0.56 z M 46.22,43.52 h -9.97 v 10.03 h 9.97 z m -11.25,0 H 25 v 10.03 h 9.97 z m 0,11.16 H 25 v 10.03 h 9.97 z m 11.25,0 h -9.97 v 10.03 h 9.97 z m 11.19,0 h -9.97 v 10.03 h 9.97 z m 0,-16.53 h -9.97 v 10.03 h 9.97 z"
             id="path736" /><path
             style="baseline-shift:baseline;display:inline;overflow:visible;vector-effect:none;fill:#3bbced;stroke:none;enable-background:accumulate;stop-color:#000000;stop-opacity:1"
             d="M 66.089844,1.8203125 V 83.519531 h 0.5 c 0.129524,0 0.753168,-0.01192 1.541015,0.03906 0.787847,0.05098 1.705188,0.192784 2.103516,0.382812 L 70.949219,84.2832 V 1.8203125 Z m 1,1 h 2.859375 V 82.900391 c -0.573021,-0.14867 -1.161392,-0.3015 -1.753907,-0.339844 -0.5747,-0.03719 -0.821592,-0.02757 -1.105468,-0.02734 z m 5.580078,23.4804685 v 58.019531 l 0.277344,0.136719 c 1.479176,0.73469 2.737666,1.553173 3.707031,2.654297 l 0.875,0.994141 V 26.300781 Z m 1,1 h 2.859375 v 58.375 C 75.676875,84.920455 74.730267,84.26968 73.669922,83.724609 Z M 46.939453,37.650391 V 48.679687 H 57.910156 V 37.650391 Z m 1,1 h 8.970703 v 9.029296 H 47.939453 Z M 24.5,43.019531 v 11.03125 h 10.970703 v -11.03125 z m 11.25,0 v 11.03125 h 10.970703 v -11.03125 z m -10.25,1 h 8.970703 v 9.03125 H 25.5 Z m 11.25,0 h 8.970703 v 9.03125 H 36.75 Z M 24.5,54.179687 v 11.03125 h 10.970703 v -11.03125 z m 11.25,0 v 11.03125 h 10.970703 v -11.03125 z m 11.189453,0 v 11.03125 h 10.970703 v -11.03125 z m -21.439453,1 h 8.970703 v 9.03125 H 25.5 Z m 11.25,0 h 8.970703 v 9.03125 H 36.75 Z m 11.189453,0 h 8.970703 v 9.03125 h -8.970703 z m -23.458984,10.53125 -0.144532,0.25 c -1.693821,2.946223 -2.605468,6.330944 -2.605468,9.759766 0,6.47429 3.191801,12.183163 8.011718,15.751953 l 0.195313,0.142578 0.232422,-0.0625 c 1.184337,-0.320353 2.3625,-0.503937 3.601562,-0.542968 0.476402,6.53e-4 0.780222,0.03784 1.300782,0.08789 l 0.433593,0.04102 0.09961,-0.421875 c 1.404251,-5.886315 6.822463,-9.835938 13.205078,-9.835938 3.62681,0 7.167986,1.019101 9.533203,3.298828 l 0.498047,0.482422 0.298828,-0.626953 c 1.2141,-2.542347 1.599609,-5.351074 1.599609,-8.314453 0,-3.42483 -0.871536,-6.812432 -2.609375,-9.763672 l -0.144531,-0.246094 z m 0.61914,1 h 32.273438 c 1.552316,2.733712 2.367187,5.845305 2.367187,9.009766 0,2.645657 -0.385629,5.072025 -1.3125,7.283203 -2.580314,-2.153539 -6.072435,-3.123047 -9.617187,-3.123047 -6.638273,0 -12.322793,4.089622 -14,10.197266 -0.340529,-0.03266 -0.650722,-0.06836 -1.050781,-0.06836 h -0.0078 -0.0078 c -1.217971,0.03806 -2.379946,0.240347 -3.539063,0.533203 -4.498053,-3.397544 -7.474609,-8.742303 -7.474609,-14.822266 0,-3.159367 0.848971,-6.272017 2.36914,-9.009766 z"
             id="path737" /></g><g
           id="path5"
           style="opacity:1"><path
             style="baseline-shift:baseline;display:inline;overflow:visible;vector-effect:none;stroke:none;enable-background:accumulate;stop-color:#000000;stop-opacity:1"
             d="m 36.76,92.58 c 1.36,-5.79 6.59,-10.12 12.8,-10.12 4,0 7.57,1.79 10.02,4.62 2.12,-1.46 4.66,-2.31 7.43,-2.31 7.24,0 13.12,5.88 13.12,13.14 0,1.51 -0.23,2.92 -0.7,4.28 1.6,2.17 2.59,4.9 2.59,7.82 0,7.25 -5.88,13.14 -13.13,13.14 -3.2,0 -6.12,-1.13 -8.37,-3.01 -2.4,3.34 -6.3,5.56 -10.73,5.56 -5.08,0 -9.5,-2.92 -11.71,-7.16 -0.89,0.19 -1.79,0.28 -2.73,0.28 -7.24,0 -13.17,-5.89 -13.17,-13.14 0,-7.25 5.88,-13.14 13.17,-13.14 0.47,-0.05 0.94,-0.05 1.41,0.04 z"
             id="path739" /><path
             style="baseline-shift:baseline;display:inline;overflow:visible;vector-effect:none;fill:#3bbced;stroke:none;enable-background:accumulate;stop-color:#000000;stop-opacity:1"
             d="m 49.560547,81.960937 c -6.293246,0 -11.56295,4.31307 -13.123047,10.117188 -0.380872,-0.03628 -0.762573,-0.07354 -1.128906,-0.03516 -7.539885,0.02268 -13.628907,6.130346 -13.628907,13.636725 0,7.52264 6.158744,13.64062 13.669922,13.64062 0.855357,0 1.676775,-0.10379 2.494141,-0.25586 2.345067,4.22604 6.801867,7.13477 11.945312,7.13477 4.433648,0 8.326112,-2.17235 10.832032,-5.43164 2.282634,1.77017 5.127867,2.88281 8.269531,2.88281 7.520805,0 13.628906,-6.12028 13.628906,-13.64062 0,-2.94726 -0.997816,-5.68448 -2.576172,-7.9043 0.434866,-1.34035 0.6875,-2.721693 0.6875,-4.195318 0,-7.529972 -6.110375,-13.640625 -13.621093,-13.640625 -2.721954,0 -5.20862,0.840968 -7.335938,2.212891 -2.528865,-2.762648 -6.10445,-4.521485 -10.113281,-4.521485 z m 0,1 c 3.850833,0 7.279655,1.720105 9.640625,4.447266 l 0.292969,0.337891 0.36914,-0.253907 c 2.041014,-1.405603 4.478771,-2.222656 7.146485,-2.222656 6.969281,0 12.621093,5.650598 12.621093,12.640625 0,1.459228 -0.222227,2.810434 -0.673828,4.117184 l -0.08594,0.24805 0.15625,0.21094 c 1.539592,2.08807 2.492187,4.71645 2.492187,7.52344 0,6.97965 -5.649711,12.64062 -12.628906,12.64062 -3.082292,0 -5.88847,-1.0878 -8.050781,-2.89453 l -0.41211,-0.34375 -0.314453,0.43555 c -2.311481,3.21681 -6.061261,5.35156 -10.324219,5.35156 -4.888398,0 -9.138433,-2.8095 -11.265625,-6.89063 l -0.175781,-0.33789 -0.371094,0.0801 c -0.85422,0.18236 -1.718868,0.26953 -2.626953,0.26953 -6.968821,0 -12.669922,-5.66327 -12.669922,-12.64062 0,-6.979658 5.649241,-12.640628 12.669922,-12.640628 h 0.02734 l 0.02539,-0.002 c 0.435132,-0.04629 0.854145,-0.04522 1.263672,0.0332 l 0.470703,0.0918 0.109375,-0.46875 C 38.553525,87.127101 43.58296,82.96091 49.560539,82.96091 Z"
             id="path740" /></g></g></g></g></svg>
