<?xml version="1.0" encoding="UTF-8" standalone="no"?>
<!-- Created with Inkscape (http://www.inkscape.org/) -->

<svg
   width="23.34856mm"
   height="23.348566mm"
   viewBox="0 0 88.246528 88.246551"
   version="1.1"
   id="svg1"
   xml:space="preserve"
   xmlns:inkscape="http://www.inkscape.org/namespaces/inkscape"
   xmlns:sodipodi="http://sodipodi.sourceforge.net/DTD/sodipodi-0.dtd"
   xmlns="http://www.w3.org/2000/svg"
   xmlns:svg="http://www.w3.org/2000/svg"><sodipodi:namedview
     id="namedview1"
     pagecolor="#ffffff"
     bordercolor="#000000"
     borderopacity="0.25"
     inkscape:showpageshadow="2"
     inkscape:pageopacity="0.0"
     inkscape:pagecheckerboard="0"
     inkscape:deskcolor="#d1d1d1"
     inkscape:document-units="mm"
     showguides="true"
     inkscape:export-bgcolor="#ffffff00"><inkscape:page
       x="0"
       y="0"
       width="88.246529"
       height="88.246552"
       id="page2"
       margin="0"
       bleed="0" /></sodipodi:namedview><defs
     id="defs1" /><g
     inkscape:label="Camada 1"
     inkscape:groupmode="layer"
     id="layer1"
     transform="translate(-801.39859,-305.31025)"><g
       id="g713"><rect
         id="rect17"
         width="88.246559"
         height="88.246559"
         x="801.39856"
         y="305.31024"
         rx="17.154173"
         ry="0"
         style="fill:#019bc6;fill-opacity:1;stroke:none;stroke-width:0.778285;stroke-opacity:1" /><g
         style="fill:#ffffff;fill-opacity:1;stroke:#3bbced;stroke-opacity:1"
         id="g5"
         transform="matrix(0.53698701,0,0,0.53698701,811.15467,315.06098)"><path
           d="m 49.32,29.44 h -1.88 v 9.75 h 1.88 z m 8.09,0 h -1.88 v 9.75 h 1.88 z M 68.47,10.84 66.54,7.5 34.36,26.1 l 1.93,3.34 z"
           id="path1-25"
           style="fill:#ffffff;fill-opacity:1;stroke:#3bbced;stroke-opacity:1" /><path
           d="m 68.28,10.84 1.93,-3.34 32.18,18.6 -1.93,3.34 z"
           id="path2-4"
           style="fill:#ffffff;fill-opacity:1;stroke:#3bbced;stroke-opacity:1" /><path
           d="M 108.08,29.49 V 25.63 H 19.92 v 3.86 z"
           id="path3-7"
           style="fill:#ffffff;fill-opacity:1;stroke:#3bbced;stroke-opacity:1" /><path
           d="M 73.17,84.01 V 26.8 h 3.86 V 86.78 C 76,85.61 74.68,84.76 73.17,84.01 Z M 66.59,83.02 V 2.32 h 3.86 v 81.17 c -1.09,-0.52 -3.72,-0.47 -3.86,-0.47 z m -36.55,8.05 c -4.7,-3.48 -7.81,-9.04 -7.81,-15.35 0,-3.34 0.89,-6.64 2.54,-9.51 H 57.7 c 1.69,2.87 2.54,6.17 2.54,9.51 0,2.92 -0.38,5.65 -1.55,8.1 -2.49,-2.4 -6.16,-3.44 -9.88,-3.44 -6.59,0 -12.23,4.1 -13.69,10.22 -0.52,-0.05 -0.85,-0.09 -1.36,-0.09 -1.28,0.04 -2.5,0.23 -3.72,0.56 z M 46.22,43.52 h -9.97 v 10.03 h 9.97 z m -11.25,0 H 25 v 10.03 h 9.97 z m 0,11.16 H 25 v 10.03 h 9.97 z m 11.25,0 h -9.97 v 10.03 h 9.97 z m 11.19,0 h -9.97 v 10.03 h 9.97 z m 0,-16.53 h -9.97 v 10.03 h 9.97 z"
           id="path4"
           style="fill:#ffffff;fill-opacity:1;stroke:#3bbced;stroke-opacity:1" /><path
           d="m 36.76,92.58 c 1.36,-5.79 6.59,-10.12 12.8,-10.12 4,0 7.57,1.79 10.02,4.62 2.12,-1.46 4.66,-2.31 7.43,-2.31 7.24,0 13.12,5.88 13.12,13.14 0,1.51 -0.23,2.92 -0.7,4.28 1.6,2.17 2.59,4.9 2.59,7.82 0,7.25 -5.88,13.14 -13.13,13.14 -3.2,0 -6.12,-1.13 -8.37,-3.01 -2.4,3.34 -6.3,5.56 -10.73,5.56 -5.08,0 -9.5,-2.92 -11.71,-7.16 -0.89,0.19 -1.79,0.28 -2.73,0.28 -7.24,0 -13.17,-5.89 -13.17,-13.14 0,-7.25 5.88,-13.14 13.17,-13.14 0.47,-0.05 0.94,-0.05 1.41,0.04 z"
           id="path5"
           style="fill:#ffffff;fill-opacity:1;stroke:#3bbced;stroke-opacity:1" /></g></g></g></svg>
