<?xml version="1.0" encoding="UTF-8" standalone="no"?>
<!-- Created with Inkscape (http://www.inkscape.org/) -->

<svg
   width="23.34856mm"
   height="23.348572mm"
   viewBox="0 0 88.246528 88.246573"
   version="1.1"
   id="svg1"
   xml:space="preserve"
   xmlns:inkscape="http://www.inkscape.org/namespaces/inkscape"
   xmlns:sodipodi="http://sodipodi.sourceforge.net/DTD/sodipodi-0.dtd"
   xmlns="http://www.w3.org/2000/svg"
   xmlns:svg="http://www.w3.org/2000/svg"><sodipodi:namedview
     id="namedview1"
     pagecolor="#ffffff"
     bordercolor="#000000"
     borderopacity="0.25"
     inkscape:showpageshadow="2"
     inkscape:pageopacity="0.0"
     inkscape:pagecheckerboard="0"
     inkscape:deskcolor="#d1d1d1"
     inkscape:document-units="mm"
     showguides="true"
     inkscape:export-bgcolor="#ffffff00"><inkscape:page
       x="0"
       y="-2.0136887e-13"
       width="88.246529"
       height="88.246567"
       id="page2"
       margin="0"
       bleed="0" /></sodipodi:namedview><defs
     id="defs1" /><g
     inkscape:label="Camada 1"
     inkscape:groupmode="layer"
     id="layer1"
     transform="translate(-930.11753,-178.56783)"><g
       id="g706"><rect
         id="rect31"
         width="88.246559"
         height="88.246559"
         x="930.11743"
         y="178.56783"
         rx="17.154173"
         ry="0"
         style="fill:#ff6600;fill-opacity:1;stroke-width:0.778285"
         inkscape:label="rect31" /><path
         fill="#f37036"
         d="m 973.69763,189.36879 c -6.9427,0.10739 -13.9101,2.37778 -19.8282,6.94861 -14.5659,11.25149 -17.2535,32.18164 -6.0015,46.74741 11.2537,14.5647 32.1855,17.25017 46.7491,5.99653 14.55987,-11.25095 17.24697,-32.17519 5.99917,-46.73881 -6.67847,-8.64871 -16.77167,-13.11108 -26.91857,-12.95374 z m 15.5055,12.42534 a 4.9778698,4.9778698 0 0 1 2.9996,1.0278 l -4.3324,4.35872 a 0.45106911,0.45106911 0 0 0 -0.041,0.0526 0.44569924,0.44569924 0 0 0 -0.1284,0.29534 0.44677321,0.44677321 0 0 0 0.1681,0.34904 v 0 l 3.2756,3.27562 a 4.8565107,4.8565107 0 0 1 -5.3849,-1.02726 c -1.3886,-1.39616 -1.7913,-3.49256 -1.0487,-5.31133 0.7427,-1.82039 2.5131,-3.00982 4.4908,-3.02056 z m 3.8233,1.84294 a 4.763075,4.763075 0 0 1 1.0917,3.04687 4.9134313,4.9134313 0 0 1 -1.4434,3.47108 5.3639634,5.3639634 0 0 1 -0.5896,0.4806 l -2.6436,-2.60277 -0.5171,-0.51712 0.1423,-0.1423 3.9592,-3.73743 z m -0.1965,2.25159 a 0.41723893,0.41723893 0 0 0 -0.2953,0.0166 0.39253752,0.39253752 0 0 0 -0.1933,0.22875 0.39200054,0.39200054 0 0 0 0.027,0.30018 1.1953332,1.1953332 0 0 1 -0.138,1.2501 0.3436717,0.3436717 0 0 0 -0.1047,0.26205 c 0,0.0988 0.038,0.19332 0.1047,0.2642 a 0.31145248,0.31145248 0 0 0 0.2223,0 0.36515118,0.36515118 0 0 0 0.3609,-0.11115 1.9186547,1.9186547 0 0 0 0.2497,-2.0282 v 0.002 a 0.41723893,0.41723893 0 0 0 -0.2331,-0.18472 z m -10.3515,3.61016 a 2.9985356,2.9985356 0 0 1 1.7774,0.65835 2.5539103,2.5539103 0 0 0 -1.4396,0.71956 l -12.2471,12.19229 -2.4035,-2.40355 c 6.3514,-6.32141 10.2349,-9.62335 12.6492,-10.70537 a 2.9985356,2.9985356 0 0 1 1.6636,-0.46181 z m 2.1292,1.58948 a 1.5545775,1.5545775 0 0 1 1.097,0.45322 1.4960459,1.4960459 0 0 1 0.472,1.13895 1.5406158,1.5406158 0 0 1 -0.5289,1.11156 l -13.0219,11.33365 -1.4053,-1.40529 12.29,-12.17887 a 1.5545775,1.5545775 0 0 1 1.0971,-0.45268 z m 1.6077,3.59674 c -0.9075,3.59889 -5.7173,8.47527 -10.7328,13.21364 l -2.0282,-2.02605 12.7615,-11.18759 z m -18.758,6.69033 0.1471,0.14498 1.8864,1.88644 -5.1711,1.10619 z m 3.1107,3.136 v 0.002 l 0.6272,0.6417 a 0.5831679,0.5831679 0 0 0 0.01,0.0451 l 0.042,0.006 0.1332,0.13639 0.4403,0.45107 -2.8917,0.35441 1.6378,-1.63781 z m 2.0766,2.18876 1.9213,1.92026 a 68.193056,68.193056 0 0 1 -13.8838,8.94406 0.77326131,0.77326131 0 0 0 -0.4172,0.88764 l 0.5558,2.41644 a 0.16646598,0.16646598 0 0 1 0,0.19493 0.16646598,0.16646598 0 0 1 -0.2224,0 l -3.2767,-3.30355 10.0997,-10.24786 5.2238,-0.81192 z m -16.0737,11.78149 0.4667,0.43711 2.4121,2.41215 -5.3784,-0.34797 2.4996,-2.50182 z"
         id="path1-84"
         style="fill:#ffffff;fill-opacity:1;stroke-width:0.536987" /></g></g></svg>
