<?xml version="1.0" encoding="UTF-8" standalone="no"?>
<!-- Created with Inkscape (http://www.inkscape.org/) -->

<svg
   width="23.34856mm"
   height="23.348566mm"
   viewBox="0 0 88.246528 88.246551"
   version="1.1"
   id="svg1"
   xml:space="preserve"
   xmlns:inkscape="http://www.inkscape.org/namespaces/inkscape"
   xmlns:sodipodi="http://sodipodi.sourceforge.net/DTD/sodipodi-0.dtd"
   xmlns="http://www.w3.org/2000/svg"
   xmlns:svg="http://www.w3.org/2000/svg"><sodipodi:namedview
     id="namedview1"
     pagecolor="#ffffff"
     bordercolor="#000000"
     borderopacity="0.25"
     inkscape:showpageshadow="2"
     inkscape:pageopacity="0.0"
     inkscape:pagecheckerboard="0"
     inkscape:deskcolor="#d1d1d1"
     inkscape:document-units="mm"
     showguides="true"
     inkscape:export-bgcolor="#ffffff00"><inkscape:page
       x="0"
       y="0"
       width="88.246529"
       height="88.246552"
       id="page2"
       margin="0"
       bleed="0" /></sodipodi:namedview><defs
     id="defs1" /><g
     inkscape:label="Camada 1"
     inkscape:groupmode="layer"
     id="layer1"
     transform="translate(-676.63344,-305.30985)"><g
       id="g712"><rect
         id="rect25"
         width="88.246559"
         height="88.246559"
         x="676.63342"
         y="305.30984"
         rx="17.154173"
         ry="0"
         style="fill:#336791;fill-opacity:1;stroke-width:0.778285" /><path
         fill-rule="evenodd"
         clip-rule="evenodd"
         fill="#336791"
         d="m 752.48643,356.33303 c -0.2417,-1.56693 -1.5578,-2.59311 -3.0888,-2.66239 -0.5541,-0.0252 -1.1169,0.0328 -1.6695,0.10311 -0.6674,0.0848 -1.3269,0.2352 -1.9927,0.33454 -0.4602,0.0687 -0.9269,0.10042 -1.3865,0.14767 l -0.011,-0.0596 c 0.8581,-1.62063 1.7522,-3.22354 2.5641,-4.86726 0.6224,-1.26084 1.1551,-2.56733 1.7055,-3.86308 0.9107,-2.14687 1.6383,-4.36033 2.2408,-6.60977 0.5773,-2.15386 1.0713,-4.33134 1.2265,-6.56574 0.062,-0.89248 0.1053,-1.78871 0.1004,-2.68225 -0.01,-0.71259 -0.081,-1.42624 -0.1525,-2.13667 -0.081,-0.81408 -0.3265,-1.58573 -0.6669,-2.32839 -0.4489,-0.97839 -1.1449,-1.78118 -1.8773,-2.5437 -0.5864,-0.61056 -1.2313,-1.16688 -1.8709,-1.72266 -0.9118,-0.79313 -1.9369,-1.42624 -3.0017,-1.98846 a 17.280243,17.280243 0 0 0 -3.8073,-1.47672 c -0.8017,-0.20459 -1.6217,-0.35656 -2.4336,-0.51872 -0.2921,-0.0591 -0.5848,-0.18097 -0.8769,-0.18097 h -5.4993 c -0.1987,0 -0.3958,0.10257 -0.5961,0.12512 -1.3166,0.14659 -2.6178,0.39468 -3.8813,0.78614 -0.4725,0.1466 -0.9043,0.0542 -1.3532,0.0129 -0.3442,-0.0317 -0.6825,-0.12404 -1.0267,-0.14123 -1.3113,-0.0655 -2.6243,-0.16163 -3.9351,-0.14767 -1.256,0.0129 -2.4991,0.21963 -3.7148,0.56491 -1.0176,0.2889 -2.0132,0.6417 -2.925,1.17654 -0.3904,0.22876 -0.6997,0.1858 -1.1035,0.0693 -1.357,-0.39146 -2.7236,-0.7593 -4.1021,-1.06806 -0.8591,-0.19225 -1.7425,-0.28783 -2.6199,-0.37965 a 30.723176,30.723176 0 0 0 -2.5335,-0.15788 c -0.8259,-0.0177 -1.6577,-0.0172 -2.4798,0.0558 a 16.195529,16.195529 0 0 0 -3.8438,0.81246 12.787272,12.787272 0 0 0 -3.8051,2.07545 c -1.1636,0.92094 -2.0969,2.04539 -2.8476,3.32933 -0.791,1.35482 -1.3334,2.80522 -1.6706,4.32866 -0.1826,0.82534 -0.298,1.67378 -0.4231,2.51202 -0.039,0.26098 0.393,0.52195 -0.1439,0.78185 v 3.64829 c 0.5369,0.24272 0.1117,0.4849 0.1428,0.72816 0.075,0.58478 0.1407,1.17439 0.2395,1.75487 0.1563,0.91879 0.3415,1.83489 0.5305,2.74776 a 174.44561,174.44561 0 0 0 0.8302,3.81852 c 0.2127,0.92362 0.4548,1.84186 0.7083,2.75528 0.3872,1.39509 0.7684,2.79287 1.2061,4.17239 0.4065,1.28179 0.872,2.54532 1.3339,3.80885 0.6395,1.74789 1.4053,3.4394 2.3235,5.06056 0.7942,1.40369 1.7017,2.71823 2.9191,3.79972 0.8022,0.71259 1.6952,1.26031 2.7348,1.53418 0.8168,0.21479 1.647,0.24057 2.4831,0.0693 a 5.8955805,5.8955805 0 0 0 2.5904,-1.24098 c 0.088,-0.072 0.1836,-0.12673 0.2873,0.005 0.3947,0.49993 0.9231,0.8334 1.4756,1.12177 1.4912,0.77755 3.1162,1.0106 4.7669,1.10565 0.3995,0.0231 0.8033,-0.0344 1.206,-0.0456 0.7846,-0.0215 1.5471,-0.17452 2.2973,-0.39147 0.393,-0.11384 0.777,-0.25829 1.177,-0.39307 0.021,0.42583 0.048,0.83609 0.06,1.24635 l 0.056,2.23708 c 0.01,0.34045 0.024,0.68197 0.055,1.02081 0.081,0.87368 0.1606,1.74789 0.2648,2.61889 0.073,0.60035 0.1476,1.20553 0.2889,1.79139 a 20.500017,20.500017 0 0 0 1.1588,3.45175 7.4157907,7.4157907 0 0 0 2.0942,2.78428 c 1.1921,0.9859 2.5894,1.40637 4.0983,1.48423 0.624,0.0327 1.2657,0.002 1.88,-0.10955 a 26.317734,26.317734 0 0 0 2.8928,-0.68466 c 1.9283,-0.58209 3.5951,-1.58733 4.8404,-3.21171 0.7088,-0.92577 1.2909,-1.92725 1.6646,-3.03291 0.3082,-0.91341 0.5988,-1.83596 0.8297,-2.77085 0.1825,-0.73675 0.2727,-1.49658 0.3839,-2.2489 0.074,-0.49779 0.1176,-1.00041 0.1638,-1.50195 0.075,-0.81461 0.152,-1.62868 0.2062,-2.4449 0.038,-0.56813 0.036,-1.13895 0.059,-1.70816 0.01,-0.17344 0.035,-0.34582 0.051,-0.51873 0.015,-0.16002 0.096,-0.21533 0.2589,-0.21264 0.5751,0.009 1.1513,0.0236 1.7248,-0.002 0.6427,-0.029 1.2914,-0.0564 1.924,-0.16271 a 30.362321,30.362321 0 0 0 2.6796,-0.57296 c 1.0433,-0.27279 2.0002,-0.76145 2.9212,-1.31831 1.0729,-0.64814 2.0507,-1.40851 2.8444,-2.38798 0.69,-0.85434 1.017,-1.84186 0.8506,-2.92013 z m -1.8322,0.52732 c -0.035,0.49134 -0.2605,0.91234 -0.587,1.27212 -1.5406,1.69849 -3.4732,2.72897 -5.684,3.23642 -0.8398,0.19224 -1.7065,0.29212 -2.5662,0.3716 a 17.233525,17.233525 0 0 1 -2.2092,0.0521 c -0.5402,-0.0204 -1.0761,-0.14391 -1.6281,-0.22338 -0.055,0.50476 -0.108,1.03047 -0.1719,1.55511 l -0.2572,2.01102 c -0.078,0.6374 -0.1385,1.27695 -0.2185,1.91382 -0.078,0.61807 -0.1762,1.234 -0.2583,1.85206 -0.077,0.57565 -0.1332,1.15399 -0.2186,1.72856 -0.1315,0.88066 -0.2572,1.76347 -0.429,2.63715 -0.2062,1.04444 -0.5225,2.05612 -1.0386,2.998 -0.6293,1.14968 -1.5218,2.02551 -2.6575,2.67419 -1.1706,0.66909 -2.4503,1.01705 -3.7476,1.3081 -0.9183,0.2062 -1.8645,0.24003 -2.7945,0.15626 -1.6131,-0.14606 -2.99,-0.83608 -4.0307,-2.08673 -0.9934,-1.19372 -1.6657,-2.56196 -1.9063,-4.11063 a 33.884955,33.884955 0 0 1 -0.2636,-2.22098 58.030576,58.030576 0 0 1 -0.1606,-2.48088 134.35577,134.35577 0 0 1 -0.1058,-3.15265 c -0.028,-1.29199 -0.038,-2.58398 -0.056,-3.87597 l -0.01,-0.0494 c -0.6573,0.39415 -1.3032,0.82588 -1.9884,1.18137 a 6.6543432,6.6543432 0 0 1 -2.5765,0.72654 c -0.7078,0.0537 -1.4246,0.10257 -2.1292,0.0462 -1.155,-0.0929 -2.309,-0.27386 -3.3432,-0.84253 -0.4194,-0.2309 -0.8571,-0.51175 -1.146,-0.88066 -0.6927,-0.88388 -0.3608,-2.00081 0.6836,-2.53834 0.7217,-0.37213 1.5095,-0.52732 2.2919,-0.70828 a 23.825041,23.825041 0 0 0 2.0196,-0.55256 c 0.6562,-0.2148 1.0702,-0.74695 1.4788,-1.2689 l 0.6476,-0.83287 c -0.2701,-0.0285 -0.5246,-0.0575 -0.7791,-0.0811 -0.7727,-0.073 -1.51,-0.28568 -2.2151,-0.59821 -0.6036,-0.26688 -0.6127,-0.29588 -1.0552,0.18419 -0.7389,0.80226 -1.4574,1.62331 -2.1812,2.439 -0.5327,0.59981 -1.0622,1.20338 -1.5922,1.80481 -0.5252,0.59498 -1.017,1.22379 -1.5825,1.77743 -0.8398,0.82212 -1.852,1.31669 -3.0597,1.26084 -0.7749,-0.0354 -1.4843,-0.30716 -2.1222,-0.75124 -1.3167,-0.91718 -2.2038,-2.20004 -3.0114,-3.54734 -1.0348,-1.72641 -1.829,-3.56559 -2.5088,-5.45525 -0.4704,-1.30595 -0.943,-2.61298 -1.3538,-3.93773 -0.4462,-1.43966 -0.8377,-2.89758 -1.2227,-4.35496 a 84.507258,84.507258 0 0 1 -0.7958,-3.31966 116.05203,116.05203 0 0 1 -0.7862,-3.80133 c -0.16,-0.85864 -0.2529,-1.72963 -0.3823,-2.59418 -0.1745,-1.16526 -0.2067,-2.34126 -0.1434,-3.51136 0.056,-1.0541 0.2078,-2.10553 0.3582,-3.15265 0.2084,-1.44879 0.6857,-2.81597 1.3725,-4.10688 0.4205,-0.79098 0.9425,-1.51001 1.546,-2.17802 0.9908,-1.09653 2.1899,-1.88912 3.5237,-2.48411 0.9322,-0.41562 1.9171,-0.66586 2.9207,-0.86132 1.4896,-0.28998 2.9926,-0.2787 4.4962,-0.24756 0.6573,0.0134 1.3119,0.13318 1.9686,0.19815 1.4139,0.14069 2.7998,0.43818 4.1681,0.80548 0.9972,0.26742 1.974,0.61378 2.9631,0.9145 0.099,0.0301 0.2448,0.0274 0.3259,-0.0258 1.3404,-0.87475 2.8053,-1.45202 4.3631,-1.78226 0.5912,-0.12512 1.2012,-0.17989 1.8058,-0.21856 0.7352,-0.0467 1.4762,-0.0897 2.2097,-0.0473 0.8818,0.0505 1.7592,0.18043 2.6356,0.30071 0.4253,0.058 0.8404,0.20567 1.2667,0.24594 0.2041,0.0193 0.4205,-0.12995 0.6364,-0.17989 1.1002,-0.25399 2.1957,-0.53699 3.3056,-0.73782 0.8265,-0.14928 1.6706,-0.21963 2.511,-0.26796 0.937,-0.0537 1.8811,-0.0929 2.8176,-0.0478 a 19.685945,19.685945 0 0 1 3.5199,0.49564 c 1.4375,0.33454 2.8165,0.82052 4.1273,1.49497 0.9795,0.5037 1.9106,1.08794 2.7488,1.80643 0.5494,0.47148 1.1116,0.93704 1.6078,1.46222 0.6121,0.6476 1.2367,1.29575 1.6206,2.12539 0.2889,0.62559 0.4951,1.2732 0.552,1.9584 0.071,0.85166 0.1568,1.70654 0.1488,2.55928 -0.01,0.81568 -0.1187,1.63083 -0.1976,2.44436 -0.1794,1.85476 -0.5827,3.66924 -1.0724,5.45955 a 62.812446,62.812446 0 0 1 -1.3903,4.38718 c -0.472,1.33227 -1.0165,2.64037 -1.5669,3.9431 a 42.996552,42.996552 0 0 1 -1.3199,2.84764 c -0.9005,1.76454 -1.837,3.51082 -2.9201,5.1728 -0.1869,0.28729 -0.3641,0.58156 -0.5467,0.87475 0.4726,0.31897 1.0079,0.4312 1.5471,0.4892 0.5128,0.0558 1.0358,0.0891 1.5481,0.051 0.82,-0.0607 1.6373,-0.17774 2.4524,-0.29212 0.8077,-0.11277 1.5992,-0.3426 2.4283,-0.28192 0.828,0.0601 1.4203,0.68949 1.3639,1.46544 z m -11.8207,-1.80052 c -0.3517,-0.45429 -0.7105,-0.90321 -1.0547,-1.36287 -0.5402,-0.72171 -0.9284,-1.52773 -1.3183,-2.33751 -0.3694,-0.76735 -0.8226,-1.4939 -1.2119,-2.25266 -0.6793,-1.32367 -1.371,-2.64305 -1.9966,-3.9925 -0.7867,-1.69526 -1.4069,-3.45068 -1.6023,-5.32852 -0.083,-0.79474 -0.1037,-1.58841 0.057,-2.37563 0.2572,-1.25709 0.9139,-2.24031 2.018,-2.91476 1.024,-0.62559 2.1651,-0.8275 3.3341,-0.89087 0.7255,-0.0392 1.4542,-0.007 2.2071,-0.007 l -0.025,-0.12726 c -0.4682,-0.97893 -0.9059,-1.9745 -1.4182,-2.93034 -0.7228,-1.34891 -1.6474,-2.56519 -2.6774,-3.69286 -0.763,-0.83502 -1.5895,-1.60989 -2.4948,-2.29455 -0.8904,-0.67392 -1.8285,-1.27588 -2.8294,-1.7683 -1.1937,-0.58693 -2.4369,-1.04068 -3.7412,-1.33012 -1.2533,-0.27816 -2.5147,-0.44838 -3.8003,-0.46234 -1.0965,-0.0118 -2.186,0.0376 -3.2541,0.28514 -1.612,0.3732 -3.0866,1.03692 -4.3695,2.11197 a 11.353517,11.353517 0 0 0 -1.8885,2.02444 c -0.6423,0.88227 -1.1605,1.83489 -1.6035,2.83368 -0.6079,1.3704 -1.0251,2.79663 -1.3102,4.26261 -0.1429,0.73084 -0.2546,1.46812 -0.3684,2.20487 -0.04,0.25775 -0.043,0.52141 -0.066,0.81675 0.1982,-0.1031 0.341,-0.18257 0.4871,-0.25345 l 0.4752,-0.21319 c 1.6072,-0.73513 3.2724,-1.20822 5.0622,-1.15398 0.7604,0.0231 1.488,0.17344 2.1641,0.50638 1.2968,0.63955 2.0555,1.72695 2.3853,3.10324 0.2276,0.94993 0.3834,1.91866 0.5348,2.8847 0.1187,0.75446 0.24,1.51699 0.254,2.2779 0.02,1.1121 -0.037,2.22634 -0.097,3.33791 a 9.3360563,9.3360563 0 0 1 -0.58,2.76333 c -0.6014,1.60721 -1.2715,3.18809 -1.8977,4.78617 -0.2067,0.52786 -0.3657,1.07451 -0.5611,1.65499 0.3018,0 0.5466,-0.002 0.7915,0.001 0.096,0.002 0.1933,0.004 0.2857,0.0263 0.7195,0.16969 1.3435,0.49564 1.8553,1.04927 0.6825,0.73675 1.0406,1.59646 1.0589,2.5915 0.01,0.55149 -0.048,1.10458 -0.045,1.65607 0.011,2.57002 0.031,5.14004 0.052,7.70952 0.01,0.41992 0.025,0.84038 0.055,1.25977 0.063,0.87797 0.1262,1.75648 0.2121,2.63231 0.06,0.62129 0.1439,1.24151 0.2421,1.85851 0.1391,0.87421 0.537,1.65231 0.9886,2.39604 0.3888,0.63955 0.8941,1.18298 1.56,1.5578 1.1314,0.63686 2.3498,0.69002 3.5779,0.45536 0.8297,-0.15841 1.6443,-0.41294 2.4498,-0.67553 a 5.4386045,5.4386045 0 0 0 2.1141,-1.26407 c 0.5644,-0.54719 0.965,-1.21412 1.2351,-1.95033 0.5241,-1.42785 0.6873,-2.93142 0.9042,-4.42317 0.081,-0.55846 0.1515,-1.11854 0.2256,-1.67807 0.084,-0.63687 0.1697,-1.2732 0.2513,-1.90953 0.06,-0.47416 0.1149,-0.94939 0.1729,-1.42355 0.083,-0.6809 0.1702,-1.36127 0.2492,-2.0427 0.061,-0.52679 0.1122,-1.05572 0.1659,-1.58358 0.069,-0.67445 0.1439,-1.34891 0.2035,-2.02444 0.046,-0.51282 0.027,-1.03477 0.1181,-1.53793 0.167,-0.92254 0.6031,-1.70762 1.4209,-2.21507 0.3421,-0.21211 0.7282,-0.35173 1.1078,-0.53108 z m -30.9289,-3.78683 a 9.4112345,9.4112345 0 0 1 -0.727,-3.01894 c -0.069,-0.98 0.048,-1.95625 0.1482,-2.93195 0.098,-0.9451 0.1788,-1.89449 0.2072,-2.84389 0.047,-1.56048 -0.058,-3.11882 -0.1326,-4.67823 -0.045,-0.92845 0.063,-1.86817 0.1455,-2.79877 0.075,-0.83824 0.1676,-1.67862 0.326,-2.50451 0.2658,-1.38596 0.6186,-2.75206 1.1201,-4.07627 0.4763,-1.25547 1.0235,-2.4782 1.7963,-3.57902 0.5294,-0.75501 1.1303,-1.46061 1.7076,-2.19843 l -0.1713,-0.0607 c -1.8784,-0.59659 -3.7874,-1.06269 -5.7506,-1.26621 -0.9285,-0.0961 -1.8601,-0.15251 -2.7913,-0.20782 -0.2857,-0.0172 -0.5756,0.0215 -0.8624,0.0489 -0.7099,0.0677 -1.4284,0.0945 -2.127,0.22768 -1.1889,0.22607 -2.3294,0.60626 -3.3857,1.22541 -0.9483,0.55578 -1.7447,1.27427 -2.4116,2.13613 -0.7367,0.95154 -1.2324,2.02767 -1.5884,3.17521 -0.4205,1.35374 -0.6208,2.74669 -0.675,4.15252 -0.047,1.23239 -0.071,2.47175 0.1418,3.6993 0.1584,0.91396 0.2642,1.83757 0.4387,2.74777 0.2379,1.24097 0.4929,2.47927 0.7877,3.70736 0.4216,1.75809 0.8426,3.51887 1.342,5.25549 0.4779,1.66412 1.017,3.31321 1.6013,4.94243 0.4779,1.32958 1.0305,2.63445 1.6125,3.92215 0.3792,0.83877 0.8383,1.64586 1.3194,2.43148 0.5118,0.83394 1.0939,1.62546 1.8838,2.23064 0.9966,0.76413 1.7683,0.88281 2.781,0.0446 0.4339,-0.35924 0.8007,-0.8028 1.1782,-1.2254 0.5998,-0.67124 1.1787,-1.36073 1.7758,-2.03411 0.7604,-0.85811 1.5304,-1.70708 2.2945,-2.56089 0.1617,-0.18043 0.3169,-0.36623 0.4742,-0.5488 l -0.2599,-0.22822 a 9.5019853,9.5019853 0 0 1 -2.199,-3.18487 z m 28.8298,-25.54394 a 33.018258,33.018258 0 0 1 1.7769,2.2575 c 1.074,1.50839 1.9321,3.13707 2.5641,4.8796 0.2798,0.76789 0.5032,1.5433 0.4033,2.38368 -0.069,0.58854 -0.063,1.18567 -0.1155,1.77743 -0.043,0.49242 -0.1213,0.98215 -0.1852,1.47295 -0.096,0.73997 -0.2342,1.47779 -0.2755,2.22098 -0.039,0.70721 0,1.42194 0.046,2.13077 0.045,0.7201 0.1423,1.43697 0.2083,2.156 0.075,0.81515 0.1751,1.63029 0.1982,2.44705 0.019,0.6707 -0.041,1.34569 -0.099,2.01531 -0.07,0.80656 -0.2744,1.58734 -0.5794,2.33643 -0.2142,0.52732 -0.4704,1.03854 -0.7126,1.56639 l 0.097,0.10311 0.1477,0.11437 0.1487,-0.26634 a 50.273263,50.273263 0 0 0 3.3412,-6.17159 100.0584,100.0584 0 0 0 1.7651,-4.17024 c 0.872,-2.18232 1.5621,-4.42585 2.0958,-6.71395 0.2395,-1.02726 0.4226,-2.07009 0.5853,-3.11292 0.1268,-0.81514 0.2325,-1.63996 0.2562,-2.46262 0.025,-0.8726 -0.023,-1.75219 -0.1037,-2.62264 -0.06,-0.65728 -0.2223,-1.31884 -0.6341,-1.85315 -0.6622,-0.86026 -1.3769,-1.68292 -2.2559,-2.33375 -0.74,-0.54826 -1.4773,-1.11049 -2.2715,-1.57176 -1.2592,-0.7303 -2.6221,-1.21681 -4.0462,-1.54814 -1.3897,-0.3238 -2.7977,-0.46342 -4.2148,-0.49295 -0.8355,-0.0177 -1.6749,0.072 -2.5088,0.15036 -0.7555,0.0709 -1.5062,0.1917 -2.2672,0.29158 0.8163,0.45913 1.6212,0.86724 2.3805,1.34838 1.5965,1.01115 3.027,2.22796 4.2551,3.66816 z m -20.7411,28.31103 c 0.516,-1.65016 1.2189,-3.22568 1.8998,-4.81086 0.5521,-1.28555 0.8538,-2.63983 0.9543,-4.03063 0.05,-0.68573 0.036,-1.38006 0,-2.06794 a 23.964657,23.964657 0 0 0 -0.2105,-2.28702 c -0.1429,-0.96712 -0.3056,-1.93477 -0.5343,-2.88416 -0.2481,-1.02726 -0.8737,-1.74252 -1.9455,-2.00618 -0.653,-0.16056 -1.3017,-0.15412 -1.9617,-0.0499 -1.612,0.25399 -3.0876,0.8479 -4.4623,1.71782 -0.2766,0.17505 -0.4285,0.31628 -0.3807,0.71312 0.1009,0.84038 0.1229,1.69419 0.1192,2.54263 -0.01,1.2007 -0.056,2.4014 -0.1021,3.60157 -0.015,0.39093 -0.071,0.77971 -0.1133,1.16902 -0.064,0.59606 -0.1885,1.19158 -0.1847,1.78656 0.01,0.61324 0.067,1.24097 0.2153,1.83488 0.4726,1.88322 1.4735,3.42437 3.114,4.51177 1.009,0.66855 2.1254,1.00577 3.3508,1.06968 0.083,-0.28139 0.1574,-0.54719 0.2395,-0.81032 z m -1.9257,-16.15633 c -0.2158,-0.45321 -0.092,-0.82857 0.4081,-1.00255 0.1219,-0.043 0.2476,-0.0886 0.3743,-0.10095 0.174,-0.0172 0.3512,-0.004 0.5273,-0.004 0.6348,0.003 1.2453,0.0918 1.7694,0.49564 0.3362,0.25883 0.4264,0.6025 0.2089,0.9553 -0.3088,0.50047 -0.7797,0.75178 -1.358,0.80011 -0.9113,0.0757 -1.5509,-0.34904 -1.93,-1.14325 z m 25.2599,-0.16539 c 0.073,-0.60357 0.1316,-1.20876 0.2062,-1.81233 0.03,-0.24272 -0.098,-0.30823 -0.3012,-0.31414 -0.6401,-0.0177 -1.2802,-0.0403 -1.9203,-0.0521 -0.7217,-0.0129 -1.4241,0.1031 -2.0921,0.3775 -0.7411,0.30501 -1.3054,0.79366 -1.5358,1.60022 a 4.8554367,4.8554367 0 0 0 -0.1573,1.83112 10.798809,10.798809 0 0 0 0.6406,2.77945 c 0.4478,1.19265 0.9166,2.38476 1.4767,3.52747 0.7588,1.54706 1.6174,3.04471 2.4234,4.56815 0.2154,0.40649 0.3963,0.83071 0.6208,1.30541 a 7.4012921,7.4012921 0 0 0 0.7255,-3.01894 c 0.022,-0.86455 -0.047,-1.73286 -0.098,-2.59794 -0.032,-0.52947 -0.1063,-1.05572 -0.1578,-1.58412 -0.072,-0.7362 -0.181,-1.47188 -0.1977,-2.2097 -0.017,-0.75017 0.037,-1.50463 0.101,-2.25373 0.061,-0.71849 0.1794,-1.43107 0.2658,-2.14634 z m -1.444,-0.58102 c -0.2378,0.65674 -0.7464,1.02726 -1.4058,1.13627 -0.6148,0.10095 -1.1534,-0.1262 -1.554,-0.61647 -0.2852,-0.34904 -0.1762,-0.76252 0.2513,-0.99825 0.4908,-0.27172 1.0305,-0.34045 1.6668,-0.3818 0.1729,0.0317 0.4333,0.058 0.6809,0.12888 0.3592,0.10149 0.4919,0.37159 0.3608,0.73137 z m -19.0211,20.22293 c -0.3517,-0.28729 -0.8168,-0.30393 -1.1513,0.0113 -0.4151,0.392 -0.7802,0.84038 -1.1454,1.28232 -0.4215,0.51068 -0.8168,1.04176 -1.3607,1.43752 -0.7915,0.57511 -1.7141,0.81353 -2.6415,1.03907 -0.7372,0.17935 -1.4778,0.34582 -2.2172,0.51819 l -0.01,0.0956 c 0.2196,0.1015 0.4323,0.22822 0.661,0.30072 1.1277,0.35709 2.2747,0.53484 3.4663,0.43388 0.8602,-0.073 1.6797,-0.26044 2.4561,-0.62881 1.0687,-0.50638 1.8908,-1.30864 2.5899,-2.24192 0.1171,-0.15573 0.1703,-0.38609 0.1842,-0.58693 0.048,-0.70936 -0.3125,-1.23668 -0.8323,-1.6609 z m 27.7896,0.28246 c -0.9075,0.0972 -1.8161,0.20029 -2.7263,0.25238 -0.4392,0.0252 -0.8849,-0.0585 -1.3285,-0.0945 -0.7437,-0.0601 -1.4697,-0.22553 -2.0985,-0.6229 -0.3641,-0.2293 -0.6664,-0.25507 -1.0531,-0.12512 -0.552,0.1858 -1.0025,0.46825 -1.1357,1.06646 -0.091,0.40435 -0.1235,0.8232 -0.16,1.23721 -0.01,0.073 0.084,0.20728 0.1541,0.22554 0.4258,0.11223 0.8538,0.24486 1.2893,0.28406 0.5349,0.0483 1.0794,0.0328 1.618,0.006 0.5815,-0.029 1.1668,-0.0666 1.7398,-0.16324 1.3505,-0.22661 2.657,-0.59606 3.8174,-1.3618 0.4183,-0.27655 0.8329,-0.55901 1.2485,-0.83878 l -0.034,-0.0591 c -0.4436,0.066 -0.885,0.14659 -1.3307,0.19385 z"
         id="path1-07"
         style="fill:#ffffff;fill-opacity:1;stroke-width:0.536987" /></g></g></svg>
