<?xml version="1.0" encoding="UTF-8" standalone="no"?>
<!-- Created with Inkscape (http://www.inkscape.org/) -->

<svg
   width="23.348568mm"
   height="23.348558mm"
   viewBox="0 0 88.246557 88.246523"
   version="1.1"
   id="svg1"
   xml:space="preserve"
   xmlns:inkscape="http://www.inkscape.org/namespaces/inkscape"
   xmlns:sodipodi="http://sodipodi.sourceforge.net/DTD/sodipodi-0.dtd"
   xmlns="http://www.w3.org/2000/svg"
   xmlns:svg="http://www.w3.org/2000/svg"><sodipodi:namedview
     id="namedview1"
     pagecolor="#ffffff"
     bordercolor="#000000"
     borderopacity="0.25"
     inkscape:showpageshadow="2"
     inkscape:pageopacity="0.0"
     inkscape:pagecheckerboard="0"
     inkscape:deskcolor="#d1d1d1"
     inkscape:document-units="mm"
     showguides="true"
     inkscape:export-bgcolor="#ffffff00"><inkscape:page
       x="1.7981906e-14"
       y="0"
       width="88.246552"
       height="88.246521"
       id="page2"
       margin="0"
       bleed="0" /></sodipodi:namedview><defs
     id="defs1" /><g
     inkscape:groupmode="layer"
     id="layer2"
     inkscape:label="icones"
     transform="translate(-42.92351,-558.79376)"><g
       id="g723"><rect
         id="rect12"
         width="88.246559"
         height="88.246559"
         x="42.923508"
         y="558.79376"
         rx="17.154173"
         ry="0"
         style="fill:#293138;fill-opacity:1;stroke-width:0.778285" /><g
         id="g39"
         transform="matrix(0.54254996,0,0,0.54254996,52.323319,568.19357)"><path
           d="m 69.531,19.84 h 31.281 V 40.09 H 69.531 Z m 0,0"
           fill="#0403ff"
           id="path1" /><path
           d="m 69.531,18.918 v 22.094 h -1.895 l 0.051,-22.094 z m 0,0"
           fill="#0808bd"
           id="path2-9" /><path
           d="m 69.531,19.84 h 31.281 V 17.996 H 67.688 v 1.844 z m 0,0"
           fill="#000373"
           id="path3-3" /><path
           d="m 66.766,17.074 h 34.969 v 23.91 H 78.746 V 40.062 H 100.84 V 17.996 H 67.688 v 22.988 l -0.922,0.922 z m 0,0"
           fill="#000473"
           id="path4-9" /><path
           d="m 23.527,77.797 h 31.281 v 20.25 H 23.527 Z m 0,0"
           fill="#0403ff"
           id="path5-0" /><path
           d="m 23.527,76.875 v 22.094 h -1.895 l 0.051,-22.094 z m 0,0"
           fill="#0808bd"
           id="path6-8" /><path
           d="m 23.527,77.797 h 31.281 v -1.84 H 21.684 v 1.84 z m 0,0"
           fill="#000373"
           id="path7-8" /><path
           d="M 54.809,98.047 V 75.957 H 21.684 V 98.945 H 20.762 V 75.035 H 55.73 v 23.91 h -0.922"
           fill="#000473"
           id="path8-5" /><path
           d="m 23.527,98.047 h 31.281 v 0.922 H 23.527 Z m 0,0"
           fill="#0001df"
           id="path9-0" /><path
           d="m 6.965,117.352 v -9.191 h 56.113 l 7.375,-7.371 h 4.605 L 64,111.848 H 10.648 v 5.527 H 6.965 Z m 0,0"
           fill="#fffffd"
           id="path10-9" /><path
           d="m 6.965,108.16 8.266,-8.27 v 8.27 z m 0,0"
           fill="#bfbfc0"
           id="path11-6" /><path
           d="m 6.965,117.352 h 3.684 v 3.684 H 6.965 Z m 0,0"
           fill="#bcbfb1"
           id="path12-3" /><path
           d="m 63.078,108.16 7.375,-7.371 h -2.766 l -7.375,7.371 z m 0,0"
           fill="#c2c2c2"
           id="path13-8" /><path
           d="m 75.035,100.813 v 12.879 l -7.375,7.371 H 10.648 v -3.687 H 64 v -5.527 z m 0,0"
           fill="#7e7e7e"
           id="path14-5" /><path
           d="m 41.934,114.609 v 2.766 H 10.648 v -5.527 H 64 v 5.527 h -3.687 v -2.766 z m 0,0"
           fill="#c0c0c0"
           id="path15-6" /><path
           d="M 41.934,114.609 H 60.34 v 2.766 H 41.934 Z m 0,0"
           fill="#010101"
           id="path16-1" /><path
           d="m 52.965,59.391 v -9.187 h 56.117 l 7.371,-7.375 h 4.609 L 110.027,53.864 H 56.652 v 5.527 z m 0,0"
           fill="#fffffd"
           id="path17-1" /><path
           d="m 52.965,50.203 8.27,-8.27 v 8.27 z m 0,0"
           fill="#bfbfc0"
           id="path18-5" /><path
           d="m 52.965,59.391 h 3.688 v 3.688 h -3.687 z m 0,0"
           fill="#bcbfb1"
           id="path19-9" /><path
           d="m 109.082,50.203 7.371,-7.375 h -2.762 l -7.375,7.375 z m 0,0"
           fill="#c2c2c2"
           id="path20-8" /><path
           d="m 121.035,42.828 v 12.879 l -7.371,7.371 H 56.652 v -3.687 h 53.352 v -5.527 z m 0,0"
           fill="#7e7e7e"
           id="path21-4" /><path
           d="M 87.91,56.652 V 59.39 H 56.652 v -5.527 h 53.352 v 5.527 h -3.687 V 56.628 H 87.91 Z m 0,0"
           fill="#c0c0c0"
           id="path22-8" /><path
           d="m 87.91,56.652 h 18.406 V 59.39 H 87.91 Z m 0,0"
           fill="#010101"
           id="path23-1" /><path
           d="m 66.766,46.516 h 36.813 V 15.23 l 9.191,-8.266 v 34.969 l -6.453,6.449 H 64.922"
           fill="#808080"
           id="path24-0" /><path
           d="m 63.078,13.391 40.473,1.84 -1.844,1.844 4.609,-3.684 6.453,-6.453 H 69.531 Z m 0,0"
           fill="#bfc1bb"
           id="path25-3" /><path
           d="m 66.766,42.828 h 36.813 v 3.688 H 66.766 Z m 0,0"
           fill="#c6bcbf"
           id="path26-0" /><path
           d="m 64.922,41.934 h 0.922 l 0.922,-0.922 V 17.074 h 34.969 l 1.844,-1.844 H 64.922 Z m 0,0"
           fill="#817f87"
           id="path27-4" /><path
           d="m 65.844,41.934 0.922,-0.922 h 34.969 V 17.074 l 1.844,-1.844 V 42.828 H 65.844 Z m 0,0"
           fill="#fefffa"
           id="path28-4" /><path
           d="m 63.078,13.391 h 41.395 l -0.922,1.84 H 64.922 v 28.52 l -1.844,0.922 z m 0,0"
           fill="#ffffff"
           id="path29-4" /><path
           d="m 64.922,41.934 h 0.922 v 0.922 l -0.922,0.922 z m 0,0"
           fill="#bebebe"
           id="path30-4" /><path
           d="M 18.918,104.473 H 57.547 V 73.191 l 9.191,-8.27 V 99.89 l -6.449,6.453 H 17.074"
           fill="#808080"
           id="path31-7" /><path
           d="m 17.074,71.371 40.473,1.844 -1.84,1.844 4.605,-3.687 6.453,-6.449 H 23.527 Z m 0,0"
           fill="#bfc1bb"
           id="path32-6" /><path
           d="m 57.547,100.813 v 3.688 H 18.918 v -4.609 h 0.922 v 0.922 z m 0,0"
           fill="#c6bcbf"
           id="path33-3" /><path
           d="m 18.918,99.891 h 0.922 l 0.922,-0.922 V 75.059 H 55.73 l 1.844,-1.844 H 18.918 Z m 0,0"
           fill="#817f87"
           id="path34-1" /><path
           d="m 19.84,99.891 0.922,-0.922 H 55.73 v -23.91 l 1.844,-1.844 v 27.598 H 19.84 Z m 0,0"
           fill="#fefffa"
           id="path35-7" /><path
           d="m 17.074,71.371 h 41.395 l -0.922,1.844 H 18.918 V 104.5 l -1.844,1.844 z m 0,0"
           fill="#ffffff"
           id="path36-5" /><path
           d="m 18.918,99.891 h 0.922 v 0.922 h -0.922 z m 0,0"
           fill="#bebebe"
           id="path37-9" /><path
           d="m 5.121,108.16 9.188,-9.191 h 0.922 v 1.844 h -0.922 l -7.371,7.375 v 12.875 H 67.66 l 7.375,-7.371 v -12.879 h -8.27 l 1.844,-1.844 h 8.266 v 14.723 l -9.187,9.188 H 5.121 Z m 0,0"
           id="path38-6" /><path
           d="m 17.074,71.371 v 34.973 l -1.844,1.844 V 71.371 l 8.27,-8.266 h 45.109 v 36.813 l -8.27,8.27 H 15.23 l 1.844,-1.844 h 43.238 l 6.453,-6.453 V 64.922 H 23.527 Z m 0,0"
           id="path39-2" /><path
           d="m 51.125,50.203 9.188,-9.191 h 0.922 v 1.844 h -0.922 l -7.371,7.371 v 12.879 h 60.723 l 7.371,-7.375 V 42.855 h -8.266 l 1.84,-1.844 h 8.27 V 55.73 l -9.187,9.191 H 51.125 Z m 0,0"
           id="path40-1" /><path
           d="M 63.078,13.391 V 48.36 l -1.844,1.844 V 13.391 l 8.297,-8.27 h 45.078 v 36.813 l -8.266,8.27 H 61.234 l 1.844,-1.844 h 43.238 l 6.453,-6.453 V 6.965 H 69.531 Z m 0,0"
           id="path41-7" /><path
           d="M 46.516,60.313 H 62.157 L 37.324,85.145 v 1.844 H 40.09 L 80.563,54.786 V 52.942 H 65.844 L 89.754,28.11 V 26.266 H 87.91 L 46.516,58.469 Z m 0,0"
           fill="#ffff01"
           id="path42-8" /><path
           d="M 40.398,87.91 H 36.402 V 84.762 L 59.957,61.211 H 45.621 v -3.203 l 41.98,-32.637 h 3.074 v 3.121 L 67.992,52.043 h 13.469 v 3.203 z m -2.152,-1.816 h 1.512 L 79.641,54.375 V 53.887 H 63.668 L 88.832,27.75 V 27.188 H 88.219 L 47.438,58.93 v 0.461 h 16.945 l -26.137,26.14 z m 0,0"
           id="path43-5" /></g></g></g></svg>
