<?xml version="1.0" encoding="UTF-8" standalone="no"?>
<!-- Created with Inkscape (http://www.inkscape.org/) -->

<svg
   width="23.348572mm"
   height="23.348566mm"
   viewBox="0 0 88.246571 88.246551"
   version="1.1"
   id="svg1"
   xml:space="preserve"
   xmlns:inkscape="http://www.inkscape.org/namespaces/inkscape"
   xmlns:sodipodi="http://sodipodi.sourceforge.net/DTD/sodipodi-0.dtd"
   xmlns="http://www.w3.org/2000/svg"
   xmlns:svg="http://www.w3.org/2000/svg"><sodipodi:namedview
     id="namedview1"
     pagecolor="#ffffff"
     bordercolor="#000000"
     borderopacity="0.25"
     inkscape:showpageshadow="2"
     inkscape:pageopacity="0.0"
     inkscape:pagecheckerboard="0"
     inkscape:deskcolor="#d1d1d1"
     inkscape:document-units="mm"
     showguides="true"
     inkscape:export-bgcolor="#ffffff00"><inkscape:page
       x="-9.8249035e-13"
       y="0"
       width="88.246567"
       height="88.246552"
       id="page2"
       margin="0"
       bleed="0" /></sodipodi:namedview><defs
     id="defs1" /><g
     inkscape:label="Camada 1"
     inkscape:groupmode="layer"
     id="layer1"
     transform="translate(-169.66553,-432.0518)"><g
       id="g716"><rect
         id="rect26"
         width="88.246559"
         height="88.246559"
         x="169.66551"
         y="432.05179"
         rx="17.154173"
         ry="0"
         style="fill:#293138;fill-opacity:1;stroke-width:0.778285" /><g
         id="g696"
         transform="matrix(0.65225192,0,0,0.65225192,172.04389,434.43056)"><path
           fill="url(#python-original-a)"
           d="m 63.391,1.988 c -4.222,0.02 -8.252,0.379 -11.8,1.007 -10.45,1.846 -12.346,5.71 -12.346,12.837 v 9.411 H 63.938 V 28.38 H 29.977 c -7.176,0 -13.46,4.313 -15.426,12.521 -2.268,9.405 -2.368,15.275 0,25.096 1.755,7.311 5.947,12.519 13.124,12.519 h 8.491 V 67.234 c 0,-8.151 7.051,-15.34 15.426,-15.34 h 24.665 c 6.866,0 12.346,-5.654 12.346,-12.548 V 15.833 C 88.603,9.14 82.957,4.113 76.257,2.996 72.013,2.29 67.612,1.969 63.391,1.988 Z M 50.037,9.557 c 2.55,0 4.634,2.117 4.634,4.721 0,2.593 -2.083,4.69 -4.634,4.69 -2.56,0 -4.633,-2.097 -4.633,-4.69 -0.001,-2.604 2.073,-4.721 4.633,-4.721 z"
           transform="translate(0,10.26)"
           id="path4-6"
           style="fill:#00acd7;fill-opacity:1" /><path
           fill="url(#python-original-b)"
           d="m 91.682,28.38 v 10.966 c 0,8.5 -7.208,15.655 -15.426,15.655 H 51.591 c -6.756,0 -12.346,5.783 -12.346,12.549 v 23.515 c 0,6.691 5.818,10.628 12.346,12.547 7.816,2.297 15.312,2.713 24.665,0 6.216,-1.801 12.346,-5.423 12.346,-12.547 V 81.653 H 63.938 v -3.138 h 37.012 c 7.176,0 9.852,-5.005 12.348,-12.519 2.578,-7.735 2.467,-15.174 0,-25.096 -1.774,-7.145 -5.161,-12.521 -12.348,-12.521 H 91.682 Z M 77.809,87.927 c 2.561,0 4.634,2.097 4.634,4.692 0,2.602 -2.074,4.719 -4.634,4.719 -2.55,0 -4.633,-2.117 -4.633,-4.719 0,-2.595 2.083,-4.692 4.633,-4.692 z"
           transform="translate(0,10.26)"
           id="path5-4"
           style="fill:#f0db4f;fill-opacity:1" /></g></g></g></svg>
