<?xml version="1.0" encoding="UTF-8" standalone="no"?>
<!-- Created with Inkscape (http://www.inkscape.org/) -->

<svg
   width="23.348568mm"
   height="23.348562mm"
   viewBox="0 0 88.246557 88.246537"
   version="1.1"
   id="svg1"
   xml:space="preserve"
   xmlns="http://www.w3.org/2000/svg"
   xmlns:svg="http://www.w3.org/2000/svg"><defs
     id="defs1" /><g
     id="layer1"
     transform="translate(-296.40749,-178.56783)"><g
       id="g700"><path
         id="rect14"
         style="fill:#ff6600;stroke-width:0.778285"
         d="m 313.56164,178.56783 h 53.93822 c 9.50341,0 17.15417,7.65076 17.15417,17.15417 v 53.93821 c 0,9.50341 -7.65076,17.15417 -17.15417,17.15417 h -53.93822 c -9.50341,0 -17.15417,-7.65076 -17.15417,-17.15417 V 195.722 c 0,-9.50341 7.65076,-17.15417 17.15417,-17.15417 z" /><path
         fill="#ff6600"
         d="m 370.34348,215.81128 h -21.6009 a 1.9551698,1.9551698 0 0 1 -1.9546,-1.95571 v -22.51371 a 3.0098123,3.0098123 0 0 0 -3.0195,-3.01788 h -7.7154 a 3.0103493,3.0103493 0 0 0 -3.0216,3.01788 v 22.36336 a 2.1012303,2.1012303 0 0 1 -2.105,2.10767 l -7.0818,0.0252 c -1.1685,0 -2.1329,-0.93973 -2.1082,-2.10821 l 0.05,-22.38538 a 3.0103493,3.0103493 0 0 0 -3.0211,-3.02056 h -7.7149 a 3.0124972,3.0124972 0 0 0 -3.0212,3.02056 v 63.02348 c 0,1.46974 1.1922,2.69031 2.6904,2.69031 h 59.6233 a 2.692453,2.692453 0 0 0 2.6892,-2.69084 v -35.86752 a 2.6715105,2.6715105 0 0 0 -2.6892,-2.68869 z m -10.126,23.65643 a 3.5145802,3.5145802 0 0 1 -3.5038,3.5033 h -6.0916 a 3.5145802,3.5145802 0 0 1 -3.5028,-3.5033 v -6.09051 a 3.5145802,3.5145802 0 0 1 3.5028,-3.5033 h 6.0911 a 3.5145802,3.5145802 0 0 1 3.5038,3.50276 z m 0,0"
         id="path1-504"
         style="fill:#ffffff;fill-opacity:1;stroke-width:0.536987" /></g></g></svg>
