<?xml version="1.0" encoding="UTF-8" standalone="no"?>
<!-- Created with Inkscape (http://www.inkscape.org/) -->

<svg
   width="23.348568mm"
   height="23.348572mm"
   viewBox="0 0 88.246557 88.246573"
   version="1.1"
   id="svg1"
   xml:space="preserve"
   xmlns:inkscape="http://www.inkscape.org/namespaces/inkscape"
   xmlns:sodipodi="http://sodipodi.sourceforge.net/DTD/sodipodi-0.dtd"
   xmlns="http://www.w3.org/2000/svg"
   xmlns:svg="http://www.w3.org/2000/svg"><sodipodi:namedview
     id="namedview1"
     pagecolor="#ffffff"
     bordercolor="#000000"
     borderopacity="0.25"
     inkscape:showpageshadow="2"
     inkscape:pageopacity="0.0"
     inkscape:pagecheckerboard="0"
     inkscape:deskcolor="#d1d1d1"
     inkscape:document-units="mm"
     showguides="true"
     inkscape:export-bgcolor="#ffffff00"><inkscape:page
       x="1.2417372e-13"
       y="-2.0136887e-13"
       width="88.246552"
       height="88.246567"
       id="page2"
       margin="0"
       bleed="0" /></sodipodi:namedview><defs
     id="defs1" /><g
     inkscape:label="Camada 1"
     inkscape:groupmode="layer"
     id="layer1"
     transform="translate(-296.40749,-178.56783)"><g
       id="g700"><rect
         id="rect14"
         width="88.246559"
         height="88.246559"
         x="296.40747"
         y="178.56783"
         rx="17.154173"
         ry="0"
         style="fill:#ff6600;fill-opacity:1;stroke-width:0.778285" /><path
         fill="#ff6600"
         d="m 370.34348,215.81128 h -21.6009 a 1.9551698,1.9551698 0 0 1 -1.9546,-1.95571 v -22.51371 a 3.0098123,3.0098123 0 0 0 -3.0195,-3.01788 h -7.7154 a 3.0103493,3.0103493 0 0 0 -3.0216,3.01788 v 22.36336 a 2.1012303,2.1012303 0 0 1 -2.105,2.10767 l -7.0818,0.0252 c -1.1685,0 -2.1329,-0.93973 -2.1082,-2.10821 l 0.05,-22.38538 a 3.0103493,3.0103493 0 0 0 -3.0211,-3.02056 h -7.7149 a 3.0124972,3.0124972 0 0 0 -3.0212,3.02056 v 63.02348 c 0,1.46974 1.1922,2.69031 2.6904,2.69031 h 59.6233 a 2.692453,2.692453 0 0 0 2.6892,-2.69084 v -35.86752 a 2.6715105,2.6715105 0 0 0 -2.6892,-2.68869 z m -10.126,23.65643 a 3.5145802,3.5145802 0 0 1 -3.5038,3.5033 h -6.0916 a 3.5145802,3.5145802 0 0 1 -3.5028,-3.5033 v -6.09051 a 3.5145802,3.5145802 0 0 1 3.5028,-3.5033 h 6.0911 a 3.5145802,3.5145802 0 0 1 3.5038,3.50276 z m 0,0"
         id="path1-504"
         style="fill:#ffffff;fill-opacity:1;stroke-width:0.536987" /></g></g></svg>
