<?xml version="1.0" encoding="UTF-8" standalone="no"?>
<!-- Created with Inkscape (http://www.inkscape.org/) -->

<svg
   width="23.348568mm"
   height="23.348566mm"
   viewBox="0 0 88.246557 88.246551"
   version="1.1"
   id="svg1"
   xml:space="preserve"
   xmlns:inkscape="http://www.inkscape.org/namespaces/inkscape"
   xmlns:sodipodi="http://sodipodi.sourceforge.net/DTD/sodipodi-0.dtd"
   xmlns="http://www.w3.org/2000/svg"
   xmlns:svg="http://www.w3.org/2000/svg"><sodipodi:namedview
     id="namedview1"
     pagecolor="#ffffff"
     bordercolor="#000000"
     borderopacity="0.25"
     inkscape:showpageshadow="2"
     inkscape:pageopacity="0.0"
     inkscape:pagecheckerboard="0"
     inkscape:deskcolor="#d1d1d1"
     inkscape:document-units="mm"
     showguides="true"
     inkscape:export-bgcolor="#ffffff00"><inkscape:page
       x="1.7726962e-13"
       y="0"
       width="88.246552"
       height="88.246552"
       id="page2"
       margin="0"
       bleed="0" /></sodipodi:namedview><defs
     id="defs1" /><g
     inkscape:label="Camada 1"
     inkscape:groupmode="layer"
     id="layer1"
     transform="translate(-423.14949,-432.0518)"><g
       id="g718"><rect
         id="rect34"
         width="88.246559"
         height="88.246559"
         x="423.14948"
         y="432.05179"
         rx="17.154173"
         ry="0"
         style="fill:#c51850;fill-opacity:1;stroke-width:0.778285" /><path
         fill="#c51850"
         d="m 454.74107,441.80854 c -0.3528,0.0107 -0.7319,0.13962 -1.1626,0.4747 -1.0562,-0.40167 -2.0786,-0.54128 -2.9942,0.27547 -1.4139,-0.18096 -1.8741,0.19278 -2.2221,0.62774 -0.3098,-0.006 -2.3219,-0.31521 -3.245,1.04122 -2.3181,-0.27064 -3.0517,1.34408 -2.2215,2.84872 -0.4731,0.72224 -0.9639,1.43483 0.1434,2.81112 -0.392,0.76736 -0.1488,1.59808 0.7743,2.60546 -0.2438,1.0772 0.2352,1.83811 1.0939,2.43094 -0.1611,1.47457 1.3725,2.33214 1.83,2.63715 0.1761,0.85918 0.544,1.67056 2.2962,2.11841 0.2883,1.28179 1.3414,1.50303 2.3606,1.77152 -3.3696,1.92993 -6.2602,4.46773 -6.2398,10.69678 l -0.494,0.8667 c -3.8637,2.31441 -7.3407,9.75276 -1.9047,15.79923 0.3554,1.89288 0.951,3.252 1.4815,4.75663 0.7931,6.06312 5.9686,8.90164 7.3331,9.23779 2.0014,1.50088 4.1321,2.9239 7.0152,3.92162 2.7172,2.76118 5.662,3.81368 8.6224,3.8126 h 0.13 c 2.9609,0.002 5.9052,-1.05142 8.6224,-3.8126 2.8836,-0.99719 5.0138,-2.42074 7.0141,-3.92162 1.365,-0.33615 6.5416,-3.17359 7.3347,-9.23779 0.53,-1.5041 1.1261,-2.86375 1.481,-4.75663 5.436,-6.04647 1.959,-13.48535 -1.9052,-15.8003 l -0.494,-0.86724 c 0.02,-6.22797 -2.8691,-8.76631 -6.2393,-10.69678 1.0197,-0.26849 2.0717,-0.48866 2.3606,-1.76991 1.7517,-0.44838 2.119,-1.25923 2.2951,-2.11841 0.4586,-0.30609 1.9912,-1.16365 1.8306,-2.63929 0.8586,-0.59176 1.3376,-1.35267 1.0944,-2.42987 0.9225,-1.00685 1.1652,-1.83918 0.7732,-2.60546 1.1084,-1.37576 0.6165,-2.08888 0.144,-2.81113 0.8296,-1.50464 0.097,-3.11828 -2.2221,-2.84764 -0.9225,-1.35589 -2.9341,-1.0482 -3.2451,-1.04229 -0.3479,-0.43496 -0.8081,-0.80763 -2.2215,-0.62667 -0.915,-0.81622 -1.9385,-0.6766 -2.9948,-0.27547 -1.2533,-0.97463 -2.084,-0.19439 -3.0318,0.10095 -1.518,-0.48865 -1.8655,0.18151 -2.6108,0.45429 -1.6555,-0.34474 -2.1587,0.40436 -2.9524,1.19695 l -0.9225,-0.0172 c -2.497,1.44933 -3.7385,4.39954 -4.1778,5.91706 -0.4403,-1.51806 -1.6775,-4.46826 -4.174,-5.91759 l -0.9231,0.0177 c -0.7947,-0.79259 -1.2979,-1.54169 -2.9534,-1.19748 -0.7453,-0.27225 -1.0917,-0.94241 -2.6108,-0.45376 -0.6218,-0.19331 -1.1943,-0.59552 -1.8671,-0.57565 z m 25.1101,1.74092 c -0.3459,0.42207 -0.8313,0.83447 -0.3174,1.31991 0.7083,-0.44248 1.4209,-0.88388 3.1027,-1.19802 -0.3796,0.42261 -1.1626,0.84468 -0.6873,1.26729 0.8887,-0.33938 1.8719,-0.58585 2.9604,-0.72923 -0.5209,0.42959 -0.9559,0.84844 -0.5279,1.18084 0.9505,-0.29266 2.2608,-0.68735 3.5426,-0.3469 l -0.8109,0.81569 c -0.09,0.109 1.8967,0.0854 3.208,0.10471 -0.479,0.66425 -0.9661,1.30649 -1.2512,2.44812 0.1305,0.13156 0.7802,0.058 1.3935,0 -0.6294,1.32206 -1.7205,1.65553 -1.9751,2.22206 0.384,0.29104 0.9167,0.21479 1.4982,0.0172 -0.4521,0.93167 -1.4004,1.57069 -2.1501,2.32623 0.1901,0.13532 0.5209,0.21479 1.3049,0.12189 -0.6927,0.73567 -1.5293,1.40906 -2.5211,2.0137 0.1761,0.20245 0.7786,0.19493 1.3392,0.20835 -0.8984,0.87905 -2.0545,1.33495 -3.1382,1.91007 0.5402,0.36944 0.9269,0.28353 1.3403,0.27762 -0.7657,0.62935 -2.0695,0.95745 -3.2788,1.33763 0.2298,0.3571 0.4607,0.4543 0.9526,0.55418 -1.2807,0.70882 -3.1145,0.38501 -3.6316,0.74748 0.1245,0.35549 0.4763,0.58693 0.8989,0.78024 -2.061,0.12029 -7.6983,-0.073 -8.7787,-4.33885 2.1098,-2.31817 5.9595,-5.03963 12.5827,-8.40277 -5.1529,1.72426 -9.8016,4.0231 -13.6932,7.18649 -4.5751,-2.13023 -1.4219,-7.50332 0.8103,-9.63623 0.1133,0.5633 0.2417,0.9204 0.3877,1.02511 0.7266,-0.77863 1.321,-1.57713 2.2559,-2.32677 0.01,0.44033 -0.2218,0.91718 0.3356,1.26622 0.501,-0.67446 1.1798,-1.27696 2.0798,-1.78817 -0.4334,0.74803 -0.074,0.97571 0.1595,1.28555 0.6873,-0.58908 1.3408,-1.18674 2.6087,-1.64962 z m -24.9699,10e-4 c 1.2678,0.46235 1.9208,1.05947 2.6086,1.64855 0.2331,-0.30984 0.5913,-0.53699 0.1579,-1.28447 0.9,0.51121 1.5788,1.11371 2.0798,1.78816 0.5574,-0.34904 0.3324,-0.82696 0.3356,-1.26729 0.9354,0.74964 1.5293,1.5476 2.2564,2.32677 0.145,-0.10471 0.2739,-0.46181 0.3877,-1.02511 2.2323,2.13291 5.3865,7.506 0.8109,9.63623 -3.8932,-3.16231 -8.5435,-5.46116 -13.6954,-7.18649 6.6232,3.36207 10.4745,6.0846 12.5849,8.40277 -1.0799,4.26582 -6.7172,4.45914 -8.7787,4.33885 0.4226,-0.19331 0.7743,-0.42475 0.8989,-0.78024 -0.5171,-0.36247 -2.3498,-0.0387 -3.63,-0.74748 0.4913,-0.0999 0.7206,-0.19708 0.9505,-0.55418 -1.2099,-0.38018 -2.5121,-0.70828 -3.2789,-1.33763 0.4135,0.005 0.8001,0.0913 1.3403,-0.27762 -1.0831,-0.57458 -2.2397,-1.03102 -3.1376,-1.91007 0.559,-0.0134 1.1642,-0.005 1.3403,-0.20835 -0.9923,-0.60464 -1.8289,-1.27803 -2.5211,-2.0137 0.784,0.0929 1.1148,0.0134 1.3049,-0.12189 -0.7502,-0.75554 -1.6991,-1.39456 -2.1512,-2.32623 0.5821,0.19761 1.1142,0.27386 1.4982,-0.0172 -0.2551,-0.56653 -1.3457,-0.9 -1.974,-2.22206 0.6127,0.058 1.2625,0.13156 1.3924,0 -0.2846,-1.14163 -0.7727,-1.78387 -1.2511,-2.44866 1.3107,-0.0188 3.2976,0.005 3.2079,-0.10417 l -0.8108,-0.81622 c 1.2807,-0.33938 2.592,0.0548 3.5441,0.34743 0.4263,-0.33186 -0.01,-0.75179 -0.5295,-1.18137 1.089,0.14391 2.0717,0.392 2.9604,0.7303 0.4753,-0.42207 -0.3082,-0.84522 -0.6873,-1.26783 1.6824,0.31414 2.3949,0.75715 3.1027,1.19909 0.5144,-0.48543 0.029,-0.89784 -0.3168,-1.31991 z m 12.5246,17.57021 c 3.2445,-0.0349 7.2617,2.38476 7.2462,4.66481 -0.014,2.01263 -2.8219,3.64185 -7.2209,3.61124 -4.3088,-0.051 -7.2096,-2.04646 -7.1994,-3.9968 0.01,-1.60451 3.5178,-4.37214 7.1741,-4.27871 z m -10.6817,1.35751 a 12.291633,12.291633 0 0 1 2.2414,0.16969 c 2.2564,0.3732 -10.8171,11.61878 -11.019,9.11052 -0.1799,-5.72536 3.6999,-9.18731 8.7776,-9.28021 z m 21.4091,0.19224 c 5.0767,0.0929 8.957,3.55324 8.7771,9.27913 -0.2013,2.50773 -13.2743,-8.73677 -11.0174,-9.11052 v 0.001 a 12.281968,12.281968 0 0 1 2.2403,-0.16969 z m -2.8578,6.98029 c 2.6398,-0.029 5.4289,1.43698 7.1865,4.05694 2.5571,3.81153 1.9643,8.62079 -1.3242,10.74243 -3.2875,2.12217 -8.0253,0.75231 -10.5824,-3.05815 -2.5577,-3.81153 -1.9643,-8.62025 1.3242,-10.74242 1.0272,-0.66318 2.1963,-0.98537 3.3959,-0.9988 z m -15.6671,0.38449 c 1.1996,0.0134 2.3681,0.33561 3.3959,0.99879 3.2879,2.12164 3.8808,6.93143 1.3242,10.74243 -2.5572,3.81099 -7.2955,5.17977 -10.584,3.05814 -3.2875,-2.12164 -3.8798,-6.93143 -1.3232,-10.74243 1.7581,-2.62049 4.5472,-4.08593 7.1871,-4.05693 z m 27.8745,4.25723 a 1.1652619,1.1652619 0 0 1 0.3163,0.0408 c 5.8902,3.31321 4.8672,10.68604 1.6893,13.20344 -2.7982,1.22379 -5.0928,-13.19377 -2.0056,-13.24425 z m -40.3922,0.19117 c 3.086,0.0505 0.7915,14.4675 -2.0062,13.24263 -3.1774,-2.51685 -4.2009,-9.88861 1.6893,-13.20182 a 1.1652619,1.1652619 0 0 1 0.3169,-0.0408 z m 20.3093,9.89345 c 4.3829,-0.0215 7.9534,3.18916 7.9764,7.16985 v 0.0762 c 0.024,3.98015 -3.5108,7.22355 -7.8931,7.24449 -4.3829,0.0215 -7.9528,-3.18755 -7.9764,-7.16878 v -0.0757 c -0.023,-3.98069 3.5108,-7.22516 7.8937,-7.2461 z m 17.5251,2.72145 a 2.6543269,2.6543269 0 0 1 1.7238,0.55417 c 1.4085,1.38274 2.2355,6.58883 -0.2309,9.70657 -3.397,4.64226 -7.9958,4.82322 -9.7082,3.53016 -1.7914,-1.66413 -0.4242,-6.83155 2.0319,-9.6647 v -0.002 c 2.1083,-2.34395 4.3239,-4.07681 6.1834,-4.12406 z m -35.3772,1.10511 c 1.9976,0.0838 4.3883,1.64104 6.3413,3.87329 v 0 c 2.2693,2.69407 3.3046,7.42492 1.4107,8.81948 -1.792,1.06538 -6.1443,0.6272 -9.2378,-3.74978 -2.0857,-3.67192 -1.8167,-7.40989 -0.3518,-8.50749 0.5478,-0.32863 1.1707,-0.46396 1.8365,-0.43603 z m 18.14,12.90327 c 3.1881,-0.13747 7.4668,1.01061 7.4748,2.5335 0.053,1.4794 -3.8802,4.82214 -7.6864,4.75771 -3.9415,0.16754 -7.8062,-3.1795 -7.7552,-4.33993 -0.059,-1.70172 4.7996,-3.02915 7.9673,-2.95128 z"
         id="path1-72"
         style="fill:#ffffff;fill-opacity:1;stroke-width:0.536987" /></g></g></svg>
