<?xml version="1.0" encoding="UTF-8" standalone="no"?>
<!-- Created with Inkscape (http://www.inkscape.org/) -->

<svg
   width="23.34857mm"
   height="23.348574mm"
   viewBox="0 0 88.246564 88.24658"
   version="1.1"
   id="svg1"
   xml:space="preserve"
   inkscape:version="1.4.3 (0d15f75042, 2025-12-25)"
   sodipodi:docname="icones.svg"
   inkscape:export-filename="icones.svg"
   inkscape:export-xdpi="96"
   inkscape:export-ydpi="96"
   xmlns:inkscape="http://www.inkscape.org/namespaces/inkscape"
   xmlns:sodipodi="http://sodipodi.sourceforge.net/DTD/sodipodi-0.dtd"
   xmlns="http://www.w3.org/2000/svg"
   xmlns:svg="http://www.w3.org/2000/svg"><sodipodi:namedview
     id="namedview1"
     pagecolor="#ffffff"
     bordercolor="#000000"
     borderopacity="0.25"
     inkscape:showpageshadow="2"
     inkscape:pageopacity="0.0"
     inkscape:pagecheckerboard="0"
     inkscape:deskcolor="#d1d1d1"
     inkscape:document-units="mm"
     showguides="false"
     inkscape:export-bgcolor="#ffffff00"
     inkscape:zoom="0.71539146"
     inkscape:cx="1063.0544"
     inkscape:cy="590.58575"
     inkscape:window-width="1890"
     inkscape:window-height="974"
     inkscape:window-x="56"
     inkscape:window-y="50"
     inkscape:window-maximized="0"
     inkscape:current-layer="layer2"><inkscape:page
       x="-7.4031967e-20"
       y="0"
       width="88.246567"
       height="88.246582"
       id="page2"
       margin="0"
       bleed="0" /></sodipodi:namedview><defs
     id="defs1" /><g
     inkscape:groupmode="layer"
     id="layer2"
     inkscape:label="icones"
     transform="translate(-161.17008,-658.10454)"><g
       id="g3"><path
         id="path703"
         style="fill:#293138;fill-opacity:1;stroke-width:0.778285"
         inkscape:transform-center-x="193.08745"
         inkscape:transform-center-y="-83.850702"
         d="m 178.32425,658.10459 h 53.93821 c 9.50342,0 17.15418,7.65076 17.15418,17.15418 v 53.93821 c 0,9.50341 -7.65076,17.15417 -17.15418,17.15417 h -53.93821 c -9.50341,0 -17.15417,-7.65076 -17.15417,-17.15417 v -53.93821 c 0,-9.50342 7.65076,-17.15418 17.15417,-17.15418 z" /><g
         id="g1"
         transform="matrix(0.53813221,0,0,0.53813221,170.85267,667.78741)"><path
           d="M 63.992579,72.521325 41.553732,60.660321 2.6034211,40.074058 c -0.035557,-0.03555 -0.1066637,-0.03555 -0.1422174,-0.03555 -1.4221913,-0.675528 -2.87993927,0.746641 -2.3466152,2.168863 l 19.8466965,50.619383 0.0035,0.0109 c 0.02134,0.04994 0.03912,0.09944 0.06046,0.149334 0.814189,1.887956 2.591938,3.054 4.526143,3.512657 0.163538,0.03587 0.280527,0.06782 0.476917,0.107073 0.195451,0.04351 0.46881,0.10282 0.703471,0.120745 0.03912,0.0033 0.07467,0.0033 0.113789,0.0065 h 0.02846 c 0.02841,0.0044 0.05687,0.0044 0.08533,0.0076 h 0.03908 c 0.02491,0.0033 0.05333,0.0033 0.07824,0.0033 h 0.04621 c 0.02846,0.0044 0.05687,0.0044 0.08533,0.0044 v 0 c 25.135232,2.740415 50.493562,2.740415 75.628755,0 v 0 c 0.30207,0 0.59732,-0.0145 0.88147,-0.04263 0.0926,-0.0109 0.18133,-0.02137 0.27051,-0.03195 0.0107,-0.0044 0.0247,-0.0044 0.0354,-0.0076 0.0606,-0.0076 0.12074,-0.01788 0.18133,-0.02857 0.0887,-0.0109 0.17791,-0.02813 0.26666,-0.04612 0.17791,-0.03925 0.25855,-0.06738 0.50004,-0.1506 0.24106,-0.08276 0.64169,-0.22784 0.89214,-0.348585 0.25087,-0.120746 0.42452,-0.236792 0.63444,-0.368201 0.2594,-0.163837 0.50644,-0.331086 0.75689,-0.518812 0.10794,-0.08276 0.18175,-0.135683 0.25983,-0.210351 l -0.0427,-0.02475 z"
           fill="#ff4b4b"
           id="path14-53"
           style="stroke-width:0.426657" /><path
           d="m 125.44606,40.07457 h -0.0354 L 86.445785,60.660834 108.10586,92.919776 127.90272,42.207855 v -0.07109 c 0.49791,-1.493346 -1.0308,-2.844391 -2.45668,-2.062205"
           fill="#7d353b"
           id="path16-5"
           style="stroke-width:0.426657" /><path
           d="m 66.069117,30.286053 c -0.995816,-1.454191 -3.164512,-1.454191 -4.124488,0 L 41.553817,60.660572 63.992579,72.521761 106.51616,94.995458 c 0.26709,-0.261532 0.48127,-0.516249 0.7074,-0.785468 0.31999,-0.394664 0.61865,-0.817481 0.8819,-1.290639 L 86.445379,60.660572 Z"
           fill="#bd4043"
           id="path18-6"
           style="stroke-width:0.426657" /></g></g></g></svg>
