<?xml version="1.0" encoding="UTF-8" standalone="no"?>
<!-- Created with Inkscape (http://www.inkscape.org/) -->

<svg
   width="23.348568mm"
   height="23.348562mm"
   viewBox="0 0 88.246557 88.246537"
   version="1.1"
   id="svg1"
   xml:space="preserve"
   xmlns="http://www.w3.org/2000/svg"
   xmlns:svg="http://www.w3.org/2000/svg"><defs
     id="defs1" /><g
     id="layer1"
     transform="translate(-423.14949,-178.56783)"><g
       id="g702"><path
         id="rect30"
         style="fill:#293138;stroke-width:0.778285"
         d="m 440.30365,178.56783 h 53.93821 c 9.50341,0 17.15417,7.65076 17.15417,17.15417 v 53.93821 c 0,9.50341 -7.65076,17.15417 -17.15417,17.15417 h -53.93821 c -9.50341,0 -17.15417,-7.65076 -17.15417,-17.15417 V 195.722 c 0,-9.50341 7.65076,-17.15417 17.15417,-17.15417 z" /><g
         id="g701"><g
           id="g37"
           transform="matrix(0.52508422,0,0,0.52508422,433.66736,189.08598)"
           style="stroke:none;stroke-opacity:1"><path
             fill="#85ea2d"
             d="M 63.999,124.945 C 30.392,124.945 3.049,97.605 3.049,63.996 3.05,30.388 30.392,3.048 64,3.048 c 33.608,0 60.95,27.342 60.95,60.95 0,33.607 -27.343,60.946 -60.95,60.946 z"
             id="path1-73"
             style="fill:#85ea2d;fill-opacity:1;stroke:none;stroke-opacity:1" /><path
             fill="#173647"
             d="m 40.3,43.311 c -0.198,2.19 0.072,4.454 -0.073,6.668 -0.173,2.217 -0.444,4.407 -0.888,6.596 -0.615,3.126 -2.56,5.489 -5.24,7.458 5.218,3.396 5.807,8.662 6.152,14.003 0.172,2.88 0.098,5.785 0.394,8.638 0.221,2.215 1.082,2.782 3.372,2.854 0.935,0.025 1.894,0 2.978,0 V 96.37 C 40.227,97.526 34.641,95.608 33.261,89.874 a 39.329,39.329 0 0 1 -0.836,-6.4 c -0.148,-2.287 0.097,-4.577 -0.074,-6.864 -0.492,-6.277 -1.305,-8.393 -7.308,-8.689 v -7.8 c 0.441,-0.1 0.86,-0.174 1.302,-0.223 3.298,-0.172 4.701,-1.182 5.414,-4.43 a 37.512,37.512 0 0 0 0.616,-5.536 c 0.247,-3.569 0.148,-7.21 0.763,-10.754 0.86,-5.094 4.01,-7.556 9.254,-7.852 1.476,-0.074 2.978,0 4.676,0 v 6.99 c -0.714,0.05 -1.33,0.147 -1.969,0.147 -4.258,-0.148 -4.48,1.304 -4.8,4.848 z m 8.195,16.193 h -0.099 c -2.462,-0.123 -4.578,1.796 -4.702,4.258 -0.122,2.485 1.797,4.603 4.259,4.724 h 0.295 c 2.436,0.148 4.527,-1.724 4.676,-4.16 v -0.245 c 0.05,-2.486 -1.944,-4.527 -4.43,-4.577 z m 15.43,0 c -2.386,-0.074 -4.38,1.796 -4.454,4.159 0,0.149 0,0.271 0.024,0.418 0,2.684 1.821,4.406 4.578,4.406 2.707,0 4.406,-1.772 4.406,-4.553 -0.025,-2.682 -1.823,-4.455 -4.554,-4.43 z m 15.801,0 a 4.596,4.596 0 0 0 -4.676,4.454 4.515,4.515 0 0 0 4.528,4.528 h 0.05 c 2.264,0.394 4.553,-1.796 4.701,-4.429 0.122,-2.437 -2.092,-4.553 -4.604,-4.553 z m 21.682,0.369 C 98.553,59.75 97.124,58.79 96.412,56.083 A 27.444,27.444 0 0 1 95.601,50.791 C 95.403,47.493 95.427,44.171 95.206,40.873 94.69,33.047 89.029,30.316 80.809,31.668 v 6.792 c 1.304,0 2.313,0 3.322,0.025 1.748,0.024 3.077,0.69 3.249,2.634 0.172,1.772 0.172,3.568 0.344,5.365 0.346,3.57 0.542,7.187 1.157,10.706 0.542,2.904 2.536,5.07 5.02,6.841 -4.355,2.929 -5.636,7.113 -5.857,11.814 -0.122,3.223 -0.196,6.472 -0.368,9.721 -0.148,2.953 -1.181,3.913 -4.16,3.987 -0.835,0.024 -1.648,0.098 -2.583,0.148 v 6.964 c 1.748,0 3.347,0.1 4.946,0 4.971,-0.295 7.974,-2.706 8.96,-7.531 0.417,-2.658 0.662,-5.34 0.737,-8.023 0.171,-2.46 0.148,-4.946 0.394,-7.382 0.369,-3.815 2.116,-5.389 5.93,-5.636 a 5.161,5.161 0 0 0 1.06,-0.245 v -7.801 c -0.64,-0.074 -1.084,-0.148 -1.552,-0.173 z M 64,6.1 c 31.977,0 57.9,25.92 57.9,57.898 0,31.977 -25.923,57.899 -57.9,57.899 -31.976,0 -57.898,-25.922 -57.898,-57.9 C 6.102,32.023 32.024,6.101 64,6.101 m 0,-6.1 C 28.71,0 0,28.71 0,64 c 0,35.288 28.71,63.998 64,63.998 35.289,0 64,-28.71 64,-64 C 128,28.708 99.289,0.002 64,0.002 Z"
             id="path2-65"
             style="stroke:none;stroke-opacity:1" /></g></g></g></g></svg>
