<?xml version="1.0" encoding="UTF-8" standalone="no"?>
<!-- Created with Inkscape (http://www.inkscape.org/) -->

<svg
   width="23.348568mm"
   height="23.348566mm"
   viewBox="0 0 88.246557 88.246551"
   version="1.1"
   id="svg1"
   xml:space="preserve"
   xmlns="http://www.w3.org/2000/svg"
   xmlns:svg="http://www.w3.org/2000/svg"><defs
     id="defs1" /><g
     id="layer1"
     transform="translate(-296.40749,-305.30985)"><g
       id="g709"><path
         id="rect16"
         style="fill:#ff6600;stroke-width:0.778285"
         d="m 313.56164,305.30984 h 53.93822 c 9.50341,0 17.15417,7.65077 17.15417,17.15418 v 53.93821 c 0,9.50341 -7.65076,17.15417 -17.15417,17.15417 h -53.93822 c -9.50341,0 -17.15417,-7.65076 -17.15417,-17.15417 v -53.93821 c 0,-9.50341 7.65076,-17.15418 17.15417,-17.15418 z" /><path
         d="m 339.2153,383.80029 -11.7278,-6.809 v -40.15051 l -17.6669,10.20812 0.043,-15.20747 29.3517,-16.77547 z m 2.6366,-68.73433 v 68.73433 l 11.7278,-6.809 v -19.3369 l 8.8549,5.11749 -0.054,-13.22599 -8.8012,-5.0262 v -7.67891 l 17.6615,10.20812 -0.043,-15.20747 z"
         fill="#ff6f00"
         id="path1-1"
         style="fill:#ffffff;fill-opacity:1;stroke-width:0.536987" /></g></g></svg>
