<?xml version="1.0" encoding="UTF-8" standalone="no"?>
<!-- Created with Inkscape (http://www.inkscape.org/) -->

<svg
   width="23.348568mm"
   height="23.348574mm"
   viewBox="0 0 88.246557 88.24658"
   version="1.1"
   id="svg1"
   xml:space="preserve"
   xmlns="http://www.w3.org/2000/svg"
   xmlns:svg="http://www.w3.org/2000/svg"><defs
     id="defs1" /><g
     id="layer2"
     transform="translate(-397.66322,-658.10454)"><g
       id="g6"
       transform="matrix(0.60655033,0,0,0.60655033,284.72036,663.40865)"><g
         id="g7"><path
           id="path704"
           style="fill:#293138;fill-opacity:1;stroke-width:0.778285"
           d="m 296.57082,658.10459 h 53.93821 c 9.50342,0 17.15418,7.65076 17.15418,17.15418 v 53.93821 c 0,9.50341 -7.65076,17.15417 -17.15418,17.15417 h -53.93821 c -9.50341,0 -17.15417,-7.65076 -17.15417,-17.15417 v -53.93821 c 0,-9.50342 7.65076,-17.15418 17.15417,-17.15418 z"
           transform="matrix(1.6486678,0,0,1.6486678,-469.40929,-1093.7405)" /><path
           fill="#252f3e"
           d="m 36.379,53.64 c 0,1.56 0.168,2.825 0.465,3.75 0.336,0.926 0.758,1.938 1.347,3.032 0.207,0.336 0.293,0.672 0.293,0.969 0,0.418 -0.254,0.84 -0.8,1.261 l -2.653,1.77 c -0.379,0.25 -0.758,0.379 -1.093,0.379 -0.422,0 -0.844,-0.211 -1.266,-0.59 a 13.28,13.28 0 0 1 -1.516,-1.98 34.153,34.153 0 0 1 -1.304,-2.485 c -3.282,3.875 -7.41,5.813 -12.38,5.813 -3.535,0 -6.355,-1.012 -8.421,-3.032 -2.063,-2.023 -3.114,-4.718 -3.114,-8.086 0,-3.578 1.262,-6.484 3.833,-8.671 2.566,-2.192 5.976,-3.286 10.316,-3.286 1.43,0 2.902,0.125 4.46,0.336 1.56,0.211 3.161,0.547 4.845,0.926 v -3.074 c 0,-3.2 -0.676,-5.43 -1.98,-6.734 C 26.061,32.633 23.788,32 20.546,32 c -1.473,0 -2.988,0.168 -4.547,0.547 a 33.416,33.416 0 0 0 -4.547,1.433 c -0.676,0.293 -1.18,0.461 -1.473,0.547 -0.296,0.082 -0.507,0.125 -0.675,0.125 -0.59,0 -0.883,-0.422 -0.883,-1.304 v -2.063 c 0,-0.676 0.082,-1.18 0.293,-1.476 0.21,-0.293 0.59,-0.586 1.18,-0.883 1.472,-0.758 3.242,-1.39 5.304,-1.895 2.063,-0.547 4.254,-0.8 6.57,-0.8 5.008,0 8.672,1.136 11.032,3.41 2.316,2.273 3.492,5.726 3.492,10.359 v 13.64 z m -17.094,6.403 c 1.387,0 2.82,-0.254 4.336,-0.758 1.516,-0.508 2.863,-1.433 4,-2.695 0.672,-0.8 1.18,-1.684 1.43,-2.695 0.254,-1.012 0.422,-2.23 0.422,-3.665 v -1.765 a 34.401,34.401 0 0 0 -3.871,-0.719 31.816,31.816 0 0 0 -3.961,-0.25 c -2.82,0 -4.883,0.547 -6.274,1.684 -1.387,1.136 -2.062,2.734 -2.062,4.84 0,1.98 0.504,3.453 1.558,4.464 1.012,1.051 2.485,1.559 4.422,1.559 z m 33.809,4.547 c -0.758,0 -1.262,-0.125 -1.598,-0.422 -0.34,-0.254 -0.633,-0.84 -0.887,-1.64 L 40.715,29.98 c -0.25,-0.843 -0.38,-1.39 -0.38,-1.687 0,-0.672 0.337,-1.05 1.013,-1.05 h 4.125 c 0.8,0 1.347,0.124 1.644,0.421 0.336,0.25 0.59,0.84 0.84,1.64 l 7.074,27.876 6.57,-27.875 c 0.208,-0.84 0.462,-1.39 0.797,-1.64 0.34,-0.255 0.93,-0.423 1.688,-0.423 h 3.367 c 0.8,0 1.348,0.125 1.684,0.422 0.336,0.25 0.633,0.84 0.8,1.64 l 6.653,28.212 7.285,-28.211 c 0.25,-0.84 0.547,-1.39 0.84,-1.64 0.336,-0.255 0.887,-0.423 1.644,-0.423 h 3.914 c 0.676,0 1.055,0.336 1.055,1.051 0,0.21 -0.043,0.422 -0.086,0.676 -0.043,0.254 -0.125,0.59 -0.293,1.05 L 80.801,62.57 c -0.254,0.84 -0.547,1.387 -0.887,1.64 -0.336,0.255 -0.883,0.423 -1.598,0.423 h -3.62 c -0.801,0 -1.348,-0.13 -1.684,-0.422 -0.34,-0.297 -0.633,-0.844 -0.801,-1.684 l -6.527,-27.16 -6.485,27.117 c -0.21,0.844 -0.46,1.391 -0.8,1.684 -0.337,0.297 -0.926,0.422 -1.684,0.422 z m 54.105,1.137 c -2.187,0 -4.379,-0.254 -6.484,-0.758 -2.106,-0.504 -3.746,-1.055 -4.84,-1.684 -0.676,-0.379 -1.137,-0.8 -1.305,-1.18 a 2.919,2.919 0 0 1 -0.254,-1.18 v -2.148 c 0,-0.882 0.336,-1.304 0.97,-1.304 0.25,0 0.503,0.043 0.757,0.129 0.25,0.082 0.629,0.25 1.05,0.418 a 23.102,23.102 0 0 0 4.634,1.476 c 1.683,0.336 3.324,0.504 5.011,0.504 2.653,0 4.715,-0.465 6.145,-1.39 1.433,-0.926 2.191,-2.274 2.191,-4 0,-1.18 -0.379,-2.145 -1.136,-2.946 -0.758,-0.8 -2.192,-1.516 -4.254,-2.191 l -6.106,-1.895 c -3.074,-0.969 -5.348,-2.398 -6.734,-4.293 -1.39,-1.855 -2.106,-3.918 -2.106,-6.105 0,-1.77 0.38,-3.328 1.137,-4.676 a 10.829,10.829 0 0 1 3.031,-3.453 c 1.262,-0.965 2.696,-1.684 4.38,-2.188 1.683,-0.504 3.452,-0.715 5.304,-0.715 0.926,0 1.894,0.043 2.82,0.168 0.969,0.125 1.852,0.293 2.738,0.461 0.84,0.211 1.641,0.422 2.399,0.676 0.758,0.254 1.348,0.504 1.77,0.758 0.59,0.336 1.011,0.672 1.261,1.05 0.254,0.34 0.379,0.802 0.379,1.391 v 1.98 c 0,0.884 -0.336,1.348 -0.969,1.348 -0.336,0 -0.883,-0.171 -1.597,-0.507 -2.403,-1.094 -5.098,-1.641 -8.086,-1.641 -2.399,0 -4.293,0.379 -5.598,1.18 -1.309,0.797 -1.98,2.02 -1.98,3.746 0,1.18 0.421,2.191 1.261,2.988 0.844,0.8 2.403,1.602 4.633,2.316 l 5.98,1.895 c 3.032,0.969 5.22,2.316 6.524,4.043 1.305,1.727 1.938,3.707 1.938,5.895 0,1.812 -0.38,3.453 -1.094,4.882 -0.758,1.434 -1.77,2.696 -3.074,3.707 -1.305,1.051 -2.864,1.809 -4.672,2.36 -1.895,0.586 -3.875,0.883 -6.024,0.883 z m 0,0"
           id="path1-36"
           style="fill:#ff9900;fill-opacity:1" /><path
           fill="#ff9900"
           d="m 118,73.348 c -4.432,0.063 -9.664,1.052 -13.621,3.832 -1.223,0.883 -1.012,2.062 0.336,1.894 4.508,-0.547 14.44,-1.726 16.21,0.547 1.77,2.23 -1.976,11.62 -3.663,15.79 -0.504,1.26 0.59,1.769 1.726,0.8 7.41,-6.231 9.348,-19.242 7.832,-21.137 -0.757,-0.925 -4.388,-1.79 -8.82,-1.726 z M 1.63,75.859 c -0.927,0.116 -1.347,1.236 -0.368,2.121 16.508,14.902 38.359,23.872 62.613,23.872 17.305,0 37.43,-5.43 51.281,-15.66 2.273,-1.688 0.297,-4.254 -2.02,-3.204 -15.534,6.57 -32.421,9.77 -47.788,9.77 -22.778,0 -44.8,-6.273 -62.653,-16.633 C 2.305,75.894 1.94,75.821 1.631,75.859 Z"
           id="path2-75" /></g><g
         id="g733"><path
           id="path709"
           style="fill:#0addf8;fill-opacity:1;stroke-width:0.778285"
           d="m 414.81739,658.10459 h 53.93821 c 9.50342,0 17.15418,7.65076 17.15418,17.15418 v 53.93821 c 0,9.50341 -7.65076,17.15417 -17.15418,17.15417 h -53.93821 c -9.50341,0 -17.15417,-7.65076 -17.15417,-17.15417 v -53.93821 c 0,-9.50342 7.65076,-17.15418 17.15417,-17.15418 z"
           transform="matrix(1.6486678,0,0,1.6486678,-469.40929,-1093.7405)" /><path
           style="fill:#000000;stroke-width:0.194811"
           d="m 206.18553,117.56657 c -1.8555,-0.94006 -2.966,-2.27628 -3.5054,-4.21782 -0.1775,-0.63905 -0.3235,-4.23317 -0.3245,-7.98693 v -6.825034 h 2.0876 2.0877 v 6.439504 c 0,6.88189 0.163,7.73751 1.6755,8.79694 1.2113,0.8484 3.2896,0.64745 4.5021,-0.43531 l 1.049,-0.93657 0.098,-6.93229 0.098,-6.932274 h 2.0699 2.07 v 7.146204 c 0,6.85137 -0.035,7.21401 -0.7685,8.78969 -1.2824,2.75432 -3.511,3.97713 -7.2482,3.97713 -1.7008,0 -2.5023,-0.18218 -3.8862,-0.88324 z m 29.2496,-9.26818 v -9.830254 l 4.898,0.11479 c 4.6743,0.10953 4.9672,0.15547 6.415,1.00639 2.1335,1.253894 3.14,3.065164 3.14,5.650444 0,2.44345 -0.5232,3.76392 -2.0078,5.06747 l -1.1401,1.00095 1.7494,3.41023 1.7495,3.41022 -2.3434,-0.006 -2.3434,-0.006 -1.4741,-2.80395 -1.474,-2.80395 -1.4969,-0.0979 -1.4968,-0.0979 v 2.9082 2.90819 h -2.0877 -2.0877 z m 8.4735,-0.43311 c 2.0341,-0.77335 2.3626,-3.71831 0.5211,-4.67062 -0.5286,-0.27329 -1.7759,-0.48257 -2.8763,-0.48257 h -1.9429 v 2.5159 c 0,1.38374 0.096,2.61224 0.2141,2.73001 0.3218,0.32185 3.1633,0.25735 4.084,-0.0927 z m 27.1773,0.46743 v -9.795924 h 6.1024 6.1023 v 2.087654 2.08765 h -4.0147 -4.0147 v 1.76649 1.76648 h 3.2118 3.2117 v 2.08765 2.08765 h -3.2117 -3.2118 v 1.76648 1.76648 h 4.0147 4.0147 v 2.08766 2.08765 h -6.1023 -6.1024 z m 27.9424,-5.8e-4 v -9.863904 l 4.898,0.13053 c 5.4947,0.14642 7.2846,0.65544 9.1751,2.609174 1.8125,1.87312 2.4709,3.83772 2.4418,7.28545 -0.03,3.46196 -0.4584,4.74987 -2.2392,6.72094 -2.0533,2.27288 -3.4421,2.70249 -9.2171,2.85132 l -5.0586,0.13038 z m 9.6126,5.05871 c 1.8016,-0.91873 2.4062,-2.03737 2.5251,-4.67287 0.081,-1.79653 -0.031,-2.56297 -0.5001,-3.43636 -0.8679,-1.61409 -2.8915,-2.56943 -5.4427,-2.56943 h -2.0195 v 5.62061 5.62061 l 2.1679,-5.8e-4 c 1.4291,-3.9e-4 2.5433,-0.19189 3.2693,-0.56206 z m -68.2275,-39.746224 c -0.7066,-0.24995 -1.8161,-1.02151 -2.4654,-1.71456 -1.8788,-2.00509 -2.1917,-3.60232 -2.1917,-11.18996 v -6.52586 h 2.0876 2.0877 l 0.01,5.8615 c 0.01,6.62629 0.2439,8.12277 1.4387,9.15357 1.5573,1.34347 4.7437,0.75008 5.557,-1.03486 0.2575,-0.56522 0.3837,-3.00221 0.3837,-7.41117 v -6.56904 h 2.275 2.2749 l -0.1087,7.14621 c -0.098,6.47284 -0.1726,7.2824 -0.7878,8.59151 -0.8651,1.84072 -2.1644,3.05489 -3.9392,3.68106 -1.7322,0.61117 -4.9089,0.61673 -6.6195,0.0116 z m 33.6942,-0.1036 c -2.0006,-0.6916 -3.2761,-1.69302 -4.5713,-3.58906 -1.2776,-1.87037 -1.7842,-3.99775 -1.5919,-6.68516 0.278,-3.88605 2.1017,-6.73102 5.3314,-8.31702 1.5948,-0.78319 2.1891,-0.89472 4.7154,-0.88504 2.4934,0.01 3.1166,0.12879 4.5349,0.86745 1.6758,0.87267 2.9855,2.17314 3.8262,3.79882 0.5297,1.02433 0.5622,0.98843 -1.6601,1.83284 l -1.6372,0.62211 -0.8208,-1.02858 c -1.2129,-1.52007 -2.8554,-2.1904 -4.943,-2.01728 -2.5613,0.21242 -4.3441,1.76081 -4.9381,4.28904 -0.8694,3.70085 1.3182,7.11231 4.7737,7.44435 2.1152,0.20322 3.6639,-0.35299 4.8986,-1.75928 1.1105,-1.26477 0.8307,-1.26136 4.0844,-0.0497 l 0.7315,0.27242 -0.6401,1.25478 c -0.8769,1.71869 -3.0423,3.4909 -4.9622,4.06105 -2.1242,0.63082 -5.119,0.5839 -7.1314,-0.11172 z m -71.1115,-9.55967 v -9.82475 l 4.8981,0.11451 c 4.288,0.10025 5.0628,0.20207 6.2225,0.81769 4.1127,2.18323 4.9004,7.51399 1.5984,10.81608 l -1.2678,1.26777 1.6616,3.1153 c 0.9138,1.71343 1.6614,3.20595 1.6614,3.31673 0,0.11078 -1.0075,0.20142 -2.2389,0.20142 h -2.239 l -1.5349,-2.88478 -1.5349,-2.88476 -1.3649,-0.006 -1.365,-0.006 v 2.8906 2.8906 h -2.2483 -2.2483 z m 8.6307,-0.48673 c 0.5601,-0.19523 1.1598,-0.61931 1.3326,-0.94241 0.4997,-0.93362 0.3665,-2.42132 -0.2893,-3.23114 -0.5058,-0.62462 -0.9747,-0.76652 -2.8906,-0.87478 l -2.2868,-0.12922 v 2.76625 2.76626 h 1.5579 c 0.8569,0 2.0162,-0.15973 2.5762,-0.35496 z m 93.5039,2.60321 v -7.70827 h -2.8905 -2.8907 v -2.08765 -2.08767 h 8.0294 8.0296 v 2.08767 2.08765 h -2.8907 -2.8906 v 7.70827 7.70827 h -2.2483 -2.2482 z m -97.4679,-36.80517 c -1.6643,-0.60926 -2.9812,-1.87099 -3.8235,-3.66323 -0.6153,-1.30912 -0.6895,-2.11869 -0.7879,-8.59151 l -0.1086,-7.1462096 h 2.0858 2.0858 l 0.1126,6.5038496 c 0.092,5.30496 0.2111,6.68474 0.6468,7.48515 1.2838,2.3583 5.193,2.31284 6.3616,-0.074 0.3178,-0.64918 0.482,-2.75779 0.5772,-7.41118 l 0.1331,-6.5038496 h 2.0814 2.0814 l -0.1087,7.1462096 c -0.098,6.47283 -0.1726,7.28239 -0.7879,8.59151 -0.8651,1.84072 -2.1644,3.05488 -3.9391,3.68106 -1.7339,0.61175 -4.9137,0.60317 -6.61,-0.0179 z m 65.3838,-0.33425 c -1.4537,-0.72439 -3.5941,-2.902 -3.5565,-3.61806 0.013,-0.23512 2.8148,-1.95918 3.1846,-1.95918 0.1454,0 0.4869,0.33972 0.759,0.75494 1.1254,1.71762 4.7496,2.4253 6.0028,1.17214 1.4594,-1.45944 0.5229,-2.59425 -3.0369,-3.68007 -4.3565,-1.32883 -5.9683,-2.81213 -6.1949,-5.70107 -0.106,-1.3514 0.025,-1.9946 0.6383,-3.14029 2.039,-3.8073096 8.7201,-4.3817896 12.2068,-1.04961 0.4857,0.46425 0.8817,0.99773 0.88,1.18549 0,0.18775 -0.6734,0.80483 -1.4926,1.37127 l -1.4895,1.0299 -0.7976,-0.62733 c -1.0384,-0.81683 -3.0392,-1.34532 -4.0924,-1.08098 -0.4584,0.11505 -1.0585,0.55275 -1.3337,0.97268 -0.8548,1.30465 -0.018,2.08708 3.31,3.09457 4.417,1.33718 5.6437,2.33096 6.2593,5.0713 0.5793,2.57813 -0.8498,5.28933 -3.3982,6.44692 -2.0634,0.93727 -5.7068,0.82465 -7.8485,-0.24262 z m -37.6115,-9.27078 V 9.8917064 h 1.9335 1.9333 l 4.2493,5.7710596 c 2.337,3.17409 4.3576,5.77563 4.4902,5.7812 0.1325,0.006 0.2409,-2.5914 0.2409,-5.77107 V 9.8917064 h 2.0876 2.0877 v 9.7959196 9.79593 l -2.0074,-0.0141 -2.0074,-0.0141 -4.1752,-5.75308 c -2.2965,-3.1642 -4.2838,-5.75941 -4.4162,-5.76715 -0.1326,-0.007 -0.2409,2.58749 -0.2409,5.76715 v 5.7812 h -2.0877 -2.0877 z m 69.3744,2.08766 v -7.70827 h -2.8905 -2.8907 v -2.08766 -2.0876496 h 7.8689 7.8689 v 2.0876496 2.08766 h -2.8906 -2.8907 v 7.70827 7.70827 h -2.0876 -2.0877 z"
           id="path715" /></g></g></g></svg>
